# Blender 4.4.3
# www.blender.org
mtllib Character1.mtl
g Character1_LOD_0_Mesh
v 3.876284 6.098476 0.687126
v 3.781317 6.306652 0.594829
v 4.055909 5.967093 0.174183
v 3.931023 6.461515 0.167051
v 3.976508 5.912658 0.573938
v 3.854162 6.522464 0.343028
v 3.827219 6.316200 0.440662
v 3.891496 6.263598 0.311297
v 4.006187 5.897883 0.380206
v 3.957745 6.300099 0.144639
v 3.857214 6.465261 0.026526
v 3.835245 6.353786 0.108608
v 3.542170 6.327856 0.750255
v 3.598075 6.495029 0.542269
v 3.506489 6.553952 0.684032
v 3.695324 6.554516 0.244821
v 3.543657 6.942361 -0.020369
v 3.658103 6.716966 0.363831
v 3.558543 6.639107 0.067704
v 3.464441 6.877282 0.348500
v 3.450016 6.639289 0.446945
v 3.291495 6.938657 0.184024
v 3.458619 7.203184 0.053576
v 3.242316 7.367934 -0.183642
v 3.351267 6.904422 0.049583
v 3.103211 7.266233 -0.144901
v 3.275212 7.194001 0.257047
v 2.680431 8.132087 0.139320
v 2.904303 8.029381 -0.223778
v 2.674108 8.283113 0.038667
v 2.681714 7.780079 0.199302
v 2.625999 7.609122 -0.014356
v 2.491365 7.906069 -0.249736
v 2.616888 8.031309 -0.354113
v 2.491086 7.946670 0.088573
v 2.428649 7.875274 -0.085075
v 2.719174 8.222410 -0.248537
v 2.582947 8.514439 -0.147632
v 2.321567 8.389810 0.188866
v 2.072352 8.289276 0.093266
v 2.194148 8.754946 0.183296
v 2.291663 8.811946 0.053233
v 1.943478 8.390041 -0.090366
v 1.557546 8.957592 0.343994
v 1.500000 8.770078 0.194103
v 1.310140 8.894366 -0.027132
v 0.474870 -0.005763 1.092673
v 0.349715 0.016125 1.013777
v 0.778566 -0.002333 0.946290
v 0.817562 0.082118 0.757508
v 0.725927 -0.001273 -0.042998
v 0.795975 0.174793 0.030848
v 0.782047 -0.002502 0.472187
v 0.682382 0.448182 -0.019196
v 0.708121 0.566952 -0.277141
v 0.790244 0.071606 -0.371190
v 0.664270 0.001915 1.048139
v 0.556977 -0.000693 -0.462911
v 0.555298 0.172049 -0.561485
v 0.426058 0.001945 0.813354
v 0.437766 0.006814 0.360074
v 0.527854 0.176171 0.815197
v 0.549242 0.538271 0.156080
v 0.343556 0.022780 -0.080588
v 0.421271 0.476969 0.176500
v 0.351761 0.728609 -0.286022
v 0.290423 0.174237 -0.296646
v 0.708035 0.936334 -0.198021
v 0.613834 1.227288 0.046224
v 0.531266 0.639766 -0.426659
v 0.642625 1.012014 -0.389207
v 0.842345 1.868285 -0.579105
v 0.704109 1.871521 -0.702097
v 0.443600 1.424690 0.129912
v 0.368572 0.646774 0.096484
v 0.448575 0.972325 -0.445214
v 0.298464 1.469984 -0.130105
v 0.969041 2.459776 -0.477525
v 0.668542 2.031595 0.032678
v 0.893944 2.412067 -0.211525
v 0.839436 3.020105 -0.486552
v 0.867743 2.497073 -0.649527
v 0.818591 2.895703 0.032191
v 0.567478 2.811251 0.157690
v 0.720213 3.037550 -0.534575
v 0.478751 2.193522 0.107741
v 0.364848 2.722523 0.081455
v 0.343274 1.677473 0.037379
v 0.420761 2.928338 -0.535287
v 0.221544 2.228772 -0.132511
v 0.309398 2.148628 -0.593254
v 0.246476 2.654742 -0.222075
v 0.233645 2.107916 -0.417565
v 1.124144 4.407094 -0.084388
v 1.067529 4.267365 0.137106
v 0.907596 3.193106 -0.228654
v 0.906006 3.304668 -0.383242
v 0.887095 3.448159 0.050827
v 0.888102 4.232453 0.329015
v 0.678738 3.034944 0.286914
v 0.476543 3.096993 0.311748
v 0.702224 3.548104 0.288675
v 0.466430 4.039084 0.315571
v 0.655151 3.890339 -0.567887
v 0.242580 3.323747 0.074566
v 0.302968 4.094845 0.202210
v 0.280167 2.988142 -0.392024
v 0.303367 4.683184 -0.462350
v 0.148005 4.546344 0.063838
v 0.199624 3.327742 -0.227575
v 1.250294 5.705362 0.290842
v 1.275507 5.444531 0.114396
v 1.199703 5.228644 -0.220712
v 1.015747 5.240884 0.520513
v 0.775488 5.196601 0.628597
v 0.629296 4.233751 0.399198
v 0.465688 5.608957 0.675714
v 0.199070 5.138993 0.368587
v 0.050942 5.519441 -0.031912
v 0.119257 4.810864 -0.243761
v 1.228707 6.238969 -0.057433
v 1.241873 6.418764 0.173566
v 1.092357 6.714223 0.494850
v 1.033387 5.966294 0.613216
v 0.960512 6.520744 0.636782
v 0.747277 5.965106 0.724333
v 0.367138 6.042407 0.710567
v 0.100675 5.976365 0.787261
v 0.009676 5.568184 -0.049229
v 0.081401 5.626903 0.488444
v 0.990794 6.854439 -0.215407
v 1.090467 6.828425 0.034764
v 0.822530 7.526623 -0.031857
v 0.916009 7.459107 0.437347
v 0.792249 7.350068 0.704030
v 0.887798 7.867379 0.624610
v 0.755035 7.901959 0.829235
v 0.609830 6.826765 0.766886
v 0.445743 7.901693 0.940354
v 0.354342 7.005610 0.900783
v 0.083162 7.212277 0.913262
v 0.134079 6.855601 0.909511
v 0.009600 6.789907 0.903043
v 0.009600 6.876260 0.911175
v 1.151902 8.834689 0.006217
v 1.109868 8.843265 0.728574
v 1.173036 9.006011 0.551714
v 1.198908 8.928108 0.307844
v 1.082103 8.685159 1.087574
v 1.018036 8.337048 0.529729
v 0.946007 8.394842 0.995105
v 0.859482 8.344275 0.863924
v 0.896025 7.741522 0.362139
v 1.022372 8.176468 0.258009
v 0.831299 8.541977 1.317813
v 0.860176 8.781940 1.276789
v 0.771787 8.332318 1.117866
v 0.554273 8.310965 1.015544
v 0.469528 8.597040 1.294907
v 0.628614 8.758739 1.347017
v 0.185540 9.455294 0.832498
v 0.498811 8.394965 1.173359
v 0.126296 9.039737 1.018354
v 0.179875 8.650315 1.041790
v 1.690846 9.416059 0.159390
v 1.798764 9.369640 -0.113211
v 1.708051 9.194277 0.298638
v 1.391778 9.858215 0.129871
v 1.448929 9.779500 -0.015011
v 1.370358 9.657568 0.392326
v 1.354605 8.985766 0.379223
v 1.321666 9.225012 0.556977
v 1.035517 9.716885 0.547078
v 0.838666 9.954884 0.295507
v 1.054239 9.056087 0.888471
v 0.625621 9.477346 0.811802
v 0.505271 9.966467 0.376450
v 0.698189 10.019300 -0.016293
v 0.163039 9.955157 0.457492
v 0.009600 10.018749 0.358919
v 0.570717 11.132728 0.080239
v 0.491819 11.166066 0.486726
v 0.303615 10.193268 0.262229
v 0.508867 10.790865 0.115641
v 0.421006 10.162012 -0.024217
v 0.247209 11.193604 0.831202
v 0.327008 10.592628 -0.131362
v 0.364289 11.005679 0.647353
v 0.438426 10.670980 0.290688
v 0.189734 10.200262 0.382617
v 0.329499 10.511180 0.280809
v 0.327532 10.311171 -0.062021
v 0.323244 10.807940 0.732328
v 0.269636 11.511942 0.741240
v 0.196614 10.381586 0.443787
v 0.049504 10.596643 0.888957
v 0.044806 10.823473 0.912476
v 0.174397 10.439923 0.607740
v 0.009600 11.586468 0.781795
v 0.476025 11.658895 0.091233
v 0.392754 11.580552 0.517286
v 0.172228 11.805914 0.496007
v 0.052838 11.885827 0.129510
v 2.473864 8.237939 -0.370040
v 2.177295 8.334090 -0.264959
v 2.486593 8.460324 -0.312827
v 2.055565 8.946964 -0.318030
v 1.949681 8.781458 -0.366072
v 1.357995 9.007614 -0.225477
v 0.545520 2.369127 -0.733653
v 0.466647 1.851451 -0.681463
v 0.986808 4.694872 -0.476506
v 0.874131 5.469476 -0.590623
v 0.842881 4.391955 -0.557704
v 0.610056 4.690990 -0.605190
v 0.415787 5.440620 -0.642127
v 0.184397 5.494523 -0.491533
v 1.006993 6.107804 -0.541499
v 0.881982 6.596265 -0.443577
v 0.798799 5.779854 -0.746063
v 0.588781 5.661144 -0.781823
v 0.827004 6.295852 -0.701598
v 0.569179 6.518899 -0.740362
v 0.426897 6.433781 -0.806740
v 0.506507 6.088766 -0.866140
v 0.213854 5.750354 -0.751610
v 0.065060 5.701196 -0.628839
v 0.167369 6.139802 -0.784121
v 0.009600 5.721212 -0.459894
v 0.009600 6.254872 -0.621525
v 0.776067 7.748989 -0.096184
v 0.583133 7.730117 -0.219391
v 0.664430 7.420946 -0.229517
v 0.649869 7.074892 -0.346381
v 0.047676 7.296408 -0.273235
v 0.322636 6.880902 -0.454273
v 0.203683 6.465433 -0.723463
v 0.024255 6.612752 -0.543194
v 0.049367 7.638995 -0.196758
v 0.919419 8.789991 -0.281107
v 0.659268 8.612544 -0.356168
v 0.225245 8.525705 -0.321817
v 0.028746 8.731033 -0.304863
v 0.019198 10.854854 0.998302
v 0.110962 11.061961 0.787422
v 1.647724 9.357468 -0.328657
v 1.637934 9.140225 -0.346985
v 1.125626 9.532179 -0.377233
v 1.120471 9.801997 -0.288811
v 1.081566 9.065181 -0.301235
v 1.015869 9.263045 -0.406398
v 0.582620 9.982517 -0.164186
v 0.556410 9.041905 -0.544451
v 0.610079 9.448225 -0.545697
v 0.402787 9.676135 -0.489012
v 0.039048 9.618812 -0.487020
v 0.009600 9.354596 -0.477901
v 0.552462 11.029129 -0.025168
v 0.449121 11.278100 -0.210424
v 0.343748 9.961989 -0.269563
v 0.155770 10.338974 -0.253237
v 0.188067 10.745760 -0.294734
v 0.203371 11.058456 -0.439107
v 0.396908 11.642825 -0.140769
v 0.174848 11.331923 -0.456635
v 0.099195 11.605023 -0.378989
v 0.010968 5.589654 -0.293364
v 0.009600 9.488386 0.780470
v 0.009600 10.417933 0.525696
v 0.044465 10.453084 0.834537
v 0.009600 10.102489 -0.299483
v 0.031554 9.857887 -0.390669
v 0.009600 10.220515 0.377587
v 0.009600 10.321304 0.402078
v 0.009600 10.443000 0.607243
v 0.009600 10.388633 0.442962
v 0.009600 11.208473 -0.474721
v 0.009600 11.095561 -0.469120
v 0.009600 9.927103 -0.335918
v 0.009600 11.764780 -0.233436
v 0.009600 11.835295 -0.122390
v 0.009600 10.279026 -0.254857
v 0.009600 10.711865 -0.291759
v 0.009600 10.518828 -0.262520
v 0.009600 10.841190 -0.351901
v 0.009600 8.351278 0.991418
v 0.009600 7.876979 0.935746
v 0.009600 7.659995 0.923844
v 0.009600 5.810190 0.717798
v 0.009600 5.575618 0.122148
v -0.063962 7.212277 0.913262
v 0.009600 6.846450 0.895583
v 0.009600 7.001933 0.914420
v 0.009600 8.975007 0.990735
v 0.009600 5.605722 0.312406
v 0.009600 9.141176 0.956509
v 0.009600 5.635119 0.528871
v 0.009600 6.199901 0.833037
v 0.009600 6.712602 0.903218
v 0.009600 8.586841 1.002287
v 0.009600 6.467134 0.876586
v 0.009600 6.825567 0.899620
v 0.009600 5.703791 0.621816
v 0.009600 11.269722 0.845234
v 0.009600 11.813436 0.515614
v 0.009600 11.862069 0.328907
v -3.857084 6.098476 0.687126
v -3.762117 6.306652 0.594829
v -4.036709 5.967093 0.174183
v -3.911823 6.461515 0.167051
v -3.957308 5.912658 0.573938
v -3.834962 6.522464 0.343028
v -3.808019 6.316200 0.440662
v -3.872296 6.263598 0.311297
v -3.986987 5.897883 0.380206
v -3.938545 6.300099 0.144639
v -3.857214 6.465261 0.026526
v -3.816045 6.353786 0.108608
v -3.522970 6.327856 0.750255
v -3.578875 6.495029 0.542269
v -3.487289 6.553952 0.684032
v -3.676124 6.554516 0.244821
v -3.524457 6.942361 -0.020369
v -3.638903 6.716966 0.363831
v -3.539343 6.639107 0.067704
v -3.445241 6.877282 0.348500
v -3.430816 6.639289 0.446945
v -3.272295 6.938657 0.184024
v -3.439419 7.203184 0.053576
v -3.223116 7.367934 -0.183642
v -3.332067 6.904422 0.049583
v -3.084011 7.266233 -0.144901
v -3.256012 7.194001 0.257047
v -2.661231 8.132087 0.139320
v -2.885103 8.029381 -0.223778
v -2.654908 8.283113 0.038667
v -2.662514 7.780079 0.199302
v -2.606799 7.609122 -0.014356
v -2.472165 7.906069 -0.249736
v -2.597688 8.031309 -0.354113
v -2.471886 7.946670 0.088573
v -2.409449 7.875274 -0.085075
v -2.699974 8.222410 -0.248537
v -2.563747 8.514439 -0.147632
v -2.302367 8.389810 0.188866
v -2.053152 8.289276 0.093266
v -2.174948 8.754946 0.183296
v -2.272463 8.811946 0.053233
v -1.924278 8.390041 -0.090366
v -1.538346 8.957592 0.343994
v -1.480800 8.770078 0.194103
v -1.290940 8.894366 -0.027132
v -0.455670 -0.005763 1.092673
v -0.330515 0.016125 1.013777
v -0.759366 -0.002333 0.946290
v -0.798362 0.082118 0.757508
v -0.706727 -0.001273 -0.042998
v -0.776775 0.174793 0.030848
v -0.762847 -0.002502 0.472187
v -0.663182 0.448182 -0.019196
v -0.688921 0.566952 -0.277141
v -0.771044 0.071606 -0.371190
v -0.645070 0.001915 1.048139
v -0.537777 -0.000693 -0.462911
v -0.536098 0.172049 -0.561485
v -0.406858 0.001945 0.813354
v -0.418566 0.006814 0.360074
v -0.508654 0.176171 0.815197
v -0.530042 0.538271 0.156080
v -0.324356 0.022780 -0.080588
v -0.402071 0.476969 0.176500
v -0.332561 0.728609 -0.286022
v -0.271223 0.174237 -0.296646
v -0.688835 0.936334 -0.198021
v -0.594634 1.227288 0.046224
v -0.512066 0.639766 -0.426659
v -0.623425 1.012014 -0.389207
v -0.823145 1.868285 -0.579105
v -0.684909 1.871521 -0.702097
v -0.424400 1.424690 0.129912
v -0.349372 0.646774 0.096484
v -0.429375 0.972325 -0.445214
v -0.279264 1.469984 -0.130105
v -0.949841 2.459776 -0.477525
v -0.649342 2.031595 0.032678
v -0.874744 2.412067 -0.211525
v -0.820236 3.020105 -0.486552
v -0.848543 2.497073 -0.649527
v -0.799391 2.895703 0.032191
v -0.548278 2.811251 0.157690
v -0.701013 3.037550 -0.534575
v -0.459551 2.193522 0.107741
v -0.345648 2.722523 0.081455
v -0.324074 1.677473 0.037379
v -0.401561 2.928338 -0.535287
v -0.202344 2.228772 -0.132511
v -0.290198 2.148628 -0.593254
v -0.227276 2.654742 -0.222075
v -0.214445 2.107916 -0.417565
v -1.104944 4.407094 -0.084388
v -1.048329 4.267365 0.137106
v -0.888396 3.193106 -0.228654
v -0.886806 3.304668 -0.383242
v -0.867895 3.448159 0.050827
v -0.868902 4.232453 0.329015
v -0.659538 3.034944 0.286914
v -0.457343 3.096993 0.311748
v -0.683024 3.548104 0.288675
v -0.447230 4.039084 0.315571
v -0.635951 3.890339 -0.567887
v -0.223380 3.323747 0.074566
v -0.283768 4.094845 0.202210
v -0.260967 2.988142 -0.392024
v -0.284167 4.683184 -0.462350
v -0.128805 4.546344 0.063838
v -0.180424 3.327742 -0.227575
v -1.231094 5.705362 0.290842
v -1.256307 5.444531 0.114396
v -1.180503 5.228644 -0.220712
v -0.996547 5.240884 0.520513
v -0.756288 5.196601 0.628597
v -0.610096 4.233751 0.399198
v -0.446488 5.608957 0.675714
v -0.179870 5.138993 0.368587
v -0.031742 5.519441 -0.031912
v -0.100057 4.810864 -0.243761
v -1.209507 6.238969 -0.057433
v -1.222673 6.418764 0.173566
v -1.073157 6.714223 0.494850
v -1.014187 5.966294 0.613216
v -0.941312 6.520744 0.636782
v -0.728077 5.965106 0.724333
v -0.347938 6.042407 0.710567
v -0.081475 5.976365 0.787261
v -0.062201 5.626903 0.488444
v -0.971594 6.854439 -0.215407
v -1.071267 6.828425 0.034764
v -0.803330 7.526623 -0.031857
v -0.896809 7.459107 0.437347
v -0.773049 7.350068 0.704030
v -0.868598 7.867379 0.624610
v -0.735835 7.901959 0.829235
v -0.590630 6.826765 0.766886
v -0.426543 7.901693 0.940354
v -0.335142 7.005610 0.900783
v -0.114879 6.855601 0.909511
v -1.132702 8.834689 0.006217
v -1.090668 8.843265 0.728574
v -1.153836 9.006011 0.551714
v -1.179708 8.928108 0.307844
v -1.062903 8.685159 1.087574
v -0.998836 8.337048 0.529729
v -0.926807 8.394842 0.995105
v -0.840282 8.344275 0.863924
v -0.876825 7.741522 0.362139
v -1.003172 8.176468 0.258009
v -0.812099 8.541977 1.317813
v -0.840976 8.781940 1.276789
v -0.752587 8.332318 1.117866
v -0.535073 8.310965 1.015544
v -0.450328 8.597040 1.294907
v -0.609414 8.758739 1.347017
v -0.166340 9.455294 0.832498
v -0.479611 8.394965 1.173359
v -0.107096 9.039737 1.018354
v -0.160675 8.650315 1.041790
v -1.671646 9.416059 0.159390
v -1.779564 9.369640 -0.113211
v -1.688851 9.194277 0.298638
v -1.372578 9.858215 0.129871
v -1.429729 9.779500 -0.015011
v -1.351158 9.657568 0.392326
v -1.335405 8.985766 0.379223
v -1.302466 9.225012 0.556977
v -1.016317 9.716885 0.547078
v -0.819466 9.954884 0.295507
v -1.035039 9.056087 0.888471
v -0.606421 9.477346 0.811802
v -0.486071 9.966467 0.376450
v -0.678989 10.019300 -0.016293
v -0.143839 9.955157 0.457492
v -0.551517 11.132728 0.080239
v -0.472619 11.166066 0.486726
v -0.284415 10.193268 0.262229
v -0.489667 10.790865 0.115641
v -0.401806 10.162012 -0.024217
v -0.228009 11.193604 0.831202
v -0.307808 10.592628 -0.131362
v -0.345089 11.005679 0.647353
v -0.419226 10.670980 0.290688
v -0.170534 10.200262 0.382617
v -0.310299 10.511180 0.280809
v -0.308332 10.311171 -0.062021
v -0.304044 10.807940 0.732328
v -0.250436 11.511942 0.741240
v -0.177414 10.381586 0.443787
v -0.030304 10.596643 0.888957
v -0.025606 10.823473 0.912476
v -0.155197 10.439923 0.607740
v 0.009600 11.093981 0.861540
v -0.456825 11.658895 0.091233
v -0.373554 11.580552 0.517286
v -0.153028 11.805914 0.496007
v -0.033638 11.885827 0.129510
v -2.473864 8.237939 -0.370040
v -2.158095 8.334090 -0.264959
v -2.467393 8.460324 -0.312827
v -2.036365 8.946964 -0.318030
v -1.930481 8.781458 -0.366072
v -1.338795 9.007614 -0.225477
v -0.526320 2.369127 -0.733653
v -0.447447 1.851451 -0.681463
v -0.967608 4.694872 -0.476506
v -0.854931 5.469476 -0.590623
v -0.823681 4.391955 -0.557704
v -0.590856 4.690990 -0.605190
v -0.396587 5.440620 -0.642127
v -0.165197 5.494523 -0.491533
v -0.987793 6.107804 -0.541499
v -0.862782 6.596265 -0.443577
v -0.779599 5.779854 -0.746063
v -0.569581 5.661144 -0.781823
v -0.807804 6.295852 -0.701598
v -0.549979 6.518899 -0.740362
v -0.407697 6.433781 -0.806740
v -0.487307 6.088766 -0.866140
v -0.194654 5.750354 -0.751610
v -0.045860 5.701196 -0.628839
v -0.148169 6.139802 -0.784121
v -0.756867 7.748989 -0.096184
v -0.563933 7.730117 -0.219391
v -0.645230 7.420946 -0.229517
v -0.630669 7.074892 -0.346381
v -0.028476 7.296408 -0.273235
v -0.303436 6.880902 -0.454273
v -0.184483 6.465433 -0.723463
v -0.005055 6.612752 -0.543194
v -0.030167 7.638995 -0.196758
v -0.900219 8.789991 -0.281107
v -0.640068 8.612544 -0.356168
v -0.206045 8.525705 -0.321817
v -0.009546 8.731033 -0.304863
v 0.000002 10.854854 0.998302
v -0.091762 11.061961 0.787422
v -1.628524 9.357468 -0.328657
v -1.618734 9.140225 -0.346985
v -1.106426 9.532179 -0.377233
v -1.101271 9.801997 -0.288811
v -1.062366 9.065181 -0.301235
v -0.996669 9.263045 -0.406398
v -0.563420 9.982517 -0.164186
v -0.537210 9.041905 -0.544451
v -0.590879 9.448225 -0.545697
v -0.383587 9.676135 -0.489012
v -0.019848 9.618812 -0.487020
v -0.533262 11.029129 -0.025168
v -0.429921 11.278100 -0.210424
v -0.324548 9.961989 -0.269563
v -0.136570 10.338974 -0.253237
v -0.168867 10.745760 -0.294734
v -0.184171 11.058456 -0.439107
v -0.377708 11.642825 -0.140769
v -0.155648 11.331923 -0.456635
v -0.099195 11.605023 -0.378989
v -0.025265 10.453084 0.834537
v -0.012354 9.857887 -0.390669
v 0.009600 8.200329 -0.221729
v 0.009600 11.865462 -0.014737
v 0.009600 11.382563 -0.471664
v 0.009600 11.608118 -0.386392
v -3.741366 6.709992 0.253672
v 3.741366 6.709992 0.253672
vn 0.9516 0.1965 -0.2365
vn 0.9395 0.3398 -0.0436
vn 0.8565 0.2786 0.4346
vn 0.9817 0.1551 -0.1105
vn 0.9161 0.2450 0.3174
vn 0.7968 0.4592 0.3927
vn -0.4098 -0.4460 -0.7957
vn -0.5364 -0.4293 -0.7266
vn -0.4944 -0.4501 -0.7436
vn 0.8725 0.2184 -0.4372
vn 0.8234 0.3808 -0.4207
vn 0.8329 -0.3219 -0.4502
vn -0.8117 -0.5190 -0.2680
vn -0.8721 -0.4106 -0.2663
vn -0.8031 -0.5456 -0.2394
vn 0.8053 0.3252 0.4958
vn 0.8564 0.2649 0.4432
vn 0.6792 0.3608 0.6391
vn 0.5687 0.5360 0.6239
vn 0.5376 0.5370 0.6501
vn 0.5894 0.5768 0.5655
vn -0.4666 -0.7418 -0.4817
vn -0.6569 -0.7509 -0.0678
vn -0.7633 -0.5771 -0.2905
vn -0.6708 -0.7375 -0.0787
vn -0.6866 -0.7245 -0.0603
vn 0.8363 0.5447 0.0622
vn 0.7458 0.5783 0.3306
vn -0.3001 -0.3057 -0.9036
vn 0.4922 0.6074 0.6235
vn -0.5658 -0.7619 -0.3153
vn 0.7614 0.4003 -0.5099
vn -0.8076 -0.5142 0.2887
vn 0.4669 0.0335 -0.8837
vn -0.2262 -0.3793 -0.8972
vn -0.3307 -0.5351 -0.7774
vn 0.2997 0.2821 0.9114
vn 0.1504 0.1805 0.9720
vn 0.7221 0.5247 0.4507
vn -0.3971 -0.1483 0.9057
vn -0.7587 -0.6491 0.0551
vn 0.0287 -0.0921 -0.9953
vn -0.5257 -0.5208 -0.6726
vn 0.7320 0.4861 -0.4774
vn 0.6952 0.4752 -0.5393
vn -0.5111 -0.3620 0.7796
vn 0.8036 0.5782 -0.1409
vn 0.7106 0.5863 0.3890
vn -0.5109 -0.6403 0.5735
vn -0.7507 -0.6606 0.0075
vn 0.4943 0.3072 0.8132
vn -0.6490 -0.7133 -0.2646
vn -0.4967 -0.4452 -0.7450
vn 0.1816 -0.3835 0.9055
vn -0.5148 -0.7290 0.4511
vn 0.0349 -0.9748 0.2204
vn -0.0415 -0.9989 -0.0203
vn -0.1777 -0.9841 0.0006
vn -0.1185 -0.9929 -0.0103
vn 0.5140 -0.8578 -0.0037
vn 0.9128 0.3100 0.2659
vn 0.9914 -0.0874 -0.0975
vn 0.9997 0.0204 0.0117
vn 0.8234 -0.3889 -0.4132
vn -0.0157 -0.9998 0.0095
vn 0.0004 -1.0000 -0.0005
vn 0.4227 0.7915 0.4414
vn 0.2439 0.8332 0.4962
vn 0.8918 0.3584 0.2762
vn 0.9333 0.1213 -0.3379
vn 0.5095 0.4875 0.7090
vn 0.0381 0.8754 0.4819
vn -0.0219 -0.9998 -0.0038
vn -0.0861 -0.9963 -0.0079
vn -0.1034 -0.8081 -0.5799
vn 0.6318 -0.0002 -0.7751
vn -0.3207 0.8352 0.4468
vn -0.9694 0.0208 0.2448
vn -0.9849 0.0822 0.1525
vn -0.9863 0.1650 0.0066
vn -0.9267 0.0011 0.3757
vn -0.9275 -0.2186 -0.3031
vn -0.9263 -0.0297 -0.3756
vn -0.6840 -0.1230 -0.7190
vn 0.9964 -0.0473 0.0703
vn 0.7287 -0.0129 0.6847
vn 0.8513 -0.2096 -0.4810
vn 0.6686 -0.2077 -0.7140
vn 0.3166 -0.1882 -0.9297
vn 0.4306 0.0130 0.9025
vn 0.1361 0.0454 0.9896
vn -0.3940 -0.1677 -0.9037
vn -0.2938 -0.1944 -0.9359
vn -0.5922 0.0738 -0.8024
vn -0.9861 -0.0590 0.1556
vn -0.9741 -0.0428 -0.2221
vn -0.7599 -0.0033 -0.6500
vn 0.9882 -0.0053 -0.1531
vn 0.9180 -0.0831 0.3878
vn 0.5893 -0.0474 0.8066
vn 0.8312 -0.1678 0.5300
vn 0.6978 0.2149 -0.6833
vn 0.9941 -0.1023 0.0369
vn 0.5871 0.1183 -0.8008
vn 0.1486 -0.3550 0.9230
vn 0.2251 0.1486 -0.9629
vn -0.0499 -0.0539 0.9973
vn -0.7970 -0.0132 0.6038
vn -0.6864 -0.1284 0.7158
vn -0.9953 0.0187 0.0951
vn -0.9660 -0.0005 0.2584
vn -0.8609 -0.0003 -0.5088
vn 0.8900 -0.1139 -0.4414
vn 0.9870 -0.1541 -0.0455
vn 0.8897 -0.2092 0.4058
vn 0.8766 -0.1745 0.4485
vn 0.4346 -0.0977 0.8953
vn 0.4404 -0.2988 0.8466
vn -0.0060 -0.2090 0.9779
vn 0.5355 -0.2216 0.8149
vn -0.3402 -0.1961 0.9197
vn -0.4304 0.1341 -0.8926
vn -0.0530 -0.0115 -0.9985
vn -0.4124 -0.1272 0.9021
vn -0.8986 -0.0873 0.4300
vn -0.9598 -0.1023 0.2613
vn -0.6911 -0.0923 0.7169
vn -0.9920 -0.0651 -0.1078
vn 0.9251 -0.0572 -0.3754
vn 0.9946 -0.0788 0.0678
vn 0.9269 -0.0372 0.3734
vn 0.6479 -0.1656 0.7435
vn 0.1688 -0.1920 0.9668
vn -0.2485 -0.1778 0.9522
vn -0.8035 -0.1876 0.5650
vn -0.6120 -0.0797 -0.7869
vn -0.9498 -0.0835 -0.3015
vn 0.9048 -0.4248 -0.0288
vn 0.2834 -0.7323 0.6193
vn 0.8035 -0.1876 0.5650
vn 0.9810 0.1879 0.0481
vn 0.9439 0.1384 -0.3000
vn 0.8771 0.1722 0.4484
vn 0.4857 0.0161 0.8740
vn 0.1468 -0.0101 0.9891
vn 0.6210 -0.0316 0.7832
vn -0.2834 -0.7323 0.6193
vn -0.9051 -0.4241 -0.0291
vn 0.7742 0.3063 -0.5539
vn 0.9432 0.2854 -0.1700
vn 0.9829 0.1248 0.1357
vn 0.6747 -0.0044 0.7381
vn 0.8907 0.1820 -0.4166
vn 0.9920 -0.0928 -0.0858
vn 0.9224 -0.1475 0.3569
vn 0.5884 -0.1947 0.7848
vn 0.1653 -0.1466 0.9753
vn 0.2451 -0.0810 0.9661
vn 0.1234 -0.1870 0.9746
vn 0.3497 -0.0907 0.9325
vn 0.1988 -0.3433 0.9179
vn -0.0000 -0.0846 0.9964
vn -0.0000 -0.0364 0.9993
vn 0.0086 -0.0206 0.9998
vn -0.0086 -0.0206 0.9998
vn -0.0000 -0.0091 1.0000
vn 0.9599 -0.2719 -0.0685
vn 0.9720 -0.2255 0.0665
vn 0.9337 -0.2393 0.2664
vn 0.7160 -0.6251 -0.3109
vn 0.9153 -0.0998 0.3902
vn 0.4607 0.3460 0.8173
vn 0.3677 -0.3609 0.8571
vn 0.2304 -0.8813 0.4127
vn 0.7324 -0.6743 0.0945
vn 0.7975 -0.0926 -0.5962
vn 0.7629 -0.5455 0.3471
vn -0.2318 -0.9399 0.2508
vn -0.0666 0.2334 0.9701
vn -0.4251 -0.2442 0.8716
vn -0.4038 -0.1331 0.9051
vn -0.4008 -0.7276 0.5568
vn -0.3291 0.2539 0.9095
vn 0.1543 -0.1881 0.9699
vn -0.0000 -0.0167 0.9999
vn -0.0000 -0.1229 0.9924
vn 0.7212 0.6694 -0.1782
vn 0.7402 0.5320 0.4111
vn 0.5230 0.8394 0.1478
vn 0.5688 0.5071 0.6475
vn 0.1094 -0.9673 0.2287
vn 0.2612 -0.9360 0.2361
vn -0.1763 -0.9634 -0.2022
vn 0.6725 -0.0241 0.7397
vn 0.7067 0.3091 0.6364
vn 0.9572 -0.2158 0.1929
vn 0.2963 0.6311 0.7169
vn 0.1356 0.6019 0.7870
vn 0.1890 0.9114 0.3656
vn 0.2314 0.7685 0.5966
vn 0.2921 0.9486 -0.1216
vn -0.0962 0.5542 0.8268
vn -0.0438 0.5305 0.8465
vn -0.0000 0.3187 0.9478
vn -0.0000 0.5498 0.8353
vn 0.9992 0.0345 -0.0220
vn 0.9305 0.0107 0.3660
vn 0.8905 -0.4292 0.1511
vn 0.6915 0.7048 -0.1588
vn 0.7592 -0.1177 0.6401
vn 0.6733 0.0450 0.7380
vn 0.4801 -0.1063 0.8708
vn 0.7956 -0.4753 0.3758
vn 0.8376 -0.2485 -0.4865
vn 0.9126 -0.3698 0.1742
vn 0.9348 0.1925 -0.2984
vn 0.8089 0.3048 0.5029
vn 0.3173 -0.2375 0.9181
vn 0.4246 -0.4097 0.8074
vn -0.0000 -0.2107 0.9776
vn 0.5315 -0.1580 0.8322
vn 0.5227 -0.5629 0.6402
vn -0.0000 -0.3724 0.9281
vn 0.3560 -0.0874 0.9304
vn 0.5810 -0.0245 0.8135
vn -0.0000 0.5176 0.8556
vn -0.0000 0.1544 0.9880
vn 0.8224 0.5657 -0.0599
vn 0.8081 0.4389 0.3929
vn 0.5513 0.3830 0.7412
vn -0.0000 0.9668 -0.2555
vn 0.2443 0.9682 -0.0536
vn 0.0081 -0.0649 -0.9979
vn 0.4826 0.3840 -0.7872
vn -0.0954 -0.0974 -0.9907
vn 0.4480 0.4265 -0.7858
vn -0.1628 -0.6941 -0.7013
vn -0.1877 0.1107 -0.9760
vn -0.1229 -0.0701 -0.9899
vn 0.4031 -0.0606 -0.9131
vn 0.7169 -0.0639 -0.6943
vn 0.4231 -0.1489 -0.8937
vn 0.8086 0.1115 -0.5778
vn -0.2447 -0.3362 -0.9094
vn 0.6902 0.3492 -0.6338
vn 0.5907 0.2522 -0.7665
vn 0.5315 -0.1422 -0.8350
vn 0.0884 -0.3663 -0.9263
vn 0.0800 0.0166 -0.9967
vn -0.3802 -0.3015 -0.8744
vn -0.4930 0.0279 -0.8696
vn -0.0334 0.3575 -0.9333
vn -0.7552 -0.3827 -0.5322
vn -0.7477 -0.4249 -0.5103
vn -0.0000 0.1410 -0.9900
vn -0.4023 0.3705 -0.8372
vn -0.1741 0.3721 -0.9117
vn -0.8665 -0.3924 -0.3087
vn 0.3658 0.2318 -0.9014
vn 0.2800 0.3920 -0.8763
vn 0.2736 0.4655 -0.8417
vn -0.0069 0.0778 -0.9969
vn 0.2158 -0.0370 -0.9757
vn 0.5967 -0.3052 -0.7421
vn 0.0762 -0.2047 -0.9759
vn 0.2100 -0.2653 -0.9410
vn -0.1378 -0.2455 -0.9596
vn -0.0000 -0.1356 -0.9908
vn -0.0705 -0.0502 -0.9963
vn 0.3185 -0.4800 -0.8174
vn 0.2833 -0.1699 -0.9439
vn 0.3762 0.3914 -0.8398
vn 0.2949 0.6802 -0.6711
vn 0.2098 0.1924 -0.9586
vn 0.2409 0.8155 -0.5263
vn 0.1310 0.1381 -0.9817
vn -0.1389 -0.2129 -0.9672
vn -0.0447 0.1861 -0.9815
vn 0.9278 -0.1359 -0.3474
vn 0.8216 0.0804 -0.5643
vn 0.9357 -0.3521 -0.0205
vn 0.2540 0.5566 -0.7910
vn 0.3591 0.0602 -0.9314
vn 0.3163 -0.3218 -0.8924
vn 0.4216 -0.2164 -0.8806
vn 0.4118 0.1472 -0.8993
vn 0.6815 0.5611 -0.4698
vn -0.0000 -0.2283 0.9736
vn -0.0000 -0.1271 0.9919
vn 0.0588 -0.0781 0.9952
vn -0.0000 -0.7786 0.6276
vn -0.0000 -0.9478 0.3190
vn 0.3748 0.8426 0.3867
vn -0.0000 0.9842 0.1773
vn -0.0000 0.8813 0.4726
vn 0.2992 0.5319 -0.7922
vn 0.0077 0.5360 -0.8442
vn 0.0044 0.8080 -0.5892
vn -0.8450 -0.3424 -0.4109
vn -0.5457 -0.7466 -0.3805
vn -0.2813 0.0022 0.9596
vn 0.2535 0.3866 0.8867
vn -0.8225 -0.4975 -0.2757
vn -0.2770 -0.7112 -0.6461
vn -0.5522 -0.6262 -0.5504
vn -0.9161 0.1720 0.3621
vn -0.9755 -0.0960 0.1978
vn -0.9755 -0.0516 0.2138
vn -0.6949 0.1910 0.6932
vn 0.1292 -0.0807 0.9883
vn 0.5405 0.2374 0.8071
vn 0.9136 -0.4065 0.0069
vn -0.0394 0.8391 0.5426
vn -0.2031 0.8434 0.4975
vn -0.2380 -0.9669 -0.0915
vn 0.6052 0.0497 -0.7946
vn -0.6387 0.0328 0.7687
vn -0.0000 -0.6046 0.7965
vn -0.1988 -0.3433 0.9179
vn -0.0000 -0.9881 0.1536
vn -0.0000 -0.9782 0.2077
vn -0.7226 -0.6869 -0.0780
vn 0.9188 -0.3933 -0.0337
vn 0.5843 0.7499 -0.3102
vn 0.4221 -0.3070 0.8530
vn -0.7053 -0.6712 0.2282
vn 0.5152 0.3357 0.7886
vn -0.0000 0.5195 0.8545
vn 0.8656 -0.3917 -0.3121
vn 0.6277 -0.7533 -0.1964
vn 0.7469 -0.4255 -0.5110
vn 0.0055 0.3004 -0.9538
vn -0.0690 0.4910 -0.8684
vn 0.0526 0.4217 -0.9052
vn 0.0231 0.5256 -0.8504
vn -0.0000 0.4565 -0.8897
vn -0.0000 -0.1081 -0.9941
vn -0.0000 0.1696 -0.9855
vn -0.0000 -0.0941 -0.9956
vn -0.0000 -0.0293 -0.9996
vn -0.0000 0.1416 -0.9899
vn -0.0000 0.9211 -0.3894
vn -0.0588 -0.0781 0.9952
vn -0.0000 -0.1421 0.9899
vn -0.0000 -0.0828 0.9966
vn -0.0278 -0.9756 0.2178
vn -0.0060 -0.9990 0.0452
vn -0.0000 -0.9851 0.1717
vn -0.0000 -0.2131 -0.9770
vn -0.0000 -0.4210 -0.9070
vn -0.0000 -0.1694 0.9855
vn -0.0000 -0.2726 -0.9621
vn 0.0029 0.1986 -0.9801
vn -0.0000 -0.8942 0.4477
vn -0.0000 -0.7210 0.6929
vn -0.0000 0.0881 0.9961
vn -0.0000 0.3919 0.9200
vn -0.0000 -0.1657 0.9862
vn -0.6341 -0.7480 -0.1958
vn -0.9666 0.2055 -0.1529
vn -0.8565 0.2786 0.4346
vn -0.9421 0.3352 -0.0027
vn -0.9817 0.1551 -0.1105
vn -0.7986 0.4390 0.4117
vn -0.9161 0.2450 0.3174
vn 0.3741 -0.4187 -0.8275
vn 0.4347 -0.4243 -0.7943
vn 0.4726 -0.4026 -0.7839
vn -0.9242 0.2466 -0.2916
vn -0.8551 0.4119 -0.3149
vn -0.8329 -0.3219 -0.4502
vn 0.8117 -0.5190 -0.2680
vn 0.8031 -0.5456 -0.2394
vn 0.8721 -0.4106 -0.2663
vn -0.8053 0.3252 0.4958
vn -0.6792 0.3608 0.6391
vn -0.8564 0.2649 0.4432
vn -0.5687 0.5360 0.6239
vn -0.5376 0.5370 0.6501
vn -0.5689 0.5716 0.5914
vn 0.4666 -0.7418 -0.4817
vn 0.7633 -0.5771 -0.2905
vn 0.6569 -0.7509 -0.0678
vn 0.6708 -0.7375 -0.0787
vn 0.6866 -0.7245 -0.0603
vn -0.7519 0.5741 0.3241
vn -0.8354 0.5462 0.0616
vn 0.2851 -0.3035 -0.9092
vn -0.4922 0.6074 0.6235
vn 0.5658 -0.7619 -0.3153
vn -0.7634 0.4041 -0.5040
vn 0.8076 -0.5142 0.2887
vn -0.4669 0.0335 -0.8837
vn 0.3307 -0.5351 -0.7774
vn 0.2237 -0.3786 -0.8981
vn -0.1504 0.1805 0.9720
vn -0.2997 0.2821 0.9114
vn -0.7221 0.5247 0.4507
vn 0.3971 -0.1483 0.9057
vn 0.7587 -0.6491 0.0551
vn -0.0288 -0.0979 -0.9948
vn 0.5257 -0.5208 -0.6726
vn -0.7320 0.4861 -0.4774
vn -0.7016 0.4738 -0.5322
vn 0.5111 -0.3620 0.7796
vn -0.8036 0.5782 -0.1409
vn -0.7106 0.5863 0.3890
vn 0.5109 -0.6403 0.5735
vn 0.7507 -0.6606 0.0075
vn -0.4943 0.3072 0.8132
vn 0.6490 -0.7133 -0.2646
vn 0.4879 -0.4403 -0.7537
vn -0.1816 -0.3835 0.9055
vn 0.5148 -0.7290 0.4511
vn -0.0349 -0.9748 0.2204
vn 0.0415 -0.9989 -0.0203
vn 0.1185 -0.9929 -0.0103
vn 0.1777 -0.9841 0.0006
vn -0.5140 -0.8578 -0.0037
vn -0.9914 -0.0873 -0.0975
vn -0.9128 0.3100 0.2659
vn -0.9997 0.0204 0.0117
vn -0.8234 -0.3889 -0.4132
vn -0.0004 -1.0000 -0.0005
vn 0.0157 -0.9998 0.0095
vn -0.4227 0.7915 0.4414
vn -0.2439 0.8332 0.4962
vn -0.8918 0.3584 0.2762
vn -0.9333 0.1213 -0.3379
vn -0.5095 0.4875 0.7090
vn -0.0381 0.8754 0.4819
vn 0.0219 -0.9998 -0.0038
vn 0.0861 -0.9963 -0.0079
vn 0.1034 -0.8081 -0.5799
vn -0.6318 -0.0002 -0.7751
vn 0.3207 0.8352 0.4468
vn 0.9694 0.0208 0.2448
vn 0.9863 0.1650 0.0066
vn 0.9849 0.0822 0.1525
vn 0.9275 -0.2186 -0.3031
vn 0.9267 0.0011 0.3757
vn 0.9263 -0.0297 -0.3756
vn 0.6840 -0.1230 -0.7190
vn -0.9964 -0.0473 0.0703
vn -0.7287 -0.0129 0.6847
vn -0.8513 -0.2096 -0.4810
vn -0.6686 -0.2077 -0.7140
vn -0.3166 -0.1882 -0.9297
vn -0.1361 0.0454 0.9896
vn -0.4306 0.0130 0.9025
vn 0.3940 -0.1677 -0.9037
vn 0.2938 -0.1944 -0.9359
vn 0.5922 0.0738 -0.8024
vn 0.9861 -0.0590 0.1556
vn 0.9741 -0.0428 -0.2221
vn 0.7599 -0.0033 -0.6500
vn -0.9882 -0.0053 -0.1531
vn -0.9180 -0.0831 0.3878
vn -0.5893 -0.0474 0.8066
vn -0.8312 -0.1678 0.5300
vn -0.6978 0.2149 -0.6833
vn -0.9941 -0.1023 0.0369
vn -0.5871 0.1183 -0.8008
vn -0.1486 -0.3550 0.9230
vn -0.2251 0.1486 -0.9629
vn 0.0499 -0.0539 0.9973
vn 0.7970 -0.0132 0.6038
vn 0.6864 -0.1284 0.7158
vn 0.9953 0.0187 0.0951
vn 0.9660 -0.0005 0.2584
vn 0.8609 -0.0003 -0.5088
vn -0.8900 -0.1139 -0.4414
vn -0.9870 -0.1541 -0.0455
vn -0.8766 -0.1745 0.4485
vn -0.8897 -0.2092 0.4058
vn -0.4404 -0.2988 0.8466
vn -0.4346 -0.0977 0.8953
vn 0.0060 -0.2090 0.9779
vn -0.5355 -0.2216 0.8149
vn 0.3402 -0.1961 0.9197
vn 0.4304 0.1341 -0.8926
vn 0.0530 -0.0115 -0.9985
vn 0.4124 -0.1272 0.9021
vn 0.8986 -0.0873 0.4300
vn 0.9598 -0.1023 0.2613
vn 0.6911 -0.0923 0.7169
vn 0.9920 -0.0651 -0.1078
vn -0.9251 -0.0572 -0.3754
vn -0.9946 -0.0788 0.0678
vn -0.9269 -0.0372 0.3734
vn -0.6479 -0.1656 0.7435
vn -0.1688 -0.1920 0.9668
vn 0.2485 -0.1778 0.9522
vn 0.6120 -0.0797 -0.7869
vn 0.9498 -0.0835 -0.3015
vn -0.9810 0.1879 0.0481
vn -0.9439 0.1384 -0.3000
vn -0.8771 0.1722 0.4484
vn -0.4857 0.0161 0.8740
vn -0.6210 -0.0316 0.7832
vn -0.1468 -0.0101 0.9891
vn -0.9432 0.2854 -0.1699
vn -0.7742 0.3063 -0.5539
vn -0.9829 0.1248 0.1357
vn -0.6747 -0.0044 0.7381
vn -0.8907 0.1820 -0.4166
vn -0.9920 -0.0928 -0.0858
vn -0.9224 -0.1475 0.3569
vn -0.5884 -0.1947 0.7848
vn -0.1653 -0.1466 0.9753
vn -0.2451 -0.0810 0.9661
vn -0.1234 -0.1870 0.9746
vn -0.3497 -0.0907 0.9325
vn -0.9599 -0.2719 -0.0685
vn -0.9337 -0.2393 0.2664
vn -0.9720 -0.2255 0.0665
vn -0.7160 -0.6251 -0.3109
vn -0.9153 -0.0998 0.3902
vn -0.3677 -0.3609 0.8571
vn -0.4607 0.3460 0.8173
vn -0.7324 -0.6743 0.0945
vn -0.2304 -0.8813 0.4127
vn -0.7975 -0.0926 -0.5962
vn -0.7629 -0.5455 0.3471
vn 0.2318 -0.9399 0.2508
vn 0.4251 -0.2442 0.8716
vn 0.0666 0.2334 0.9701
vn 0.4038 -0.1331 0.9051
vn 0.4008 -0.7276 0.5568
vn 0.3291 0.2539 0.9095
vn -0.1543 -0.1881 0.9699
vn -0.7212 0.6694 -0.1782
vn -0.7402 0.5320 0.4111
vn -0.5688 0.5071 0.6475
vn -0.5230 0.8394 0.1478
vn -0.1094 -0.9673 0.2287
vn -0.2612 -0.9360 0.2361
vn 0.1763 -0.9634 -0.2022
vn -0.6725 -0.0241 0.7397
vn -0.9572 -0.2158 0.1929
vn -0.7067 0.3091 0.6364
vn -0.2963 0.6311 0.7169
vn -0.1356 0.6019 0.7870
vn -0.1890 0.9114 0.3656
vn -0.2314 0.7685 0.5966
vn -0.2921 0.9486 -0.1216
vn 0.0962 0.5542 0.8268
vn 0.0438 0.5305 0.8465
vn -0.9992 0.0345 -0.0220
vn -0.8905 -0.4292 0.1511
vn -0.9305 0.0107 0.3660
vn -0.6915 0.7048 -0.1588
vn -0.7592 -0.1177 0.6401
vn -0.6733 0.0450 0.7380
vn -0.4801 -0.1063 0.8708
vn -0.7956 -0.4753 0.3758
vn -0.8376 -0.2485 -0.4865
vn -0.9348 0.1925 -0.2984
vn -0.9126 -0.3698 0.1742
vn -0.8089 0.3048 0.5029
vn -0.4246 -0.4097 0.8074
vn -0.3173 -0.2375 0.9181
vn -0.5315 -0.1580 0.8322
vn -0.5227 -0.5629 0.6402
vn -0.3560 -0.0874 0.9304
vn -0.5810 -0.0245 0.8135
vn -0.8081 0.4389 0.3929
vn -0.8224 0.5657 -0.0599
vn -0.5513 0.3830 0.7412
vn -0.2443 0.9682 -0.0536
vn -0.0519 -0.0254 -0.9983
vn -0.4858 0.3944 -0.7800
vn 0.0952 -0.0977 -0.9907
vn -0.4480 0.4265 -0.7858
vn 0.1628 -0.6941 -0.7013
vn 0.1877 0.1107 -0.9760
vn 0.1229 -0.0701 -0.9899
vn -0.4031 -0.0606 -0.9131
vn -0.7169 -0.0639 -0.6943
vn -0.4231 -0.1489 -0.8937
vn -0.8086 0.1115 -0.5778
vn 0.2447 -0.3362 -0.9094
vn -0.6902 0.3492 -0.6338
vn -0.5907 0.2522 -0.7665
vn -0.5315 -0.1422 -0.8350
vn -0.0884 -0.3663 -0.9263
vn -0.0800 0.0166 -0.9967
vn 0.3802 -0.3015 -0.8744
vn 0.4930 0.0279 -0.8696
vn 0.0334 0.3575 -0.9333
vn 0.7552 -0.3827 -0.5322
vn 0.4023 0.3705 -0.8372
vn 0.1741 0.3721 -0.9117
vn -0.3658 0.2318 -0.9014
vn -0.2800 0.3920 -0.8763
vn -0.2736 0.4655 -0.8417
vn 0.0069 0.0778 -0.9969
vn -0.2158 -0.0370 -0.9757
vn -0.5967 -0.3052 -0.7421
vn -0.0762 -0.2047 -0.9759
vn 0.1378 -0.2455 -0.9596
vn -0.2100 -0.2653 -0.9410
vn 0.0705 -0.0502 -0.9963
vn -0.3185 -0.4800 -0.8174
vn -0.2833 -0.1699 -0.9439
vn -0.3762 0.3914 -0.8398
vn -0.2949 0.6802 -0.6711
vn -0.2098 0.1924 -0.9586
vn -0.2409 0.8155 -0.5263
vn -0.1310 0.1381 -0.9817
vn 0.1389 -0.2129 -0.9672
vn 0.0447 0.1861 -0.9815
vn -0.9278 -0.1359 -0.3474
vn -0.8216 0.0804 -0.5643
vn -0.9357 -0.3522 -0.0205
vn -0.2540 0.5566 -0.7910
vn -0.3591 0.0602 -0.9314
vn -0.3163 -0.3218 -0.8924
vn -0.4216 -0.2164 -0.8806
vn -0.4123 0.1397 -0.9003
vn -0.6845 0.5610 -0.4655
vn -0.0000 0.0346 0.9994
vn -0.0000 0.1361 0.9907
vn -0.3748 0.8426 0.3867
vn -0.3144 0.5295 -0.7879
vn 0.8450 -0.3424 -0.4109
vn 0.5457 -0.7466 -0.3805
vn 0.2813 0.0022 0.9596
vn -0.2535 0.3866 0.8867
vn 0.8225 -0.4975 -0.2757
vn 0.2770 -0.7112 -0.6461
vn 0.5522 -0.6262 -0.5504
vn 0.9161 0.1720 0.3621
vn 0.9755 -0.0516 0.2138
vn 0.9755 -0.0960 0.1978
vn 0.6949 0.1910 0.6932
vn -0.1292 -0.0807 0.9883
vn -0.5405 0.2374 0.8071
vn -0.9136 -0.4065 0.0069
vn 0.0394 0.8391 0.5426
vn 0.2031 0.8434 0.4975
vn 0.2380 -0.9669 -0.0915
vn -0.6052 0.0497 -0.7946
vn 0.6387 0.0328 0.7687
vn 0.7200 -0.6897 -0.0768
vn -0.9188 -0.3933 -0.0337
vn -0.5843 0.7499 -0.3102
vn -0.4221 -0.3070 0.8530
vn 0.7053 -0.6712 0.2282
vn -0.5152 0.3357 0.7886
vn -0.0055 0.3004 -0.9538
vn 0.0690 0.4910 -0.8684
vn -0.0526 0.4217 -0.9052
vn -0.0231 0.5256 -0.8504
vn 0.0278 -0.9756 0.2178
vn 0.0060 -0.9990 0.0452
vn -0.0000 -0.9392 0.3434
vt 0.095278 0.544580
vt 0.101758 0.555419
vt 0.100404 0.508316
vt 0.118776 0.505193
vt 0.108665 0.537902
vt 0.117505 0.557018
vt 0.066993 0.552657
vt 0.068807 0.507681
vt 0.060181 0.543408
vt 0.087534 0.518723
vt 0.091227 0.561658
vt 0.123391 0.539494
vt 0.141798 0.521468
vt 0.043969 0.533666
vt 0.027277 0.505193
vt 0.033429 0.537915
vt 0.156833 0.566404
vt 0.161476 0.548068
vt 0.143864 0.560645
vt 0.138776 0.540107
vt 0.127325 0.577514
vt 0.021186 0.556809
vt 0.044395 0.560312
vt 0.021600 0.537317
vt 0.053702 0.575020
vt 0.114526 0.624570
vt 0.116278 0.576396
vt 0.134801 0.596477
vt 0.022486 0.574675
vt 0.100551 0.605983
vt 0.040424 0.606367
vt 0.100667 0.649828
vt 0.086600 0.649613
vt 0.149506 0.712805
vt 0.135931 0.626520
vt 0.142167 0.724786
vt 0.033682 0.684993
vt 0.051741 0.679833
vt 0.098731 0.720347
vt 0.083008 0.719652
vt 0.115850 0.703529
vt 0.117728 0.723774
vt 0.017693 0.705669
vt 0.039262 0.705210
vt 0.130711 0.746204
vt 0.150713 0.774158
vt 0.041359 0.749245
vt 0.055092 0.704695
vt 0.163690 0.773241
vt 0.056394 0.762232
vt 0.073477 0.744984
vt 0.068849 0.703705
vt 0.014285 0.814509
vt 0.033056 0.811529
vt 0.015203 0.830320
vt 0.725922 0.813814
vt 0.715550 0.822492
vt 0.726334 0.838486
vt 0.309315 0.902711
vt 0.329968 0.844328
vt 0.317894 0.862953
vt 0.326177 0.899801
vt 0.312262 0.930564
vt 0.755107 0.823244
vt 0.743641 0.815034
vt 0.325841 0.828571
vt 0.333497 0.818704
vt 0.349321 0.907915
vt 0.353593 0.930564
vt 0.363868 0.894980
vt 0.356561 0.836098
vt 0.758336 0.866003
vt 0.727555 0.877827
vt 0.754114 0.912192
vt 0.741323 0.939644
vt 0.758586 0.940730
vt 0.740344 0.949577
vt 0.753019 0.978392
vt 0.373284 0.888645
vt 0.414105 0.880955
vt 0.359261 0.814510
vt 0.367914 0.903023
vt 0.416683 0.901986
vt 0.382849 0.929986
vt 0.715550 0.983943
vt 0.718194 0.940155
vt 0.225255 0.036134
vt 0.256856 0.008047
vt 0.242395 0.000000
vt 0.245198 0.061037
vt 0.187858 0.108418
vt 0.206320 0.040126
vt 0.176376 0.105409
vt 0.259523 0.077614
vt 0.266896 0.004086
vt 0.163007 0.098251
vt 0.190370 0.030923
vt 0.205517 0.007708
vt 0.187571 0.006255
vt 0.284018 0.083148
vt 0.300118 0.026000
vt 0.272493 0.017667
vt 0.129511 0.102187
vt 0.141853 0.110926
vt 0.188501 0.150113
vt 0.207592 0.152004
vt 0.237201 0.125168
vt 0.214640 0.196606
vt 0.165254 0.190429
vt 0.181790 0.213356
vt 0.174488 0.147690
vt 0.240300 0.194864
vt 0.153845 0.188488
vt 0.252993 0.140411
vt 0.268378 0.098910
vt 0.260134 0.187569
vt 0.289602 0.180426
vt 0.282494 0.144730
vt 0.304591 0.135259
vt 0.114330 0.170779
vt 0.165751 0.218248
vt 0.162980 0.317106
vt 0.183743 0.311459
vt 0.199009 0.241980
vt 0.223820 0.255028
vt 0.230668 0.215765
vt 0.227531 0.315000
vt 0.205262 0.312752
vt 0.244249 0.221688
vt 0.131578 0.170775
vt 0.120470 0.256052
vt 0.242938 0.298235
vt 0.269673 0.237989
vt 0.278526 0.339454
vt 0.259762 0.302849
vt 0.305823 0.207604
vt 0.294023 0.236543
vt 0.133963 0.374666
vt 0.152318 0.396791
vt 0.159240 0.418624
vt 0.189844 0.392237
vt 0.209432 0.392710
vt 0.229068 0.427150
vt 0.259895 0.390370
vt 0.069359 0.304959
vt 0.044300 0.305138
vt 0.313816 0.414995
vt 0.350500 0.431286
vt 0.351752 0.390365
vt 0.135672 0.465607
vt 0.123397 0.447562
vt 0.154072 0.497778
vt 0.173867 0.487252
vt 0.202946 0.449887
vt 0.180807 0.444474
vt 0.261147 0.431291
vt 0.297831 0.415000
vt 0.090376 0.489698
vt 0.112836 0.494099
vt 0.439792 0.503996
vt 0.404241 0.505032
vt 0.423693 0.559293
vt 0.673497 0.103308
vt 0.697751 0.158328
vt 0.690109 0.089505
vt 0.384529 0.562207
vt 0.417076 0.580138
vt 0.672843 0.164996
vt 0.682862 0.200601
vt 0.702399 0.206272
vt 0.730304 0.207348
vt 0.738993 0.132498
vt 0.738923 0.055219
vt 0.717366 0.116419
vt 0.760813 0.053083
vt 0.767201 0.204994
vt 0.767190 0.186767
vt 0.761114 0.149831
vt 0.773218 0.149822
vt 0.767154 0.132780
vt 0.646251 0.220273
vt 0.633814 0.281210
vt 0.664519 0.238216
vt 0.409328 0.669261
vt 0.433668 0.671203
vt 0.415684 0.614826
vt 0.695989 0.275034
vt 0.709184 0.280417
vt 0.711489 0.269610
vt 0.710287 0.255169
vt 0.697761 0.257151
vt 0.377520 0.581601
vt 0.693859 0.244424
vt 0.723779 0.243337
vt 0.720979 0.279089
vt 0.728548 0.270263
vt 0.753492 0.268681
vt 0.726743 0.257565
vt 0.757795 0.299554
vt 0.767234 0.263399
vt 0.767224 0.244499
vt 0.147536 0.833735
vt 0.171197 0.838801
vt 0.173540 0.881609
vt 0.195214 0.867143
vt 0.005129 0.846841
vt 0.022935 0.841989
vt 0.051806 0.833273
vt 0.046363 0.847316
vt 0.652205 0.321828
vt 0.684776 0.300223
vt 0.668784 0.282261
vt 0.639768 0.390460
vt 0.679787 0.360999
vt 0.647442 0.361344
vt 0.716532 0.336306
vt 0.691844 0.392815
vt 0.722683 0.392800
vt 0.696492 0.423700
vt 0.752962 0.335492
vt 0.753830 0.388393
vt 0.767278 0.397928
vt 0.767264 0.340072
vt 0.687151 0.599821
vt 0.722222 0.595877
vt 0.703672 0.553887
vt 0.707673 0.435375
vt 0.712362 0.457482
vt 0.739426 0.438812
vt 0.741723 0.565682
vt 0.736799 0.581562
vt 0.752551 0.594289
vt 0.741568 0.531802
vt 0.696907 0.484223
vt 0.728340 0.492383
vt 0.708960 0.468835
vt 0.736530 0.465275
vt 0.759868 0.450198
vt 0.720411 0.505549
vt 0.758226 0.501976
vt 0.765458 0.549587
vt 0.764943 0.536102
vt 0.768340 0.584745
vt 0.758251 0.583093
vt 0.751099 0.489264
vt 0.768664 0.481634
vt 0.751424 0.469634
vt 0.765309 0.566719
vt 0.768360 0.619052
vt 0.768333 0.597980
vt 0.703584 0.646394
vt 0.735463 0.625829
vt 0.750790 0.615418
vt 0.768323 0.714747
vt 0.764991 0.702996
vt 0.726999 0.706834
vt 0.102854 0.739292
vt 0.090375 0.760943
vt 0.116649 0.749841
vt 0.108023 0.796675
vt 0.123643 0.798482
vt 0.089393 0.844970
vt 0.071750 0.831709
vt 0.155563 0.132193
vt 0.094022 0.315711
vt 0.119520 0.300212
vt 0.123464 0.327506
vt 0.093706 0.381315
vt 0.090490 0.427358
vt 0.058340 0.367801
vt 0.079264 0.462242
vt 0.071978 0.434764
vt 0.077478 0.402093
vt 0.065841 0.390759
vt 0.053435 0.416569
vt 0.040031 0.390679
vt 0.030744 0.414839
vt 0.043757 0.437170
vt 0.028813 0.383268
vt 0.002356 0.344479
vt 0.035300 0.363654
vt 0.012067 0.419682
vt 0.027295 0.437711
vt 0.008177 0.449844
vt 0.017133 0.378076
vt 0.363402 0.552646
vt 0.383827 0.504387
vt 0.054304 0.498992
vt 0.052285 0.445784
vt 0.310955 0.573113
vt 0.357762 0.579936
vt 0.381101 0.669775
vt 0.349015 0.690491
vt 0.359775 0.655536
vt 0.325126 0.647459
vt 0.307636 0.619882
vt 0.114378 0.834228
vt 0.083008 0.867610
vt 0.094145 0.882945
vt 0.128835 0.844288
vt 0.137102 0.899607
vt 0.117404 0.887444
vt 0.391665 0.691741
vt 0.384157 0.707295
vt 0.391776 0.749947
vt 0.352424 0.769483
vt 0.362813 0.779550
vt 0.352270 0.719724
vt 0.391746 0.728252
vt 0.309114 0.662594
vt 0.309848 0.732504
vt 0.687074 0.740067
vt 0.712812 0.741400
vt 0.689079 0.727923
vt 0.687302 0.518887
vt 0.704820 0.509132
vt 0.636491 0.789183
vt 0.631420 0.814499
vt 0.650749 0.788731
vt 0.671232 0.778628
vt 0.664601 0.804924
vt 0.691940 0.783711
vt 0.715634 0.771077
vt 0.732919 0.760231
vt 0.734291 0.724710
vt 0.767147 0.122798
vt 0.767145 0.120171
vt 0.757279 0.120929
vt 0.768664 0.488361
vt 0.768664 0.495207
vt 0.754805 0.673433
vt 0.768345 0.687401
vt 0.768357 0.671800
vt 0.750584 0.747037
vt 0.756645 0.750744
vt 0.764348 0.734350
vt 0.033387 0.508487
vt 0.056653 0.531702
vt 0.017072 0.519756
vt 0.066520 0.594712
vt 0.005129 0.545960
vt 0.052024 0.601927
vt 0.006088 0.562715
vt 0.022919 0.595171
vt 0.066088 0.638125
vt 0.027265 0.625019
vt 0.167034 0.743562
vt 0.021485 0.739131
vt 0.203019 0.809084
vt 0.184084 0.821602
vt 0.347562 0.811016
vt 0.722212 0.917488
vt 0.733836 0.978729
vt 0.223482 0.006212
vt 0.305823 0.357726
vt 0.230522 0.462419
vt 0.767087 0.044408
vt 0.773377 0.053072
vt 0.275534 0.430209
vt 0.288541 0.423739
vt 0.300630 0.419132
vt 0.651402 0.291814
vt 0.663220 0.186420
vt 0.217584 0.838287
vt 0.160981 0.875151
vt 0.233645 0.825071
vt 0.652030 0.297617
vt 0.689942 0.529212
vt 0.720762 0.507800
vt 0.767668 0.570735
vt 0.768664 0.457413
vt 0.753070 0.647239
vt 0.594532 0.378092
vt 0.599222 0.362813
vt 0.576372 0.363648
vt 0.357558 0.523140
vt 0.310721 0.544120
vt 0.331883 0.507339
vt 0.028342 0.477319
vt 0.308829 0.485663
vt 0.078140 0.855400
vt 0.417760 0.777639
vt 0.337130 0.736808
vt 0.333420 0.763895
vt 0.309295 0.752117
vt 0.307628 0.758865
vt 0.307629 0.712418
vt 0.646946 0.836538
vt 0.657232 0.826892
vt 0.616977 0.799599
vt 0.612095 0.785252
vt 0.683873 0.806132
vt 0.734203 0.776448
vt 0.668299 0.817603
vt 0.767189 0.723883
vt 0.777013 0.120915
vt 0.767124 0.091874
vt 0.767138 0.109665
vt 0.766493 0.515694
vt 0.768664 0.501216
vt 0.726578 0.781809
vt 0.706995 0.792432
vt 0.768664 0.472402
vt 0.697036 0.797891
vt 0.744990 0.766595
vt 0.767068 0.023309
vt 0.761351 0.020359
vt 0.767078 0.034576
vt 0.767248 0.294989
vt 0.767253 0.308749
vt 0.767098 0.057144
vt 0.767047 0.006152
vt 0.768412 0.647027
vt 0.000000 0.348789
vt 0.012596 0.362745
vt 0.523864 0.545338
vt 0.518292 0.508990
vt 0.517490 0.556379
vt 0.500162 0.505909
vt 0.501498 0.558073
vt 0.510356 0.538740
vt 0.546055 0.552855
vt 0.553928 0.544352
vt 0.544756 0.509228
vt 0.531282 0.519230
vt 0.527819 0.561912
vt 0.495563 0.540396
vt 0.477119 0.522285
vt 0.569945 0.534517
vt 0.580523 0.538709
vt 0.586488 0.505909
vt 0.461922 0.567378
vt 0.474937 0.561618
vt 0.457288 0.548981
vt 0.480125 0.540985
vt 0.491459 0.578557
vt 0.592870 0.557573
vt 0.592361 0.538050
vt 0.569681 0.561157
vt 0.560406 0.575888
vt 0.503373 0.576720
vt 0.504458 0.625622
vt 0.484031 0.597540
vt 0.591605 0.575460
vt 0.518463 0.607093
vt 0.573683 0.607175
vt 0.518287 0.650916
vt 0.532346 0.650716
vt 0.483018 0.627620
vt 0.469441 0.713867
vt 0.476766 0.725837
vt 0.580409 0.685830
vt 0.562343 0.680663
vt 0.520167 0.721417
vt 0.535882 0.720734
vt 0.503071 0.704598
vt 0.501191 0.724825
vt 0.596401 0.706521
vt 0.574821 0.706056
vt 0.488212 0.747244
vt 0.468223 0.775174
vt 0.572711 0.750114
vt 0.558983 0.705537
vt 0.455255 0.774256
vt 0.557664 0.763103
vt 0.545219 0.704542
vt 0.540577 0.745841
vt 0.599782 0.815420
vt 0.581001 0.812432
vt 0.598859 0.831239
vt 0.787148 0.983943
vt 0.787561 0.959271
vt 0.776776 0.975265
vt 0.300736 0.862953
vt 0.288662 0.844328
vt 0.292453 0.899800
vt 0.306368 0.930564
vt 0.804867 0.982723
vt 0.816333 0.974513
vt 0.292789 0.828571
vt 0.285133 0.818704
vt 0.269309 0.907915
vt 0.265037 0.930564
vt 0.254762 0.894980
vt 0.262069 0.836098
vt 0.819562 0.931754
vt 0.815340 0.885565
vt 0.788781 0.919930
vt 0.802549 0.858113
vt 0.819812 0.857027
vt 0.801570 0.848180
vt 0.814245 0.819365
vt 0.245346 0.888644
vt 0.259369 0.814509
vt 0.204525 0.880955
vt 0.201947 0.901986
vt 0.250716 0.903023
vt 0.235781 0.929986
vt 0.776776 0.813814
vt 0.779421 0.857602
vt 0.386389 0.036132
vt 0.369249 0.000000
vt 0.354788 0.008047
vt 0.366446 0.061035
vt 0.423785 0.108414
vt 0.405323 0.040125
vt 0.435267 0.105406
vt 0.344748 0.004087
vt 0.352122 0.077612
vt 0.448636 0.098247
vt 0.421272 0.030921
vt 0.406125 0.007708
vt 0.424071 0.006254
vt 0.327628 0.083145
vt 0.339152 0.017667
vt 0.311527 0.026000
vt 0.482130 0.102183
vt 0.469789 0.110922
vt 0.423143 0.150108
vt 0.404052 0.151999
vt 0.374444 0.125165
vt 0.397006 0.196601
vt 0.446391 0.190423
vt 0.429855 0.213349
vt 0.437155 0.147685
vt 0.371346 0.194859
vt 0.457799 0.188481
vt 0.358652 0.140407
vt 0.343267 0.098907
vt 0.351512 0.187564
vt 0.322044 0.180422
vt 0.329152 0.144727
vt 0.307055 0.135255
vt 0.497312 0.170773
vt 0.445895 0.218241
vt 0.448667 0.317100
vt 0.412637 0.241974
vt 0.427903 0.311453
vt 0.380978 0.215760
vt 0.387826 0.255022
vt 0.384116 0.314994
vt 0.406384 0.312747
vt 0.367397 0.221683
vt 0.480064 0.170769
vt 0.491176 0.256043
vt 0.368709 0.298230
vt 0.341974 0.237983
vt 0.333120 0.339449
vt 0.351885 0.302844
vt 0.305823 0.207599
vt 0.317623 0.236538
vt 0.477686 0.374661
vt 0.459329 0.396786
vt 0.452407 0.418619
vt 0.421803 0.392232
vt 0.402215 0.392705
vt 0.382579 0.427145
vt 0.542287 0.304946
vt 0.567341 0.305120
vt 0.475975 0.465603
vt 0.488251 0.447559
vt 0.457574 0.497773
vt 0.437780 0.487247
vt 0.430840 0.444469
vt 0.408701 0.449882
vt 0.498809 0.494095
vt 0.521268 0.489695
vt 0.175476 0.503947
vt 0.191570 0.559263
vt 0.211037 0.504990
vt 0.860778 0.103173
vt 0.844144 0.089391
vt 0.836598 0.158235
vt 0.230743 0.562185
vt 0.198186 0.580114
vt 0.861521 0.164870
vt 0.851546 0.200498
vt 0.832012 0.206194
vt 0.804105 0.207305
vt 0.795317 0.132459
vt 0.795273 0.055174
vt 0.816922 0.116348
vt 0.888193 0.220131
vt 0.869941 0.238101
vt 0.900706 0.281076
vt 0.205928 0.669250
vt 0.199576 0.614809
vt 0.181586 0.671191
vt 0.838502 0.274965
vt 0.822992 0.269556
vt 0.825308 0.280363
vt 0.836710 0.257079
vt 0.824179 0.255110
vt 0.237750 0.581584
vt 0.840598 0.244345
vt 0.810671 0.243291
vt 0.805930 0.270226
vt 0.813509 0.279047
vt 0.780981 0.268668
vt 0.807722 0.257524
vt 0.776705 0.299546
vt 0.471395 0.834714
vt 0.447748 0.839775
vt 0.423746 0.868099
vt 0.445407 0.882556
vt 0.608933 0.847771
vt 0.591119 0.842911
vt 0.562236 0.834182
vt 0.567677 0.848235
vt 0.882345 0.321741
vt 0.865724 0.282168
vt 0.849742 0.300154
vt 0.894840 0.390399
vt 0.887140 0.361273
vt 0.854779 0.360951
vt 0.818003 0.336274
vt 0.842738 0.392791
vt 0.811882 0.392791
vt 0.838105 0.423700
vt 0.781564 0.335483
vt 0.780723 0.388393
vt 0.849314 0.599643
vt 0.832818 0.553946
vt 0.814345 0.595773
vt 0.829654 0.435375
vt 0.797901 0.438812
vt 0.824965 0.457482
vt 0.794824 0.565695
vt 0.799763 0.581511
vt 0.784074 0.594236
vt 0.795142 0.531802
vt 0.840420 0.484223
vt 0.828367 0.468835
vt 0.808987 0.492383
vt 0.777459 0.450198
vt 0.800797 0.465275
vt 0.779101 0.501976
vt 0.816916 0.505549
vt 0.771774 0.535935
vt 0.771353 0.549668
vt 0.778331 0.583036
vt 0.786228 0.489264
vt 0.785903 0.469634
vt 0.770985 0.566761
vt 0.801236 0.625705
vt 0.833101 0.646102
vt 0.785899 0.615359
vt 0.809661 0.706900
vt 0.771674 0.703002
vt 0.515203 0.739318
vt 0.528489 0.761988
vt 0.502265 0.750886
vt 0.510872 0.797689
vt 0.495272 0.799492
vt 0.529497 0.845934
vt 0.542281 0.832612
vt 0.456080 0.132189
vt 0.517626 0.315700
vt 0.492128 0.300202
vt 0.488184 0.327497
vt 0.517944 0.381309
vt 0.521160 0.427357
vt 0.553320 0.367793
vt 0.532382 0.462242
vt 0.539670 0.434765
vt 0.534174 0.402092
vt 0.545814 0.390757
vt 0.558217 0.416573
vt 0.571629 0.390684
vt 0.580908 0.414848
vt 0.567891 0.437176
vt 0.582851 0.383276
vt 0.609300 0.344427
vt 0.599583 0.419697
vt 0.584352 0.437719
vt 0.603466 0.449856
vt 0.251876 0.552625
vt 0.231458 0.504349
vt 0.557336 0.498992
vt 0.559361 0.445788
vt 0.304324 0.573115
vt 0.257510 0.579923
vt 0.234158 0.669767
vt 0.266245 0.690487
vt 0.290141 0.647457
vt 0.255488 0.655529
vt 0.504528 0.835205
vt 0.535882 0.868559
vt 0.524754 0.883887
vt 0.490082 0.845258
vt 0.481824 0.900543
vt 0.501510 0.888385
vt 0.223591 0.691734
vt 0.231098 0.707289
vt 0.223476 0.749943
vt 0.252439 0.779550
vt 0.262830 0.769483
vt 0.262987 0.719721
vt 0.223508 0.728248
vt 0.306151 0.662594
vt 0.305409 0.732504
vt 0.849594 0.740102
vt 0.847577 0.727961
vt 0.823851 0.741461
vt 0.848945 0.518911
vt 0.832437 0.508403
vt 0.900288 0.789142
vt 0.886022 0.788716
vt 0.905406 0.814460
vt 0.865512 0.778645
vt 0.872193 0.804941
vt 0.844802 0.783766
vt 0.821069 0.771162
vt 0.803742 0.760309
vt 0.802362 0.724775
vt 0.769435 0.723875
vt 0.767142 0.115692
vt 0.767144 0.118506
vt 0.781907 0.673454
vt 0.787236 0.746430
vt 0.772244 0.734340
vt 0.779924 0.750851
vt 0.580223 0.509171
vt 0.557218 0.532710
vt 0.596805 0.520447
vt 0.547594 0.595504
vt 0.608933 0.546681
vt 0.562081 0.602734
vt 0.608001 0.563466
vt 0.591191 0.595967
vt 0.548001 0.638927
vt 0.586844 0.625833
vt 0.451916 0.744593
vt 0.592598 0.740000
vt 0.415947 0.810074
vt 0.434871 0.822585
vt 0.271068 0.811016
vt 0.783438 0.880269
vt 0.795062 0.819028
vt 0.388161 0.006212
vt 0.305823 0.357721
vt 0.381125 0.462414
vt 0.323106 0.423734
vt 0.336113 0.430204
vt 0.311014 0.419134
vt 0.883124 0.291705
vt 0.871175 0.186287
vt 0.401389 0.839259
vt 0.457959 0.876103
vt 0.385339 0.826050
vt 0.882500 0.297518
vt 0.845486 0.529185
vt 0.768423 0.570603
vt 0.783741 0.647162
vt 0.257731 0.523113
vt 0.304556 0.544113
vt 0.283425 0.507320
vt 0.583298 0.477324
vt 0.306508 0.485660
vt 0.535882 0.856315
vt 0.197489 0.777636
vt 0.281835 0.763896
vt 0.278126 0.736807
vt 0.305959 0.752118
vt 0.879605 0.826906
vt 0.889913 0.836538
vt 0.919829 0.799527
vt 0.924688 0.785165
vt 0.852914 0.806184
vt 0.802488 0.776582
vt 0.868515 0.817633
vt 0.770834 0.515694
vt 0.810134 0.781932
vt 0.829755 0.792521
vt 0.791631 0.766743
vt 0.772780 0.020347
vt 0.611667 0.348737
vt 0.307711 0.456636
vt 0.839730 0.797963
s 1
usemtl Character1
f 10/1/1 4/2/2 9/3/3
f 5/4/4 8/5/5 6/6/6
f 9/3/3 4/2/2 8/5/5
f 11/7/7 3/8/8 12/9/9
f 3/10/10 11/11/11 10/1/1
f 7/12/12 6/6/12 1/13/12
f 8/14/13 5/15/14 7/16/15
f 8/5/5 4/2/2 6/6/6
f 15/17/16 13/18/17 14/19/18
f 1/13/19 6/6/6 2/20/20
f 6/6/6 18/21/21 2/20/20
f 14/19/18 2/20/20 18/21/21
f 14/22/22 16/23/23 2/24/24
f 19/25/25 12/9/26 16/23/23
f 4/2/2 23/26/27 572/27/28
f 11/7/7 12/9/9 19/25/29
f 20/28/30 15/17/16 18/21/21
f 21/29/31 16/23/23 14/22/22
f 17/30/32 23/26/27 4/2/2
f 22/31/33 19/25/25 21/29/31
f 24/32/34 17/30/35 26/33/36
f 23/26/27 17/30/32 24/32/34
f 23/26/27 28/34/37 27/35/38
f 30/36/39 28/34/37 23/26/27
f 31/37/40 32/38/41 22/31/33
f 34/39/42 24/32/34 26/33/36
f 33/40/43 34/39/42 26/33/36
f 23/26/27 29/41/44 30/36/39
f 37/42/45 30/36/39 29/41/44
f 28/43/37 35/44/46 31/37/40
f 38/45/47 42/46/48 30/36/39
f 40/47/49 36/48/50 35/44/46
f 30/36/39 42/46/48 41/49/51
f 43/50/52 36/48/50 40/47/49
f 43/50/52 205/51/53 33/52/43
f 44/53/54 45/54/55 40/47/49
f 44/53/54 171/55/56 45/54/55
f 47/56/57 48/57/58 60/58/59
f 51/59/60 50/60/61 53/61/62
f 52/62/63 50/60/61 51/59/60
f 56/63/64 52/62/63 51/59/60
f 60/58/59 49/64/65 57/65/66
f 49/66/67 50/60/61 57/67/68
f 52/62/63 54/68/69 50/60/61
f 52/62/63 55/69/70 54/68/69
f 63/70/71 62/71/72 50/60/61
f 53/72/73 61/73/74 51/74/60
f 58/75/75 56/76/64 51/74/60
f 59/77/76 55/78/70 56/76/64
f 61/73/74 53/72/73 60/58/59
f 59/77/76 56/76/64 58/75/75
f 63/70/71 65/79/77 62/71/72
f 61/73/74 60/58/59 48/57/58
f 65/79/78 64/80/79 48/81/80
f 65/79/78 75/82/81 67/83/82
f 66/84/83 67/83/82 75/82/81
f 66/85/83 59/77/84 67/86/82
f 68/87/85 63/88/71 54/89/69
f 68/87/85 69/90/86 63/88/71
f 72/91/87 68/87/85 71/92/88
f 73/93/89 72/91/87 71/92/88
f 63/88/71 74/94/90 65/95/91
f 69/90/86 74/94/90 63/88/71
f 211/96/92 73/93/89 76/97/93
f 70/98/94 66/99/83 76/97/93
f 77/100/95 66/101/83 75/102/81
f 93/103/96 91/104/97 66/99/83
f 91/104/97 211/96/92 76/97/93
f 78/105/98 80/106/99 68/87/85
f 79/107/100 80/106/99 83/108/101
f 69/90/86 68/87/85 80/106/99
f 78/105/98 68/87/85 72/91/87
f 81/109/102 96/110/103 78/105/98
f 82/111/104 81/109/102 78/105/98
f 79/107/100 83/108/101 84/112/105
f 85/113/106 81/109/102 82/111/104
f 79/107/100 84/112/105 86/114/107
f 74/94/90 79/107/100 86/114/107
f 88/115/108 86/114/107 87/116/109
f 92/117/110 90/118/111 87/116/109
f 90/118/111 77/100/95 88/115/108
f 93/119/96 66/101/83 77/100/95
f 92/117/110 93/119/96 90/118/111
f 91/104/97 93/103/96 107/120/112
f 97/121/113 94/122/114 96/110/103
f 96/110/103 95/123/115 98/124/116
f 98/124/116 102/125/117 100/126/118
f 85/113/106 97/121/113 81/109/102
f 116/127/119 102/125/117 99/128/120
f 84/112/105 100/126/118 101/129/121
f 89/130/122 104/131/123 85/113/106
f 84/112/105 101/129/121 87/116/109
f 103/132/124 102/125/117 116/127/119
f 105/133/125 87/116/109 101/129/121
f 109/134/126 105/133/125 106/135/127
f 107/136/112 92/117/110 110/137/128
f 109/134/126 110/137/128 105/133/125
f 113/138/129 112/139/130 94/122/114
f 111/140/131 114/141/132 95/123/115
f 113/138/129 94/122/114 97/121/113
f 95/123/115 99/128/120 102/125/117
f 114/141/132 115/142/133 99/128/120
f 115/142/133 117/143/134 116/127/119
f 118/144/135 106/135/127 103/132/124
f 117/143/134 118/144/135 103/132/124
f 108/145/136 107/120/112 120/146/137
f 425/147/138 435/148/139 424/149/140
f 112/139/130 122/150/141 111/140/131
f 113/138/129 121/151/142 112/139/130
f 111/140/131 122/150/141 123/152/143
f 125/153/144 126/154/145 124/155/146
f 130/156/147 119/157/148 118/144/135
f 122/150/141 131/158/149 132/159/150
f 123/160/143 132/161/150 134/162/151
f 122/150/141 132/159/150 123/152/143
f 123/163/143 135/164/152 125/165/144
f 133/166/153 134/162/151 132/161/150
f 133/166/153 153/167/154 134/162/151
f 134/168/151 136/169/155 135/164/152
f 136/169/155 137/170/156 135/164/152
f 135/164/152 137/170/156 139/171/157
f 135/164/152 139/171/157 140/172/158
f 127/173/159 138/174/160 140/172/158
f 140/172/158 128/175/161 127/173/159
f 139/171/157 287/176/162 288/177/163
f 141/178/164 291/179/165 293/180/166
f 154/181/167 148/182/168 150/183/169
f 145/184/170 148/185/168 154/186/167
f 149/187/171 156/188/172 155/189/173
f 155/189/173 157/190/174 151/191/175
f 231/192/176 154/186/167 153/167/154
f 133/166/153 231/192/176 153/167/154
f 152/193/177 151/191/175 157/190/174
f 158/194/178 152/193/177 157/190/174
f 155/189/173 160/195/179 159/196/180
f 164/197/181 158/194/178 162/198/182
f 163/199/183 164/197/181 159/196/180
f 158/194/184 164/197/181 139/171/157
f 164/197/181 300/200/185 286/201/186
f 166/202/187 165/203/188 42/46/48
f 165/203/188 168/204/189 170/205/190
f 166/202/187 168/204/189 165/203/188
f 171/55/56 44/53/54 147/206/191
f 148/207/192 46/208/193 171/55/56
f 145/209/170 46/208/193 148/207/192
f 172/210/194 175/211/195 146/212/196
f 168/213/189 173/214/197 170/215/190
f 146/212/196 175/211/195 149/187/171
f 172/210/194 170/215/190 175/211/195
f 170/215/190 173/214/197 175/211/195
f 175/211/195 156/188/172 149/187/171
f 175/211/195 176/216/198 156/188/172
f 173/214/197 176/216/198 175/211/195
f 174/217/199 177/218/200 173/214/197
f 156/188/172 176/216/198 160/195/179
f 178/219/201 177/218/200 174/217/199
f 177/218/200 161/220/202 176/216/198
f 179/221/203 161/220/202 177/218/200
f 179/221/203 180/222/204 161/220/202
f 180/222/204 268/223/205 161/220/202
f 181/224/206 182/225/207 189/226/208
f 178/227/201 185/228/209 177/229/200
f 193/230/210 182/225/207 188/231/211
f 186/232/212 188/231/211 182/225/207
f 189/226/208 193/230/210 198/233/213
f 187/234/214 191/235/215 192/236/216
f 177/229/200 183/237/217 179/238/203
f 191/235/215 189/239/208 198/240/213
f 193/230/210 196/241/218 270/242/219
f 500/243/220 245/244/221 186/232/212
f 195/245/222 274/246/223 190/247/224
f 193/230/210 197/248/225 196/241/218
f 186/232/212 199/249/226 304/250/227
f 182/225/207 200/251/228 201/252/229
f 182/225/207 194/253/230 186/232/212
f 568/254/231 203/255/232 200/256/228
f 194/253/230 199/249/226 186/232/212
f 204/257/233 37/42/45 34/39/42
f 205/258/53 204/257/233 34/39/42
f 206/259/234 37/42/45 204/257/233
f 208/260/235 206/259/234 204/257/233
f 208/260/235 204/257/233 205/258/53
f 207/261/236 206/259/234 208/260/235
f 209/262/237 208/260/235 205/258/53
f 46/208/193 209/263/237 43/50/52
f 73/93/89 82/111/104 72/91/87
f 91/104/97 210/264/238 211/96/92
f 108/145/136 104/131/123 89/130/122
f 215/265/239 104/131/123 108/145/136
f 214/266/240 212/267/241 97/121/113
f 213/268/242 212/267/241 214/266/240
f 213/268/242 218/269/243 212/267/241
f 215/265/239 214/266/240 104/131/123
f 216/270/244 213/268/242 215/265/239
f 213/268/242 214/266/240 215/265/239
f 216/270/244 215/265/239 108/145/136
f 218/269/243 113/138/129 212/267/241
f 218/269/243 219/271/245 121/151/142
f 222/272/246 219/271/245 218/269/243
f 220/273/247 218/269/243 213/268/242
f 221/274/248 220/273/247 213/268/242
f 221/274/248 225/275/249 220/273/247
f 225/275/249 221/274/248 226/276/250
f 228/277/251 224/278/252 225/275/249
f 226/276/250 216/270/244 227/279/253
f 227/279/253 228/277/251 226/276/250
f 119/280/148 217/281/254 120/146/137
f 230/282/255 237/283/256 228/277/251
f 238/284/257 237/283/256 230/282/255
f 227/279/253 229/285/258 230/282/255
f 233/286/259 133/166/153 131/287/149
f 231/192/176 133/166/153 233/286/259
f 219/271/245 234/288/260 131/158/149
f 223/289/261 234/288/260 219/271/245
f 239/290/262 232/291/263 233/286/259
f 240/292/264 145/184/170 231/192/176
f 232/291/263 240/292/264 231/192/176
f 253/293/265 241/294/266 242/295/267
f 567/296/268 241/294/266 232/291/263
f 247/297/269 207/261/236 208/260/235
f 209/262/237 250/298/270 247/297/269
f 251/299/271 246/300/272 250/298/270
f 249/301/273 246/300/272 248/302/274
f 240/292/264 250/303/270 145/184/170
f 251/304/271 250/303/270 240/292/264
f 249/305/273 252/306/275 178/307/201
f 254/308/276 248/309/274 251/304/271
f 241/294/266 253/293/265 251/304/271
f 254/308/276 251/304/271 253/293/265
f 253/293/265 242/295/267 243/310/277
f 254/308/276 253/293/265 256/311/278
f 258/312/279 259/313/280 181/314/206
f 258/315/279 184/316/281 187/234/214
f 185/317/209 260/318/282 192/319/216
f 187/320/214 192/319/216 261/321/283
f 262/322/284 263/323/285 187/320/214
f 263/323/285 265/324/286 259/313/280
f 260/318/282 261/321/283 192/319/216
f 259/313/280 200/256/228 181/314/206
f 264/325/287 200/256/228 259/313/280
f 264/325/287 568/254/231 200/256/228
f 144/326/288 292/327/289 142/328/290
f 276/329/291 195/245/222 269/330/292
f 202/331/293 306/332/294 305/333/295
f 193/230/210 245/244/221 197/248/225
f 266/334/296 570/335/297 280/336/298
f 9/337/299 8/14/13 10/338/300
f 10/338/301 12/9/301 3/8/301
f 11/11/11 4/2/2 10/1/1
f 7/12/302 5/4/302 6/6/302
f 10/338/300 8/14/13 12/9/26
f 7/16/15 1/339/303 2/24/24
f 16/23/23 7/16/15 2/24/24
f 7/16/15 16/23/23 8/14/13
f 12/9/26 8/14/13 16/23/23
f 18/21/21 6/6/6 572/27/28
f 17/30/32 4/2/2 11/11/11
f 18/21/21 15/17/16 14/19/18
f 19/25/25 16/23/23 21/29/31
f 11/7/7 19/25/29 17/340/35
f 21/29/31 14/22/22 13/341/304
f 17/340/35 19/25/29 25/342/305
f 21/29/306 13/341/307 15/343/308
f 21/29/306 15/343/308 20/344/309
f 23/26/27 20/28/30 18/21/21
f 21/29/306 20/344/309 22/31/33
f 23/26/27 27/35/38 20/28/30
f 25/342/305 19/25/25 22/31/33
f 17/340/35 25/342/305 26/345/36
f 22/31/33 20/344/309 27/346/38
f 23/26/27 24/32/34 29/41/44
f 28/43/37 31/37/40 27/346/38
f 34/39/42 29/41/44 24/32/34
f 27/346/38 31/37/40 22/31/33
f 32/38/41 25/342/305 22/31/33
f 32/38/41 26/345/36 25/342/305
f 33/52/43 26/345/36 32/38/41
f 35/44/46 32/38/41 31/37/40
f 36/48/50 32/38/41 35/44/46
f 36/48/50 33/52/43 32/38/41
f 37/42/45 29/41/44 34/39/42
f 38/45/47 30/36/39 37/42/45
f 39/347/310 28/34/37 30/36/39
f 39/348/310 35/44/46 28/43/37
f 33/52/43 36/48/50 43/50/52
f 41/49/51 39/347/310 30/36/39
f 40/47/49 35/44/46 39/348/310
f 44/53/54 40/47/49 39/348/310
f 44/349/54 39/347/310 167/350/311
f 43/50/52 40/47/49 45/54/55
f 46/208/193 43/50/52 45/54/55
f 50/60/61 49/66/312 53/61/62
f 55/69/70 52/62/63 56/63/64
f 53/72/73 49/64/65 60/58/59
f 62/71/72 57/67/68 50/60/61
f 63/70/71 50/60/61 54/68/69
f 60/58/59 57/65/66 47/56/57
f 62/71/72 47/351/313 57/67/68
f 62/71/72 48/81/314 47/351/313
f 64/352/315 51/74/60 61/73/74
f 58/75/75 51/74/60 64/352/315
f 65/79/77 48/81/314 62/71/72
f 61/73/74 48/57/58 64/352/315
f 67/83/82 64/80/79 65/79/78
f 58/75/75 64/352/315 67/86/82
f 58/75/75 67/86/82 59/77/84
f 70/353/94 59/77/84 66/85/83
f 68/87/85 54/89/69 55/354/70
f 71/92/88 68/87/85 55/354/70
f 74/94/90 69/90/86 79/107/100
f 70/353/316 55/78/70 59/77/76
f 71/92/88 55/354/70 70/98/316
f 73/93/89 71/92/88 76/97/93
f 76/97/93 71/92/88 70/98/316
f 75/102/81 65/95/78 74/94/317
f 88/115/108 75/102/81 74/94/317
f 77/100/95 75/102/81 88/115/108
f 66/99/83 91/104/97 76/97/93
f 78/105/98 83/108/101 80/106/99
f 96/110/103 83/108/101 78/105/98
f 80/106/99 79/107/100 69/90/86
f 82/111/104 78/105/98 72/91/87
f 89/130/122 85/113/106 210/264/238
f 87/116/109 86/114/107 84/112/105
f 86/114/107 88/115/108 74/94/317
f 89/130/122 210/264/238 91/104/97
f 90/118/111 88/115/108 87/116/109
f 77/100/95 90/118/111 93/119/96
f 107/120/112 89/130/122 91/104/97
f 93/119/96 92/117/110 107/136/112
f 94/122/114 95/123/115 96/110/103
f 96/110/103 98/124/116 83/108/101
f 95/123/115 102/125/117 98/124/116
f 81/109/102 97/121/113 96/110/103
f 83/108/101 100/126/118 84/112/105
f 98/124/116 100/126/118 83/108/101
f 214/266/240 97/121/113 85/113/106
f 102/125/117 101/129/121 100/126/118
f 103/132/124 101/129/121 102/125/117
f 106/135/127 101/129/121 103/132/124
f 106/135/127 105/133/125 101/129/121
f 92/117/110 87/116/109 105/133/125
f 107/120/112 108/145/136 89/130/122
f 105/133/125 110/137/128 92/117/110
f 120/355/137 110/137/128 109/134/126
f 120/355/137 107/136/112 110/137/128
f 111/140/131 95/123/115 112/139/130
f 112/139/130 95/123/115 94/122/114
f 114/141/132 99/128/120 95/123/115
f 113/138/129 97/121/113 212/267/241
f 115/142/133 116/127/119 99/128/120
f 103/132/124 116/127/119 117/143/134
f 109/134/126 106/135/127 118/144/135
f 119/157/148 120/355/137 109/134/126
f 122/150/141 112/139/130 121/151/142
f 124/155/146 114/141/132 111/140/131
f 111/140/131 123/152/143 124/155/146
f 125/153/144 124/155/146 123/152/143
f 124/155/146 115/142/133 114/141/132
f 126/154/145 115/142/133 124/155/146
f 117/143/134 115/142/133 126/154/145
f 125/153/144 127/356/159 126/154/145
f 126/154/145 127/356/159 117/143/134
f 117/143/134 127/356/159 130/156/147
f 130/156/147 118/144/135 117/143/134
f 289/357/318 128/175/161 434/358/319
f 130/156/147 295/359/320 290/360/321
f 119/157/148 290/360/321 129/361/322
f 131/158/149 122/150/141 121/151/142
f 135/164/152 123/163/143 134/168/151
f 138/174/160 127/173/159 125/165/144
f 135/164/152 138/174/160 125/165/144
f 140/172/158 138/174/160 135/164/152
f 139/171/157 141/178/164 140/172/158
f 142/328/290 140/172/158 141/178/164
f 128/175/161 140/172/158 142/328/290
f 146/212/196 149/187/171 151/191/175
f 147/362/323 146/212/196 148/182/168
f 148/182/168 146/212/196 150/183/169
f 149/187/171 155/189/173 151/191/175
f 152/193/177 146/212/196 151/191/175
f 150/183/169 146/212/196 152/193/177
f 150/183/169 136/169/155 154/181/167
f 145/184/170 154/186/167 231/192/176
f 152/193/177 136/169/155 150/183/169
f 137/170/156 136/169/155 152/193/177
f 154/181/167 136/169/155 153/363/154
f 158/194/184 137/170/156 152/193/177
f 136/169/155 134/168/151 153/363/154
f 160/195/179 155/189/173 156/188/172
f 157/190/174 155/189/173 162/198/182
f 159/196/180 162/198/182 155/189/173
f 158/194/178 157/190/174 162/198/182
f 158/194/184 139/171/157 137/170/156
f 160/195/179 163/199/183 159/196/180
f 161/220/202 163/199/183 160/195/179
f 164/197/181 162/198/182 159/196/180
f 42/46/48 165/203/188 41/49/51
f 166/202/187 42/46/48 38/45/47
f 167/350/311 39/347/310 41/49/51
f 167/350/311 41/49/51 165/203/188
f 172/364/194 44/349/54 167/350/311
f 165/203/188 170/205/190 167/350/311
f 169/365/324 168/204/189 166/202/187
f 44/349/54 172/364/194 147/366/325
f 172/364/194 167/350/311 170/205/190
f 46/208/193 45/54/55 171/55/326
f 148/207/192 171/55/56 147/206/191
f 172/210/194 146/212/196 147/367/323
f 174/217/199 173/214/197 168/213/189
f 177/218/200 176/216/198 173/214/197
f 176/216/198 161/220/202 160/195/179
f 163/199/183 161/220/202 268/223/205
f 181/368/206 189/369/208 184/316/281
f 258/315/279 181/368/206 184/316/281
f 182/225/207 193/230/210 189/226/208
f 183/237/217 177/229/200 185/228/209
f 184/316/281 189/239/208 187/234/214
f 187/234/214 189/239/208 191/235/215
f 183/237/217 195/245/222 190/247/224
f 191/235/215 198/240/213 195/245/222
f 191/235/215 195/245/222 183/237/217
f 191/235/215 183/237/217 192/236/216
f 192/236/216 183/237/217 185/228/209
f 244/370/327 245/244/221 500/243/328
f 190/247/224 179/238/203 183/237/217
f 193/230/210 270/242/219 198/233/213
f 180/371/204 179/238/203 190/247/224
f 200/251/228 182/225/207 181/224/206
f 194/253/230 182/225/207 201/252/229
f 202/372/293 201/252/229 200/251/228
f 201/252/229 202/372/293 194/253/230
f 203/255/232 202/331/293 200/256/228
f 202/372/293 199/249/226 194/253/230
f 206/259/234 38/45/47 37/42/45
f 205/258/53 34/39/42 33/40/43
f 207/261/236 38/45/47 206/259/234
f 207/261/236 166/202/187 38/45/47
f 209/263/237 205/51/53 43/50/52
f 210/264/238 82/111/104 73/93/89
f 85/113/106 82/111/104 210/264/238
f 210/264/238 73/93/89 211/96/92
f 104/131/123 214/266/240 85/113/106
f 217/281/254 108/145/136 120/146/137
f 216/270/244 108/145/136 217/281/254
f 113/138/129 218/269/243 121/151/142
f 131/158/149 121/151/142 219/271/245
f 218/269/243 220/273/247 222/272/246
f 222/272/246 220/273/247 225/275/249
f 222/272/246 225/275/249 223/289/261
f 223/289/261 225/275/249 224/278/252
f 221/274/248 213/268/242 216/270/244
f 221/274/248 216/270/244 226/276/250
f 225/275/249 226/276/250 228/277/251
f 237/283/256 224/278/252 228/277/251
f 216/270/244 217/281/254 227/279/253
f 228/277/251 227/279/253 230/282/255
f 229/373/329 267/374/330 518/375/331
f 227/279/253 217/281/254 229/285/258
f 132/161/150 131/287/149 133/166/153
f 131/287/149 234/376/260 233/286/259
f 219/271/245 222/272/246 223/289/261
f 232/291/263 231/192/176 233/286/259
f 235/377/332 234/376/260 236/378/333
f 234/288/260 223/289/261 236/379/333
f 236/379/333 223/289/261 224/278/252
f 233/286/259 234/376/260 235/377/332
f 236/379/333 224/278/252 237/283/256
f 237/283/256 238/284/257 236/379/333
f 233/286/259 235/377/332 239/290/262
f 238/380/257 235/377/332 236/378/333
f 251/304/271 240/292/264 241/294/266
f 241/294/266 240/292/264 232/291/263
f 241/294/266 567/296/268 242/295/267
f 567/296/268 232/291/263 239/290/262
f 197/248/225 245/244/221 244/370/327
f 246/300/272 166/202/187 207/261/236
f 169/365/324 166/202/187 246/300/272
f 247/297/269 208/260/235 209/262/237
f 246/300/272 207/261/236 247/297/269
f 246/300/272 249/301/273 169/365/324
f 246/300/272 247/297/269 250/298/270
f 249/301/273 168/204/189 169/365/324
f 209/263/237 46/208/193 145/209/170
f 250/381/270 209/263/237 145/209/170
f 248/302/274 246/300/272 251/299/271
f 249/305/273 178/307/201 168/382/189
f 249/305/273 248/309/274 254/308/276
f 178/219/201 174/217/199 168/213/189
f 249/305/273 255/383/334 260/384/282
f 260/384/282 252/306/275 249/305/273
f 254/308/276 255/383/334 249/305/273
f 255/383/334 254/308/276 256/311/278
f 260/384/282 272/385/335 279/386/336
f 253/293/265 243/310/277 257/387/337
f 256/311/278 253/293/265 257/387/337
f 260/318/282 279/388/336 271/389/338
f 255/383/334 256/311/278 272/385/335
f 252/390/275 185/317/209 178/391/201
f 185/317/209 252/390/275 260/318/282
f 263/323/285 259/313/280 258/312/279
f 263/323/285 258/312/279 187/320/214
f 187/320/214 261/321/283 262/322/284
f 262/322/284 261/321/283 284/392/339
f 265/324/286 263/323/285 277/393/340
f 261/321/283 282/394/341 284/392/339
f 264/325/287 259/313/280 265/324/286
f 264/325/287 265/324/286 266/334/296
f 264/325/287 280/336/298 281/395/342
f 446/396/343 301/397/344 299/398/345
f 274/246/223 195/245/222 276/329/291
f 198/240/346 270/399/347 275/400/348
f 278/401/349 263/323/285 285/402/350
f 242/295/267 567/296/268 243/310/277
f 261/321/283 271/389/338 282/394/341
f 186/232/212 245/244/221 188/231/211
f 193/230/210 188/231/211 245/244/221
f 180/371/204 190/247/224 273/403/351
f 285/402/350 262/322/284 283/404/352
f 569/405/353 265/324/286 277/393/340
f 570/335/297 266/334/296 569/405/353
f 297/406/354 130/407/147 303/408/355
f 294/409/356 163/199/183 296/410/357
f 298/411/358 128/175/161 301/397/344
f 295/412/320 130/407/147 297/406/354
f 293/180/166 144/326/288 142/328/290
f 291/179/165 141/178/164 288/177/163
f 303/408/355 127/173/159 289/357/318
f 287/176/162 139/171/157 286/201/186
f 300/200/185 164/197/181 294/409/356
f 296/410/357 163/199/183 268/223/205
f 500/243/220 186/232/212 304/250/227
f 199/249/226 202/372/293 305/413/295
f 217/281/254 129/414/322 267/415/359
f 217/281/254 119/280/148 129/414/322
f 316/416/360 315/417/361 310/418/362
f 311/419/363 312/420/364 314/421/365
f 315/417/361 314/421/365 310/418/362
f 317/422/366 318/423/367 309/424/368
f 309/425/369 316/416/360 317/426/370
f 313/427/371 307/428/371 312/420/371
f 314/429/372 313/430/373 311/431/374
f 314/421/365 312/420/364 310/418/362
f 321/432/375 320/433/376 319/434/377
f 307/428/378 308/435/379 312/420/364
f 312/420/364 308/435/379 324/436/380
f 320/433/376 324/436/380 308/435/379
f 320/437/381 308/438/382 322/439/383
f 325/440/384 322/439/383 318/423/385
f 310/418/362 571/441/386 329/442/387
f 317/422/366 325/440/388 318/423/367
f 326/443/389 324/436/380 321/432/375
f 327/444/390 320/437/381 322/439/383
f 323/445/391 310/418/362 329/442/387
f 328/446/392 327/444/390 325/440/384
f 330/447/393 332/448/394 323/445/395
f 329/442/387 330/447/393 323/445/391
f 329/442/387 333/449/396 334/450/397
f 336/451/398 329/442/387 334/450/397
f 337/452/399 328/446/392 338/453/400
f 340/454/401 332/448/394 330/447/393
f 339/455/402 332/448/394 340/454/401
f 329/442/387 336/451/398 335/456/403
f 343/457/404 335/456/403 336/451/398
f 334/458/397 337/452/399 341/459/405
f 344/460/406 336/451/398 348/461/407
f 346/462/408 341/459/405 342/463/409
f 336/451/398 347/464/410 348/461/407
f 349/465/411 346/462/408 342/463/409
f 349/465/411 339/466/402 506/467/412
f 350/468/413 346/462/408 351/469/414
f 350/468/413 351/469/414 473/470/415
f 353/471/416 366/472/417 354/473/418
f 357/59/419 359/474/420 356/475/421
f 358/476/422 357/59/419 356/475/421
f 362/477/423 357/59/419 358/476/422
f 366/472/417 363/478/424 355/479/425
f 355/480/426 363/481/427 356/475/421
f 358/476/422 356/475/421 360/482/428
f 358/476/422 360/482/428 361/483/429
f 369/484/430 356/475/421 368/485/431
f 359/486/432 357/487/419 367/488/433
f 364/489/434 357/487/419 362/490/423
f 365/491/435 362/490/423 361/492/429
f 367/488/433 366/472/417 359/486/432
f 365/491/435 364/489/434 362/490/423
f 369/484/430 368/485/431 371/493/436
f 367/488/433 354/473/418 366/472/417
f 371/493/437 354/494/438 370/495/439
f 371/493/437 373/496/440 381/497/441
f 372/498/442 381/497/441 373/496/440
f 372/499/442 373/500/440 365/491/443
f 374/501/444 360/502/428 369/503/430
f 374/501/444 369/503/430 375/504/445
f 378/505/446 377/506/447 374/501/444
f 379/507/448 377/506/447 378/505/446
f 369/503/430 371/508/449 380/509/450
f 375/504/445 369/503/430 380/509/450
f 512/510/451 382/511/452 379/507/448
f 376/512/453 382/511/452 372/513/442
f 383/514/454 381/515/441 372/516/442
f 399/517/455 372/513/442 397/518/456
f 397/518/456 382/511/452 512/510/451
f 384/519/457 374/501/444 386/520/458
f 385/521/459 389/522/460 386/520/458
f 375/504/445 386/520/458 374/501/444
f 384/519/457 378/505/446 374/501/444
f 387/523/461 384/519/457 402/524/462
f 388/525/463 384/519/457 387/523/461
f 385/521/459 390/526/464 389/522/460
f 391/527/465 388/525/463 387/523/461
f 385/521/459 392/528/466 390/526/464
f 380/509/450 392/528/466 385/521/459
f 394/529/467 393/530/468 392/528/466
f 398/531/469 393/530/468 396/532/470
f 396/532/470 394/529/467 383/514/454
f 399/533/455 383/514/454 372/516/442
f 398/531/469 396/532/470 399/533/455
f 397/518/456 413/534/471 399/517/455
f 403/535/472 402/524/462 400/536/473
f 402/524/462 404/537/474 401/538/475
f 404/537/474 406/539/476 408/540/477
f 391/527/465 387/523/461 403/535/472
f 422/541/478 405/542/479 408/540/477
f 390/526/464 407/543/480 406/539/476
f 395/544/481 391/527/465 410/545/482
f 390/526/464 393/530/468 407/543/480
f 409/546/483 422/541/478 408/540/477
f 411/547/484 407/543/480 393/530/468
f 415/548/485 412/549/486 411/547/484
f 413/550/471 416/551/487 398/531/469
f 415/548/485 411/547/484 416/551/487
f 419/552/488 400/536/473 418/553/489
f 417/554/490 401/538/475 420/555/491
f 419/552/488 403/535/472 400/536/473
f 401/538/475 408/540/477 405/542/479
f 420/555/491 405/542/479 421/556/492
f 421/556/492 422/541/478 423/557/493
f 424/149/140 409/546/483 412/549/486
f 423/557/493 409/546/483 424/149/140
f 414/558/494 426/559/495 413/534/471
f 119/157/148 109/134/126 118/144/135
f 418/553/489 417/554/490 428/560/496
f 419/552/488 418/553/489 427/561/497
f 417/554/490 429/562/498 428/560/496
f 431/563/499 430/564/500 432/565/501
f 424/149/140 415/548/485 425/147/138
f 428/560/496 437/566/502 436/567/503
f 429/568/498 439/569/504 437/570/502
f 428/560/496 429/562/498 437/566/502
f 429/571/498 431/572/499 440/573/505
f 438/574/506 437/570/502 439/569/504
f 438/574/506 439/569/504 455/575/507
f 439/576/504 440/573/505 441/577/508
f 441/577/508 440/573/505 442/578/509
f 440/573/505 444/579/510 442/578/509
f 440/573/505 445/580/511 444/579/510
f 433/581/512 445/580/511 443/582/513
f 445/580/511 433/581/512 434/358/319
f 444/579/510 288/177/163 287/176/162
f 456/583/514 452/584/515 450/585/516
f 447/586/517 456/587/514 450/588/516
f 451/589/518 457/590/519 458/591/520
f 457/590/519 453/592/521 459/593/522
f 530/594/523 455/575/507 456/587/514
f 438/574/506 455/575/507 530/594/523
f 454/595/524 459/593/522 453/592/521
f 460/596/525 459/593/522 454/595/524
f 457/590/519 461/597/526 462/598/527
f 466/599/528 464/600/529 460/596/525
f 465/601/530 461/597/526 466/599/528
f 460/596/531 444/579/510 466/599/528
f 466/599/528 286/201/186 300/200/185
f 468/602/532 348/461/407 467/603/533
f 467/603/533 472/604/534 470/605/535
f 468/602/532 467/603/533 470/605/535
f 473/470/415 449/606/536 350/468/413
f 450/607/537 473/470/415 352/608/538
f 447/609/517 450/607/537 352/608/538
f 474/610/539 448/611/540 477/612/541
f 470/613/535 472/614/534 475/615/542
f 448/611/540 451/589/518 477/612/541
f 474/610/539 477/612/541 472/614/534
f 472/614/534 477/612/541 475/615/542
f 477/612/541 451/589/518 458/591/520
f 477/612/541 458/591/520 478/616/543
f 475/615/542 477/612/541 478/616/543
f 476/617/544 475/615/542 479/618/545
f 458/591/520 462/598/527 478/616/543
f 480/619/546 476/617/544 479/618/545
f 479/618/545 478/616/543 463/620/547
f 481/621/548 479/618/545 463/620/547
f 481/621/548 463/620/547 180/222/204
f 180/222/204 463/620/547 268/223/205
f 482/622/549 490/623/550 483/624/551
f 480/625/546 479/626/545 486/627/552
f 494/628/553 489/629/554 483/624/551
f 487/630/555 483/624/551 489/629/554
f 490/623/550 499/631/556 494/628/553
f 488/632/557 493/633/558 492/634/559
f 479/626/545 481/635/548 484/636/560
f 492/634/559 499/637/556 490/638/550
f 494/628/553 565/639/561 497/640/562
f 500/243/220 487/630/555 544/641/563
f 496/642/564 491/643/565 274/246/223
f 494/628/553 497/640/562 498/644/566
f 487/630/555 304/250/227 199/249/226
f 483/624/551 502/645/567 501/646/568
f 483/624/551 487/630/555 495/647/569
f 568/254/231 501/648/568 504/649/570
f 495/647/569 487/630/555 199/249/226
f 505/650/571 340/454/401 343/457/404
f 506/651/412 340/454/401 505/650/571
f 507/652/572 505/650/571 343/457/404
f 509/653/573 505/650/571 507/652/572
f 509/653/573 506/651/412 505/650/571
f 508/654/574 509/653/573 507/652/572
f 510/655/575 506/651/412 509/653/573
f 352/608/538 349/465/411 510/656/575
f 379/507/448 378/505/446 388/525/463
f 397/518/456 512/510/451 511/657/576
f 414/558/494 395/544/481 410/545/482
f 516/658/577 414/558/494 410/545/482
f 515/659/578 403/535/472 513/660/579
f 514/661/580 515/659/578 513/660/579
f 514/661/580 513/660/579 519/662/581
f 516/658/577 410/545/482 515/659/578
f 517/663/582 516/658/577 514/661/580
f 514/661/580 516/658/577 515/659/578
f 517/663/582 414/558/494 516/658/577
f 519/662/581 513/660/579 419/552/488
f 519/662/581 427/561/497 520/664/583
f 523/665/584 519/662/581 520/664/583
f 521/666/585 514/661/580 519/662/581
f 522/667/586 514/661/580 521/666/585
f 522/667/586 521/666/585 526/668/587
f 526/668/587 527/669/588 522/667/586
f 529/670/589 526/668/587 525/671/590
f 527/669/588 528/672/591 517/663/582
f 528/672/591 527/669/588 529/670/589
f 425/673/138 426/559/495 518/375/331
f 230/674/255 529/670/589 536/675/592
f 537/676/593 230/674/255 536/675/592
f 528/672/591 230/674/255 229/373/329
f 532/677/594 436/678/503 438/574/506
f 530/594/523 532/677/594 438/574/506
f 520/664/583 436/567/503 533/679/595
f 524/680/596 520/664/583 533/679/595
f 538/681/597 532/677/594 531/682/598
f 539/683/599 530/594/523 447/586/517
f 531/682/598 530/594/523 539/683/599
f 552/684/600 541/685/601 540/686/602
f 567/296/268 531/682/598 540/686/602
f 546/687/603 509/653/573 508/654/574
f 510/655/575 546/687/603 549/688/604
f 550/689/605 549/688/604 545/690/606
f 548/691/607 547/692/608 545/690/606
f 539/683/599 447/586/517 549/693/604
f 550/694/605 539/683/599 549/693/604
f 548/695/607 480/696/546 551/697/609
f 553/698/610 550/694/605 547/699/608
f 540/686/602 550/694/605 552/684/600
f 553/698/610 552/684/600 550/694/605
f 552/684/600 542/700/611 541/685/601
f 553/698/610 555/701/612 552/684/600
f 556/702/613 482/703/549 557/704/614
f 556/705/613 488/632/557 485/706/615
f 486/707/552 493/708/558 558/709/616
f 488/710/557 559/711/617 493/708/558
f 560/712/618 488/710/557 561/713/619
f 561/713/619 557/704/614 563/714/620
f 558/709/616 493/708/558 559/711/617
f 557/704/614 482/703/549 501/648/568
f 562/715/621 557/704/614 501/648/568
f 562/715/621 568/254/231 281/716/342
f 143/717/622 302/718/623 446/396/343
f 144/326/288 446/396/343 292/327/289
f 276/329/291 269/330/292 496/642/564
f 503/719/624 305/333/295 306/332/294
f 494/628/553 498/644/566 544/641/563
f 564/720/625 280/721/298 570/722/297
f 315/723/626 316/724/627 314/429/372
f 316/724/628 309/424/628 318/423/628
f 317/426/370 316/416/360 310/418/362
f 313/427/629 312/420/629 311/419/629
f 316/724/627 318/423/385 314/429/372
f 313/430/373 308/438/382 307/725/630
f 322/439/383 308/438/382 313/430/373
f 313/430/373 314/429/372 322/439/383
f 318/423/385 322/439/383 314/429/372
f 324/436/380 571/441/386 312/420/364
f 323/445/391 317/426/370 310/418/362
f 324/436/380 320/433/376 321/432/375
f 325/440/384 327/444/390 322/439/383
f 317/422/366 323/726/395 325/440/388
f 327/444/390 319/727/631 320/437/381
f 323/726/395 331/728/632 325/440/388
f 327/444/633 321/729/634 319/727/635
f 327/444/633 326/730/636 321/729/634
f 329/442/387 324/436/380 326/443/389
f 327/444/633 328/446/392 326/730/636
f 329/442/387 326/443/389 333/449/396
f 331/728/632 328/446/392 325/440/384
f 323/726/395 332/731/394 331/728/632
f 328/446/392 333/732/396 326/730/636
f 329/442/387 335/456/403 330/447/393
f 334/458/397 333/732/396 337/452/399
f 340/454/401 330/447/393 335/456/403
f 333/732/396 328/446/392 337/452/399
f 338/453/400 328/446/392 331/728/632
f 338/453/400 331/728/632 332/731/394
f 339/466/402 338/453/400 332/731/394
f 341/459/405 337/452/399 338/453/400
f 342/463/409 341/459/405 338/453/400
f 342/463/409 338/453/400 339/466/402
f 343/457/404 340/454/401 335/456/403
f 344/460/406 343/457/404 336/451/398
f 345/733/637 336/451/398 334/450/397
f 345/734/637 334/458/397 341/459/405
f 339/466/402 349/465/411 342/463/409
f 347/464/410 336/451/398 345/733/637
f 346/462/408 345/734/637 341/459/405
f 350/468/413 345/734/637 346/462/408
f 350/735/413 469/736/638 345/733/637
f 349/465/411 351/469/414 346/462/408
f 352/608/538 351/469/414 349/465/411
f 356/475/421 359/474/420 355/480/639
f 361/483/429 362/477/423 358/476/422
f 359/486/432 366/472/417 355/479/425
f 368/485/431 356/475/421 363/481/427
f 369/484/430 360/482/428 356/475/421
f 366/472/417 353/471/416 363/478/424
f 368/485/431 363/481/427 353/737/640
f 368/485/431 353/737/640 354/494/641
f 370/738/642 367/488/433 357/487/419
f 364/489/434 370/738/642 357/487/419
f 371/493/436 368/485/431 354/494/641
f 367/488/433 370/738/642 354/473/418
f 373/496/440 371/493/437 370/495/439
f 364/489/434 373/500/440 370/738/642
f 364/489/434 365/491/443 373/500/440
f 376/739/453 372/499/442 365/491/443
f 374/501/444 361/740/429 360/502/428
f 377/506/447 361/740/429 374/501/444
f 380/509/450 385/521/459 375/504/445
f 376/739/643 365/491/435 361/492/429
f 377/506/447 376/512/643 361/740/429
f 379/507/448 382/511/452 377/506/447
f 382/511/452 376/512/643 377/506/447
f 381/515/441 380/509/644 371/508/437
f 394/529/467 380/509/644 381/515/441
f 383/514/454 394/529/467 381/515/441
f 372/513/442 382/511/452 397/518/456
f 384/519/457 386/520/458 389/522/460
f 402/524/462 384/519/457 389/522/460
f 386/520/458 375/504/445 385/521/459
f 388/525/463 378/505/446 384/519/457
f 395/544/481 511/657/576 391/527/465
f 393/530/468 390/526/464 392/528/466
f 392/528/466 380/509/644 394/529/467
f 395/544/481 397/518/456 511/657/576
f 396/532/470 393/530/468 394/529/467
f 383/514/454 399/533/455 396/532/470
f 413/534/471 397/518/456 395/544/481
f 399/533/455 413/550/471 398/531/469
f 400/536/473 402/524/462 401/538/475
f 402/524/462 389/522/460 404/537/474
f 401/538/475 404/537/474 408/540/477
f 387/523/461 402/524/462 403/535/472
f 389/522/460 390/526/464 406/539/476
f 404/537/474 389/522/460 406/539/476
f 515/659/578 391/527/465 403/535/472
f 408/540/477 406/539/476 407/543/480
f 409/546/483 408/540/477 407/543/480
f 412/549/486 409/546/483 407/543/480
f 412/549/486 407/543/480 411/547/484
f 398/531/469 411/547/484 393/530/468
f 413/534/471 395/544/481 414/558/494
f 411/547/484 398/531/469 416/551/487
f 426/741/495 415/548/485 416/551/487
f 426/741/495 416/551/487 413/550/471
f 417/554/490 418/553/489 401/538/475
f 418/553/489 400/536/473 401/538/475
f 420/555/491 401/538/475 405/542/479
f 419/552/488 513/660/579 403/535/472
f 421/556/492 405/542/479 422/541/478
f 409/546/483 423/557/493 422/541/478
f 415/548/485 424/149/140 412/549/486
f 425/147/138 415/548/485 426/741/495
f 428/560/496 427/561/497 418/553/489
f 430/564/500 417/554/490 420/555/491
f 417/554/490 430/564/500 429/562/498
f 431/563/499 429/562/498 430/564/500
f 430/564/500 420/555/491 421/556/492
f 432/565/501 430/564/500 421/556/492
f 423/557/493 432/565/501 421/556/492
f 431/563/499 432/565/501 433/742/512
f 432/565/501 423/557/493 433/742/512
f 423/557/493 435/148/139 433/742/512
f 435/148/139 423/557/493 424/149/140
f 298/411/358 434/358/319 128/175/161
f 435/148/139 290/743/321 295/744/320
f 425/147/138 129/745/645 290/743/321
f 436/567/503 427/561/497 428/560/496
f 440/573/505 439/576/504 429/571/498
f 443/582/513 431/572/499 433/581/512
f 440/573/505 431/572/499 443/582/513
f 445/580/511 440/573/505 443/582/513
f 444/579/510 445/580/511 291/179/165
f 446/396/343 291/179/165 445/580/511
f 434/358/319 446/396/343 445/580/511
f 448/611/540 453/592/521 451/589/518
f 449/746/646 450/585/516 448/611/540
f 450/585/516 452/584/515 448/611/540
f 451/589/518 453/592/521 457/590/519
f 454/595/524 453/592/521 448/611/540
f 452/584/515 454/595/524 448/611/540
f 452/584/515 456/583/514 441/577/508
f 447/586/517 530/594/523 456/587/514
f 454/595/524 452/584/515 441/577/508
f 442/578/509 454/595/524 441/577/508
f 456/583/514 455/747/507 441/577/508
f 460/596/531 454/595/524 442/578/509
f 441/577/508 455/747/507 439/576/504
f 462/598/527 458/591/520 457/590/519
f 459/593/522 464/600/529 457/590/519
f 461/597/526 457/590/519 464/600/529
f 460/596/525 464/600/529 459/593/522
f 460/596/531 442/578/509 444/579/510
f 462/598/527 461/597/526 465/601/530
f 463/620/547 462/598/527 465/601/530
f 466/599/528 461/597/526 464/600/529
f 348/461/407 347/464/410 467/603/533
f 468/602/532 344/460/406 348/461/407
f 469/736/638 347/464/410 345/733/637
f 469/736/638 467/603/533 347/464/410
f 474/748/539 469/736/638 350/735/413
f 467/603/533 469/736/638 472/604/534
f 471/749/647 468/602/532 470/605/535
f 350/735/413 449/750/648 474/748/539
f 474/748/539 472/604/534 469/736/638
f 352/608/538 473/470/649 351/469/414
f 450/607/537 449/606/536 473/470/415
f 474/610/539 449/751/646 448/611/540
f 476/617/544 470/613/535 475/615/542
f 479/618/545 475/615/542 478/616/543
f 478/616/543 462/598/527 463/620/547
f 465/601/530 268/223/205 463/620/547
f 482/752/549 485/706/615 490/638/550
f 556/705/613 485/706/615 482/752/549
f 483/624/551 490/623/550 494/628/553
f 484/636/560 486/627/552 479/626/545
f 485/706/615 488/632/557 490/638/550
f 488/632/557 492/634/559 490/638/550
f 484/636/560 491/643/565 496/642/564
f 492/634/559 496/642/564 499/637/556
f 492/634/559 484/636/560 496/642/564
f 492/634/559 493/633/558 484/636/560
f 493/633/558 486/627/552 484/636/560
f 543/753/650 500/243/328 544/641/563
f 491/643/565 484/636/560 481/635/548
f 494/628/553 499/631/556 565/639/561
f 180/371/204 491/643/565 481/635/548
f 501/646/568 482/622/549 483/624/551
f 495/647/569 502/645/567 483/624/551
f 503/754/624 501/646/568 502/645/567
f 502/645/567 495/647/569 503/754/624
f 504/649/570 501/648/568 503/719/624
f 503/754/624 495/647/569 199/249/226
f 507/652/572 343/457/404 344/460/406
f 506/651/412 339/455/402 340/454/401
f 508/654/574 507/652/572 344/460/406
f 508/654/574 344/460/406 468/602/532
f 510/656/575 349/465/411 506/467/412
f 511/657/576 379/507/448 388/525/463
f 391/527/465 511/657/576 388/525/463
f 511/657/576 512/510/451 379/507/448
f 410/545/482 391/527/465 515/659/578
f 518/375/331 426/559/495 414/558/494
f 517/663/582 518/375/331 414/558/494
f 419/552/488 427/561/497 519/662/581
f 436/567/503 520/664/583 427/561/497
f 519/662/581 523/665/584 521/666/585
f 523/665/584 526/668/587 521/666/585
f 523/665/584 524/680/596 526/668/587
f 524/680/596 525/671/590 526/668/587
f 522/667/586 517/663/582 514/661/580
f 522/667/586 527/669/588 517/663/582
f 526/668/587 529/670/589 527/669/588
f 536/675/592 529/670/589 525/671/590
f 517/663/582 528/672/591 518/375/331
f 529/670/589 230/674/255 528/672/591
f 229/285/258 217/281/254 267/415/359
f 528/672/591 229/373/329 518/375/331
f 437/570/502 438/574/506 436/678/503
f 436/678/503 532/677/594 533/755/595
f 520/664/583 524/680/596 523/665/584
f 531/682/598 532/677/594 530/594/523
f 534/756/651 535/757/652 533/755/595
f 533/679/595 535/758/652 524/680/596
f 535/758/652 525/671/590 524/680/596
f 532/677/594 534/756/651 533/755/595
f 535/758/652 536/675/592 525/671/590
f 536/675/592 535/758/652 537/676/593
f 532/677/594 538/681/597 534/756/651
f 537/759/593 535/757/652 534/756/651
f 550/694/605 540/686/602 539/683/599
f 540/686/602 531/682/598 539/683/599
f 540/686/602 541/685/601 567/296/268
f 567/296/268 538/681/597 531/682/598
f 498/644/566 543/753/650 544/641/563
f 545/690/606 508/654/574 468/602/532
f 471/749/647 545/690/606 468/602/532
f 546/687/603 510/655/575 509/653/573
f 545/690/606 546/687/603 508/654/574
f 545/690/606 471/749/647 548/691/607
f 545/690/606 549/688/604 546/687/603
f 548/691/607 471/749/647 470/605/535
f 510/656/575 447/609/517 352/608/538
f 549/760/604 447/609/517 510/656/575
f 547/692/608 550/689/605 545/690/606
f 548/695/607 470/761/535 480/696/546
f 548/695/607 553/698/610 547/699/608
f 480/619/546 470/613/535 476/617/544
f 548/695/607 558/762/616 554/763/653
f 558/762/616 548/695/607 551/697/609
f 553/698/610 548/695/607 554/763/653
f 554/763/653 555/701/612 553/698/610
f 558/762/616 279/386/336 566/764/654
f 552/684/600 257/387/337 542/700/611
f 555/701/612 257/387/337 552/684/600
f 558/709/616 271/765/338 279/766/336
f 554/763/653 566/764/654 555/701/612
f 551/767/609 480/768/546 486/707/552
f 486/707/552 558/709/616 551/767/609
f 561/713/619 556/702/613 557/704/614
f 561/713/619 488/710/557 556/702/613
f 488/710/557 560/712/618 559/711/617
f 560/712/618 284/769/339 559/711/617
f 563/714/620 277/770/340 561/713/619
f 559/711/617 284/769/339 282/771/341
f 562/715/621 563/714/620 557/704/614
f 562/715/621 564/720/625 563/714/620
f 562/715/621 281/716/342 280/721/298
f 142/328/290 299/398/345 301/397/344
f 274/246/223 276/329/291 496/642/564
f 499/637/655 275/400/348 565/772/656
f 278/773/349 285/774/350 561/713/619
f 541/685/601 542/700/611 567/296/268
f 559/711/617 282/771/341 271/765/338
f 487/630/555 489/629/554 544/641/563
f 494/628/553 544/641/563 489/629/554
f 180/371/204 273/403/351 491/643/565
f 285/774/350 560/712/618 561/713/619
f 569/775/353 277/770/340 563/714/620
f 570/722/297 569/775/353 564/720/625
f 297/406/354 303/408/355 435/776/139
f 294/409/356 465/601/530 466/599/528
f 298/411/358 301/397/344 434/358/319
f 295/412/320 297/406/354 435/776/139
f 293/180/166 446/396/343 144/326/288
f 303/408/355 433/581/512 435/776/139
f 287/176/162 286/201/186 444/579/510
f 300/200/185 294/409/356 466/599/528
f 296/410/357 268/223/205 465/601/530
f 500/243/220 304/250/227 487/630/555
f 199/249/226 305/413/295 503/754/624
f 267/374/330 129/777/645 518/375/331
f 518/375/331 129/777/645 425/673/138
f 500/243/328 543/753/650 244/370/327
f 197/248/657 543/753/657 498/644/657
f 244/370/657 543/753/657 197/248/657
f 498/644/566 497/640/562 197/248/225
f 197/248/225 497/640/562 196/241/218
f 497/640/562 565/639/561 196/241/218
f 196/241/218 565/639/561 270/242/219
f 565/772/656 275/400/348 270/399/347
f 306/332/294 203/255/232 504/649/570
f 504/649/570 203/255/232 568/254/231
f 279/386/336 272/385/335 566/764/654
f 272/385/335 256/311/278 566/764/654
f 566/764/654 256/311/278 555/701/612
f 256/311/278 257/387/337 555/701/612
f 542/700/611 257/387/337 243/310/277
f 542/700/611 243/310/277 567/296/268
f 567/296/268 239/290/262 538/681/597
f 239/290/262 235/377/332 538/681/597
f 538/681/597 235/377/332 534/756/651
f 235/377/332 238/380/257 534/756/651
f 537/759/593 534/756/651 238/380/257
f 238/380/257 230/778/255 537/759/593
f 143/717/622 299/398/345 142/328/290
f 446/396/343 299/398/345 143/717/622
f 292/327/289 446/396/343 302/718/623
f 292/327/289 302/718/623 142/328/290
f 143/717/622 142/328/290 302/718/623
f 128/175/161 289/357/318 127/173/159
f 434/358/319 433/581/512 289/357/318
f 312/420/364 571/441/386 310/418/362
f 329/442/387 571/441/386 324/436/380
f 572/27/28 6/6/6 4/2/2
f 572/27/28 23/26/27 18/21/21
f 275/400/348 269/330/292 198/240/346
f 269/330/292 275/400/348 499/637/655
f 496/642/564 269/330/292 499/637/655
f 269/330/292 195/245/222 198/240/346
f 190/247/224 274/246/223 273/403/351
f 274/246/223 491/643/565 273/403/351
f 306/332/294 504/649/570 503/719/624
f 306/332/294 202/331/293 203/255/232
f 280/336/298 264/325/287 266/334/296
f 280/721/298 564/720/625 562/715/621
f 568/254/231 562/715/621 501/648/568
f 568/254/231 264/325/287 281/395/342
f 569/405/353 266/334/296 265/324/286
f 564/720/625 569/775/353 563/714/620
f 277/393/340 263/323/285 278/401/349
f 561/713/619 277/770/340 278/773/349
f 262/322/284 285/402/350 263/323/285
f 560/712/618 285/774/350 283/779/352
f 284/392/339 283/404/352 262/322/284
f 284/769/339 560/712/618 283/779/352
f 271/389/338 261/321/283 260/318/282
f 271/765/338 558/709/616 559/711/617
f 272/385/335 260/384/282 255/383/334
f 566/764/654 554/763/653 558/762/616
f 290/360/321 119/157/148 130/156/147
f 290/743/321 435/148/139 425/147/138
f 127/173/159 303/408/355 130/407/147
f 433/581/512 303/408/355 289/357/318
f 434/358/319 301/397/344 446/396/343
f 301/397/344 128/175/161 142/328/290
f 293/180/166 142/328/290 141/178/164
f 293/180/166 291/179/165 446/396/343
f 288/177/163 444/579/510 291/179/165
f 288/177/163 141/178/164 139/171/157
f 286/201/186 139/171/157 164/197/181
f 286/201/186 466/599/528 444/579/510
f 163/199/183 294/409/356 164/197/181
f 465/601/530 294/409/356 296/410/357
