# Blender 5.1.2
# www.blender.org
mtllib Maxwell.mtl
o Maxwell.001
v 0.219746 0.497751 -0.326718
v 0.241577 0.345173 -0.449871
v 0.254846 0.431787 -0.220031
v 0.016261 0.049288 0.323965
v 0.036353 0.005789 0.298796
v -0.057180 0.012615 0.359207
v -0.092090 0.406337 0.473915
v -0.017502 0.428616 0.476876
v -0.046373 0.351451 0.420269
v -0.002588 0.356615 0.415759
v 0.183433 -0.003723 -0.147284
v 0.208278 -0.014272 -0.019070
v 0.262462 0.008520 -0.041809
v 0.029520 -0.015909 0.015642
v -0.168529 -0.020045 -0.045006
v -0.146784 -0.029418 0.066889
v -0.142654 -0.015763 0.239669
v 0.197078 -0.009159 0.191305
v 0.065958 -0.008208 0.229514
v 0.250985 0.006580 0.176094
v 0.219976 0.034204 0.274039
v 0.176407 0.025771 0.305643
v 0.114028 0.033224 0.336369
v 0.073261 0.034008 0.338134
v 0.261740 0.350503 -0.207087
v 0.269303 0.410754 -0.005402
v 0.262188 0.331643 -0.002253
v 0.227575 0.361843 0.155017
v 0.238905 0.328236 0.169056
v 0.101135 0.663321 0.324358
v 0.044665 0.677347 0.341922
v 0.035329 0.668102 0.276913
v 0.101115 0.674529 0.352182
v 0.166871 0.668354 0.313276
v 0.254582 0.706239 0.331932
v 0.188347 0.646245 0.353809
v 0.066042 0.651823 0.379589
v 0.041907 0.633418 0.397564
v 0.118309 0.619077 0.370354
v 0.130457 0.572088 0.385801
v 0.188121 0.585025 0.331152
v 0.196170 0.625514 0.336964
v 0.180692 0.528801 0.352463
v 0.095569 0.575532 0.410800
v 0.142719 0.516055 0.393280
v 0.041458 0.543050 0.470077
v 0.138395 0.483613 0.398510
v 0.079925 0.480474 0.456395
v 0.031932 0.576612 0.460625
v 0.002768 0.657193 0.351351
v -0.033220 0.614008 0.429103
v 0.024809 0.613738 0.430210
v 0.004293 0.676555 0.306416
v 0.029095 0.676022 0.301703
v -0.003400 0.662870 0.243792
v 0.012543 0.562903 0.460901
v -0.053776 0.639106 0.376425
v 0.042115 0.507154 0.477345
v 0.004343 0.515165 0.479363
v 0.060512 0.444445 0.468297
v 0.085455 0.444952 0.450312
v -0.016224 0.489289 0.490875
v -0.110391 0.479695 0.484917
v -0.155848 0.490201 0.474675
v -0.130027 0.392827 0.448238
v -0.157216 0.381425 0.408667
v -0.070458 0.525447 0.444321
v -0.084580 0.590590 0.423636
v -0.095459 0.534329 0.440044
v -0.111829 0.617543 0.403324
v -0.126282 0.558855 0.437748
v -0.091384 0.640318 0.351900
v -0.079644 0.651704 0.258326
v -0.156612 0.616171 0.308791
v -0.156939 0.586349 0.354189
v -0.139331 0.532577 0.427917
v -0.069634 0.644023 0.209918
v -0.015511 0.643578 0.211064
v -0.048583 0.612832 0.130202
v -0.173869 0.474947 0.436871
v -0.177450 0.612927 0.254563
v -0.142334 0.523311 0.399203
v -0.209068 0.461060 0.350937
v -0.197428 0.407335 0.356085
v -0.228546 0.450521 0.288820
v -0.232894 0.479814 0.277431
v -0.182003 0.489705 0.381063
v -0.211923 0.499866 0.330554
v -0.190434 0.530944 0.311041
v -0.171906 0.578262 0.314181
v -0.173299 0.572300 0.261450
v -0.223738 0.506238 0.227028
v -0.189224 0.538652 0.206497
v -0.224195 0.489384 0.217438
v -0.224601 0.448982 0.229949
v -0.216893 0.457704 0.211208
v -0.178197 0.571522 0.221915
v -0.174166 0.559510 0.181514
v -0.167034 0.515540 0.181284
v -0.181463 0.608877 0.161773
v -0.174852 0.624098 0.183548
v -0.079173 0.646951 0.135337
v -0.157549 0.643415 0.097363
v -0.108884 0.658661 0.089293
v -0.162195 0.672043 0.049835
v -0.155448 0.582883 0.128799
v -0.152468 0.537331 0.146744
v -0.170326 0.436249 0.151500
v -0.180352 0.480415 0.186659
v -0.189395 0.417108 0.164069
v -0.175822 0.448020 0.190369
v -0.149239 0.431745 0.196939
v -0.147854 0.409634 0.207495
v -0.139682 0.349733 0.239626
v -0.136093 0.559581 0.097371
v -0.100438 0.587127 0.096598
v -0.106135 0.570357 0.076773
v -0.179811 0.520926 0.123116
v -0.195056 0.416425 0.122312
v -0.214187 0.395785 0.061363
v -0.142997 0.537781 0.029633
v -0.173020 0.493232 0.043120
v -0.195722 0.428988 0.041748
v -0.187597 0.483917 -0.102585
v -0.257800 0.491562 -0.291250
v -0.142947 0.523480 -0.112041
v -0.152642 0.570424 -0.299990
v -0.111630 0.549924 0.017653
v -0.098424 0.558284 -0.122985
v 0.004546 0.567111 -0.004987
v -0.041183 0.573702 0.052144
v 0.009171 0.562188 0.045572
v 0.080424 0.550343 0.031392
v -0.020176 0.598988 -0.140532
v 0.082581 0.581348 -0.041753
v 0.155807 0.547669 0.008722
v 0.119559 0.536223 0.111735
v 0.156123 0.501589 0.114346
v 0.055942 0.608214 -0.139384
v 0.199302 0.525365 0.017715
v 0.197796 0.423595 0.126324
v 0.241801 0.480608 0.004426
v 0.167887 0.578249 -0.235997
v 0.124196 0.604915 -0.237540
v 0.040549 0.626803 -0.280502
v 0.139466 0.594027 -0.331541
v 0.054182 0.610363 -0.391554
v -0.015071 0.610681 -0.392601
v -0.023929 0.622384 -0.295888
v -0.173809 0.561749 -0.388409
v -0.026857 0.567946 -0.479919
v -0.159899 0.530952 -0.464696
v -0.049504 0.523545 -0.545744
v -0.229623 0.508027 -0.429203
v -0.255773 0.502477 -0.358913
v -0.284264 0.450788 -0.383758
v -0.266061 0.378009 -0.494876
v -0.318645 0.351729 -0.413686
v -0.272214 0.292317 -0.519347
v -0.313578 0.227565 -0.432520
v -0.300818 0.426451 -0.272186
v -0.322403 0.369433 -0.268165
v -0.273529 0.405232 -0.105070
v -0.341374 0.266089 -0.299296
v -0.328040 0.122306 -0.326777
v -0.300375 0.095154 -0.423375
v -0.263344 0.018621 -0.405026
v -0.268418 0.017162 -0.306272
v -0.248163 0.014371 -0.144131
v -0.313203 0.178748 -0.146093
v -0.220166 0.008920 -0.042609
v -0.295824 0.237021 0.027271
v -0.327102 0.296182 -0.110461
v -0.312496 0.353522 -0.105160
v -0.282112 0.329298 0.018943
v -0.296251 0.273765 0.031290
v -0.232465 0.348905 0.107524
v -0.213456 0.312757 0.165011
v -0.133428 0.280545 0.315662
v -0.185809 0.271584 0.230057
v -0.113720 0.323400 0.303056
v 0.000048 0.256318 0.330608
v -0.123103 0.365422 0.314480
v -0.188298 0.404843 0.261891
v -0.142888 0.371312 0.350098
v -0.197262 0.401556 0.305044
v -0.200812 0.428221 0.219900
v 0.018535 0.333793 0.376942
v 0.075611 0.287263 0.366035
v 0.091362 0.358883 0.401324
v 0.173790 0.309528 0.364846
v 0.168614 0.380592 0.381321
v 0.120795 0.424561 0.407265
v 0.176723 0.229427 0.364051
v 0.062314 0.216301 0.369478
v 0.176047 0.099476 0.342898
v 0.002674 0.167995 0.332874
v -0.088187 0.161090 0.342213
v 0.099386 0.165558 0.358726
v 0.049180 0.151023 0.335251
v 0.077563 0.122336 0.367582
v 0.024115 0.114948 0.359829
v 0.009006 0.110580 0.322569
v 0.000792 0.100535 0.330440
v 0.008670 0.100111 0.351665
v -0.135244 0.108359 0.354189
v -0.128646 0.010988 0.351116
v -0.164497 0.018449 0.320696
v -0.171427 0.101658 0.309876
v -0.186216 0.073390 0.204804
v -0.180317 -0.005713 0.228938
v -0.196572 -0.016213 0.079419
v -0.205161 0.223650 0.186627
v -0.216925 0.064447 0.073027
v -0.250516 0.187120 0.078766
v -0.090300 0.357233 0.391129
v -0.119600 0.627704 0.073042
v 0.188588 0.481502 0.354158
v 0.194271 0.529819 0.304274
v 0.222721 0.451119 0.321329
v 0.222198 0.413845 0.339348
v 0.241193 0.419032 0.255734
v 0.253882 0.372640 0.282016
v 0.196127 0.465234 0.224221
v 0.164912 0.489709 0.207659
v 0.148879 0.592885 0.255477
v 0.171800 0.568359 0.277733
v 0.188382 0.600180 0.310041
v 0.158916 0.628411 0.299526
v 0.207888 0.626780 0.315109
v 0.188261 0.652480 0.306320
v 0.110301 0.628388 0.274749
v 0.005084 0.627792 0.204099
v 0.148750 0.440823 0.390042
v 0.063196 0.387095 0.421355
v -0.225579 -0.010940 -0.294582
v -0.168553 -0.012919 -0.359938
v -0.039106 -0.011693 -0.232243
v 0.166754 -0.004466 -0.216814
v -0.061457 0.001462 -0.391324
v 0.123555 0.036855 -0.432998
v -0.189916 0.009727 -0.468776
v -0.105980 0.017642 -0.497041
v -0.257104 0.070637 -0.476614
v -0.200236 0.069647 -0.524455
v -0.266283 0.172277 -0.514912
v -0.196445 0.178623 -0.586240
v 0.085519 0.070131 -0.520998
v 0.143192 0.076883 -0.487124
v 0.173163 0.184695 -0.585431
v -0.107468 0.067361 -0.566037
v -0.058307 0.062227 -0.561227
v -0.207737 0.308355 -0.580837
v -0.092294 0.145626 -0.635728
v -0.200006 0.413331 -0.545143
v -0.086871 0.461045 -0.584977
v 0.118544 0.174631 -0.632754
v 0.021787 0.141748 -0.647886
v -0.049771 0.143627 -0.648203
v -0.060468 0.192302 -0.669856
v -0.064130 0.245175 -0.668485
v -0.060985 0.324832 -0.648936
v 0.040677 0.336265 -0.640952
v -0.032999 0.473504 -0.586748
v 0.031223 0.186606 -0.670757
v 0.031583 0.239732 -0.671249
v 0.127311 0.241725 -0.637051
v 0.183738 0.247844 -0.588053
v 0.130283 0.339533 -0.607691
v 0.197050 0.357903 -0.541488
v 0.125660 0.485322 -0.531976
v 0.181595 0.494757 -0.454464
v 0.117207 0.555820 -0.453268
v 0.039887 0.476463 -0.575675
v 0.045155 0.533045 -0.523009
v 0.196652 0.551268 -0.254594
v 0.241311 0.485538 -0.154230
v 0.220230 0.391641 0.139871
v 0.265981 0.241211 0.235363
v 0.258276 0.273257 0.320763
v 0.255266 0.189305 0.319167
v 0.247532 0.264204 0.003455
v 0.240652 0.260096 -0.099800
v 0.276531 0.173950 0.208671
v 0.233059 0.097663 0.297635
v 0.270133 0.071467 0.188514
v 0.259742 0.180377 -0.006747
v 0.275689 0.068158 -0.028637
v 0.248293 0.085342 -0.199790
v 0.247516 0.250944 -0.262658
v 0.228087 0.227169 -0.491936
v 0.216265 0.165715 -0.452012
v 0.241748 0.182205 -0.242633
v 0.184741 0.077311 -0.409771
v 0.237236 0.072482 -0.239440
v 0.158235 0.030551 -0.382197
v 0.220068 0.015843 -0.235909
v -0.128702 0.375994 0.404862
vn 0.9554 0.2539 -0.1510
vn 0.9534 0.2599 -0.1530
vn 0.9526 0.2662 -0.1471
vn 0.5305 -0.3409 0.7761
vn 0.5291 -0.2374 0.8147
vn 0.4782 -0.2352 0.8462
vn 0.1700 -0.6209 0.7652
vn 0.1551 -0.6214 0.7680
vn 0.1392 -0.6220 0.7706
vn 0.1524 -0.6210 0.7688
vn 0.3329 -0.9323 -0.1412
vn 0.3204 -0.9373 -0.1371
vn 0.3412 -0.9280 -0.1495
vn -0.0138 -0.9958 -0.0909
vn -0.0066 -0.9967 -0.0807
vn 0.0339 -0.9985 -0.0426
vn 0.0492 -0.9977 -0.0463
vn 0.0794 -0.9906 -0.1114
vn 0.0638 -0.9942 -0.0870
vn 0.0492 -0.9945 -0.0929
vn 0.0996 -0.9923 0.0737
vn 0.1105 -0.9879 0.1092
vn 0.0981 -0.9923 0.0761
vn 0.0140 -0.9996 0.0250
vn 0.0034 -0.9995 0.0316
vn 0.0068 -0.9999 0.0115
vn 0.0376 -0.9989 0.0296
vn 0.0323 -0.9991 0.0281
vn 0.0403 -0.9988 0.0290
vn 0.0031 -0.9994 0.0355
vn -0.0122 -0.9993 0.0343
vn 0.0039 -0.9995 0.0300
vn 0.2741 -0.9613 0.0274
vn 0.2967 -0.9546 0.0250
vn 0.2903 -0.9556 0.0512
vn 0.3906 -0.9205 -0.0077
vn 0.3995 -0.9165 0.0220
vn 0.3906 -0.9202 0.0265
vn 0.3542 -0.8686 0.3466
vn 0.3665 -0.8585 0.3586
vn 0.3380 -0.8657 0.3693
vn 0.3997 -0.8558 0.3284
vn 0.4112 -0.8523 0.3234
vn 0.4080 -0.8444 0.3473
vn 0.0333 -0.9545 0.2963
vn 0.0282 -0.9498 0.3115
vn 0.0218 -0.9554 0.2946
vn 0.0877 -0.9419 0.3242
vn 0.0935 -0.9409 0.3255
vn 0.0774 -0.9386 0.3361
vn -0.0035 -0.9321 0.3621
vn 0.0052 -0.9361 0.3517
vn -0.0005 -0.9301 0.3673
vn 0.3341 -0.8840 0.3270
vn 0.3287 -0.8918 0.3108
vn 0.3613 -0.8651 0.3479
vn 0.0609 -0.9823 0.1771
vn 0.0485 -0.9749 0.2173
vn 0.0426 -0.9744 0.2210
vn 0.0131 -0.9833 0.1813
vn 0.0516 -0.9828 0.1773
vn 0.0557 -0.9790 0.1961
vn 0.9955 0.0755 -0.0578
vn 0.9954 0.0749 -0.0597
vn 0.9926 0.0669 -0.1013
vn 0.9912 -0.1302 -0.0231
vn 0.9941 -0.0593 -0.0909
vn 0.9959 -0.0902 -0.0085
vn 0.9889 -0.0620 0.1353
vn 0.9690 0.0060 0.2468
vn 0.9597 -0.1022 0.2619
vn 0.9487 0.3106 0.0584
vn 0.8919 0.4499 0.0453
vn 0.9008 0.3771 0.2154
vn 0.1788 0.9701 -0.1639
vn 0.1892 0.9680 -0.1648
vn 0.1106 0.9257 -0.3618
vn 0.1135 0.9216 -0.3712
vn -0.1227 0.9216 -0.3683
vn -0.1328 0.9193 -0.3704
vn -0.2381 0.8129 -0.5314
vn 0.0704 0.2722 0.9597
vn 0.1883 0.6243 0.7582
vn -0.0660 0.8082 0.5851
vn -0.1415 0.7804 0.6091
vn 0.2084 0.0573 0.9764
vn 0.1999 0.0753 0.9769
vn 0.3848 0.3765 0.8427
vn 0.3802 0.3853 0.8409
vn 0.3788 0.3603 0.8525
vn 0.3641 0.3610 0.8585
vn 0.3567 0.3678 0.8588
vn 0.5829 0.3853 0.7154
vn 0.6021 0.3733 0.7057
vn 0.5904 0.3930 0.7050
vn 0.4180 -0.2086 0.8842
vn 0.3957 -0.2041 0.8954
vn 0.4000 -0.2077 0.8927
vn 0.6505 0.1866 0.7363
vn 0.6597 0.1897 0.7272
vn 0.6488 0.2539 0.7173
vn 0.5019 0.6063 0.6169
vn 0.4931 0.6096 0.6207
vn 0.5816 0.2314 0.7798
vn 0.5773 0.2241 0.7852
vn 0.6263 0.2825 0.7266
vn 0.6114 0.0459 0.7900
vn 0.6719 0.2615 0.6929
vn 0.4977 0.6038 0.6226
vn 0.5769 0.3690 0.7288
vn -0.2357 0.7684 0.5950
vn -0.2249 0.7733 0.5928
vn -0.0248 0.8803 0.4738
vn -0.0275 0.8792 0.4756
vn -0.0204 0.8746 0.4843
vn 0.4938 0.6058 0.6238
vn -0.0024 0.8580 0.5137
vn -0.0058 0.8577 0.5140
vn -0.0118 0.6323 0.7746
vn -0.0088 0.6311 0.7756
vn -0.3363 0.8690 0.3630
vn -0.3361 0.8675 0.3667
vn -0.3356 0.8738 0.3519
vn 0.0142 0.9992 -0.0384
vn 0.0173 0.9992 -0.0361
vn -0.0154 0.9771 -0.2124
vn -0.0191 0.9773 -0.2112
vn -0.0129 0.9798 -0.1997
vn -0.1482 0.2289 0.9621
vn -0.2361 0.3521 0.9057
vn -0.2338 0.3500 0.9071
vn -0.0868 0.8814 0.4643
vn -0.0770 0.8865 0.4563
vn -0.0815 0.8885 0.4516
vn -0.1303 0.9100 0.3937
vn -0.1216 0.9117 0.3924
vn -0.1154 0.9151 0.3864
vn 0.5681 0.1733 0.8045
vn -0.0431 0.3668 0.9293
vn 0.0944 0.1992 0.9754
vn 0.4953 0.0200 0.8685
vn 0.4951 0.0213 0.8686
vn 0.5848 -0.0476 0.8098
vn 0.5856 -0.0467 0.8093
vn 0.5843 -0.0473 0.8102
vn 0.2450 -0.0677 0.9672
vn 0.2440 -0.0669 0.9675
vn 0.1187 0.3233 0.9388
vn 0.1515 -0.2253 0.9624
vn 0.1503 -0.2254 0.9626
vn -0.0388 -0.2239 0.9738
vn -0.0343 -0.2262 0.9735
vn -0.0985 0.4723 0.8759
vn -0.1035 0.4718 0.8756
vn 0.0071 -0.1324 0.9912
vn 0.0047 -0.1472 0.9891
vn 0.0061 -0.1520 0.9884
vn -0.2680 -0.1934 0.9438
vn -0.2651 -0.2057 0.9420
vn -0.2558 -0.2111 0.9434
vn -0.4360 -0.3341 0.8356
vn -0.4535 -0.3415 0.8233
vn -0.4381 -0.3481 0.8288
vn -0.7203 -0.3588 0.5937
vn -0.7173 -0.3516 0.6015
vn -0.7273 -0.3464 0.5924
vn -0.3282 0.3925 0.8592
vn -0.3463 0.3895 0.8534
vn -0.1924 0.7305 0.6553
vn -0.1935 0.7432 0.6404
vn -0.1983 0.7416 0.6408
vn -0.2817 0.2491 0.9266
vn -0.2901 0.2319 0.9285
vn -0.2512 0.3392 0.9066
vn -0.2533 0.3365 0.9070
vn 0.0886 0.6214 0.7785
vn 0.0679 0.6141 0.7863
vn 0.0966 0.6103 0.7862
vn -0.0250 0.6425 0.7659
vn -0.0306 0.6284 0.7773
vn -0.0193 0.6380 0.7698
vn -0.0521 0.3013 0.9521
vn -0.0729 0.3037 0.9500
vn -0.0603 0.2902 0.9551
vn -0.2712 0.3892 0.8803
vn -0.2745 0.3890 0.8794
vn -0.1122 0.8794 0.4628
vn -0.1141 0.8805 0.4601
vn -0.1139 0.8768 0.4672
vn 0.1309 0.2542 0.9583
vn 0.1225 0.2654 0.9563
vn 0.2355 0.3797 0.8946
vn 0.2400 0.3835 0.8918
vn 0.2228 0.3761 0.8994
vn -0.1122 0.5232 0.8448
vn -0.1882 0.9235 0.3342
vn -0.1935 0.9225 0.3339
vn -0.1895 0.9225 0.3362
vn -0.1907 0.9241 0.3312
vn -0.1928 0.9212 0.3380
vn -0.3221 0.9438 0.0744
vn -0.3255 0.9427 0.0728
vn -0.1775 0.9658 -0.1892
vn -0.1783 0.9649 -0.1930
vn -0.1764 0.9684 -0.1762
vn -0.4551 0.8670 0.2030
vn -0.3834 0.9214 0.0640
vn -0.7820 0.4472 0.4341
vn -0.7608 0.5449 0.3525
vn -0.9033 0.4241 0.0653
vn -0.9010 0.4293 0.0621
vn -0.8686 0.2779 0.4101
vn -0.1776 0.9656 -0.1899
vn -0.1906 0.9636 -0.1877
vn -0.1771 0.9659 -0.1890
vn -0.0112 0.8634 -0.5044
vn 0.0190 0.8586 -0.5124
vn 0.0065 0.8550 -0.5187
vn -0.0014 0.9230 -0.3848
vn 0.0124 0.9533 -0.3019
vn 0.0162 0.9322 -0.3615
vn -0.8304 0.5261 0.1835
vn -0.8293 0.5296 0.1781
vn -0.8100 -0.2968 0.5059
vn -0.8099 -0.2917 0.5089
vn -0.8122 -0.2996 0.5005
vn -0.3532 0.9102 -0.2164
vn -0.3525 0.9102 -0.2173
vn -0.3701 0.9249 0.0869
vn -0.9817 -0.1253 0.1431
vn -0.9840 -0.1079 0.1420
vn -0.8604 0.5044 -0.0728
vn -0.8620 0.5040 -0.0553
vn -0.8549 -0.2924 0.4287
vn -0.8738 -0.2711 0.4037
vn -0.8727 -0.2767 0.4022
vn -0.8049 -0.1553 0.5728
vn -0.8142 -0.1148 0.5691
vn -0.8194 -0.1187 0.5608
vn -0.9347 -0.1636 0.3154
vn -0.9357 -0.1942 0.2945
vn -0.9224 -0.1793 0.3421
vn -0.9630 -0.0203 0.2689
vn -0.9487 -0.0480 0.3126
vn -0.9469 -0.0093 0.3214
vn -0.8055 0.5201 0.2840
vn -0.8222 0.5092 0.2545
vn -0.8360 0.4915 0.2440
vn -0.6855 0.6630 0.3009
vn -0.6917 0.6669 0.2772
vn -0.7020 0.6537 0.2825
vn -0.8326 0.2198 0.5083
vn -0.8186 0.2154 0.5325
vn -0.8052 0.2490 0.5381
vn -0.6632 0.5458 0.5121
vn -0.6927 0.5188 0.5010
vn -0.6774 0.5280 0.5122
vn -0.9432 0.1297 0.3059
vn -0.9388 0.1009 0.3294
vn -0.9296 0.0987 0.3552
vn -0.6164 0.6799 0.3972
vn -0.6307 0.6748 0.3834
vn -0.6199 0.6611 0.4226
vn -0.8474 0.1559 0.5076
vn -0.8705 0.1509 0.4686
vn -0.8632 0.1453 0.4835
vn -0.7839 0.6113 0.1089
vn -0.7930 0.6037 0.0819
vn -0.8117 0.5778 0.0857
vn -0.8846 0.3927 0.2516
vn -0.8754 0.4029 0.2672
vn -0.8895 0.3615 0.2796
vn -0.9026 0.3355 0.2698
vn -0.9067 0.3169 0.2783
vn -0.9322 -0.0342 0.3603
vn -0.9073 0.0469 0.4178
vn -0.9210 0.3884 -0.0282
vn -0.9281 0.3719 -0.0175
vn -0.9159 0.3930 0.0820
vn -0.8958 0.3482 0.2764
vn -0.9042 0.3563 0.2357
vn -0.9136 0.3222 0.2479
vn -0.8018 0.5718 0.1737
vn -0.7917 0.5886 0.1636
vn -0.8218 0.5546 0.1303
vn -0.8791 0.4765 -0.0096
vn -0.8851 0.4627 -0.0499
vn -0.9205 0.3832 -0.0767
vn -0.7249 0.6795 -0.1126
vn -0.7042 0.6966 -0.1371
vn -0.7243 0.6723 -0.1532
vn -0.9823 0.1112 -0.1505
vn -0.9901 0.0821 -0.1136
vn -0.9873 0.1095 -0.1148
vn -0.7191 0.3491 -0.6008
vn -0.6976 0.3797 -0.6076
vn -0.6976 0.3517 -0.6242
vn -0.9899 -0.0439 -0.1349
vn -0.9882 -0.0323 -0.1500
vn -0.9840 -0.0324 -0.1750
vn -0.8953 -0.1388 -0.4233
vn -0.8999 -0.1150 -0.4205
vn -0.8950 -0.1211 -0.4293
vn -0.9841 -0.1678 -0.0580
vn -0.9855 -0.1513 -0.0770
vn -0.9793 -0.1846 -0.0831
vn -0.9568 0.2678 0.1133
vn -0.9501 0.2851 0.1266
vn -0.9669 0.2547 0.0122
vn -0.9890 -0.0800 0.1241
vn -0.9966 0.0127 0.0811
vn -0.8940 0.3972 -0.2073
vn -0.8942 0.3972 -0.2065
vn -0.8837 0.4160 -0.2146
vn -0.7996 -0.1271 -0.5870
vn -0.7993 -0.1266 -0.5874
vn -0.7854 -0.1299 -0.6052
vn -0.9989 -0.0166 0.0439
vn -0.9985 -0.0194 0.0507
vn -0.9852 -0.1645 -0.0492
vn -0.9850 -0.1653 -0.0491
vn -0.9842 -0.1714 -0.0453
vn -0.9291 0.3691 0.0241
vn -0.9283 0.3705 0.0312
vn -0.2199 0.9648 0.1439
vn -0.2188 0.9651 0.1438
vn -0.2020 0.9773 0.0633
vn -0.2012 0.9775 0.0641
vn -0.1362 0.9722 0.1906
vn -0.8755 0.4783 -0.0686
vn -0.8724 0.4843 -0.0658
vn -0.2208 0.9017 0.3718
vn -0.1755 0.8356 0.5205
vn -0.8478 -0.2673 -0.4581
vn -0.8446 -0.2660 -0.4646
vn -0.8494 -0.2989 -0.4350
vn -0.8460 -0.3049 -0.4374
vn -0.8496 -0.2993 -0.4344
vn -0.8775 -0.1407 -0.4586
vn -0.9135 -0.1269 -0.3866
vn -0.8776 -0.1400 -0.4584
vn -0.8841 -0.2202 -0.4122
vn -0.8844 -0.2200 -0.4116
vn -0.9025 -0.1408 -0.4070
vn -0.8912 0.3543 -0.2833
vn -0.9414 0.1522 -0.3010
vn -0.9635 0.0915 -0.2515
vn -0.8200 0.2308 -0.5237
vn -0.8051 0.4142 -0.4245
vn -0.8095 0.1976 -0.5529
vn -0.7293 0.2786 -0.6250
vn -0.7980 0.4141 -0.4378
vn -0.7097 0.3428 -0.6155
vn -0.8493 -0.1056 0.5173
vn -0.8506 -0.0372 0.5245
vn -0.9027 0.2712 0.3340
vn -0.4723 -0.7235 0.5034
vn -0.4505 -0.4310 0.7818
vn -0.6450 -0.4486 0.6186
vn -0.6472 0.2906 0.7048
vn -0.6810 0.3111 0.6630
vn -0.7097 0.0573 0.7021
vn -0.6870 0.3310 0.6468
vn -0.6937 0.2530 0.6744
vn -0.6526 0.2706 0.7077
vn -0.8766 -0.1618 -0.4531
vn -0.8946 -0.2133 -0.3928
vn -0.8964 -0.2138 -0.3882
vn -0.4498 0.5663 -0.6907
vn -0.4496 0.5625 -0.6939
vn -0.5555 0.7067 -0.4382
vn -0.5563 0.7073 -0.4361
vn -0.5514 0.7094 -0.4391
vn -0.6902 0.3538 0.6313
vn -0.7281 0.0830 0.6805
vn -0.6826 0.1547 0.7142
vn -0.6053 0.7805 0.1561
vn -0.5855 0.7965 0.1509
vn -0.6355 0.7679 0.0806
vn -0.6757 0.7352 0.0543
vn -0.8134 0.5715 0.1084
vn -0.6780 0.7298 0.0878
vn -0.9027 0.0974 0.4192
vn -0.7933 0.0903 0.6020
vn -0.7899 0.1153 0.6023
vn -0.8748 0.4771 0.0841
vn -0.8725 0.4775 0.1038
vn -0.8685 0.4824 0.1142
vn -0.7055 0.6915 -0.1552
vn -0.7019 0.6994 -0.1347
vn -0.6927 0.7011 -0.1692
vn -0.4551 0.8640 -0.2153
vn -0.4616 0.8562 -0.2320
vn -0.4666 0.8545 -0.2282
vn -0.9850 0.1368 -0.1047
vn -0.9794 0.1517 -0.1335
vn -0.9822 0.1241 -0.1408
vn -0.8437 0.4875 -0.2249
vn -0.8276 0.5142 -0.2250
vn -0.8332 0.4870 -0.2618
vn -0.9498 0.3049 0.0698
vn -0.9266 0.3660 0.0862
vn -0.9402 0.3365 0.0538
vn -0.8543 0.5034 0.1296
vn -0.8449 0.5274 0.0891
vn -0.8475 0.5245 0.0810
vn -0.9311 0.3624 0.0407
vn -0.9488 0.3117 0.0518
vn -0.9403 0.3309 0.0789
vn -0.8316 0.5532 0.0493
vn -0.8202 0.5697 0.0513
vn -0.8122 0.5830 0.0224
vn -0.8433 0.5167 0.1477
vn -0.8182 0.5494 0.1694
vn -0.8167 0.5544 0.1605
vn -0.6528 0.7017 0.2854
vn -0.6555 0.7060 0.2682
vn -0.6576 0.7008 0.2765
vn -0.6752 0.7321 -0.0907
vn -0.6755 0.7338 -0.0722
vn -0.6657 0.7424 -0.0747
vn -0.6043 0.7498 0.2697
vn -0.6108 0.7507 0.2515
vn -0.6144 0.7478 0.2516
vn -0.5629 0.7924 0.2352
vn -0.5731 0.7896 0.2190
vn -0.5721 0.7859 0.2346
vn -0.4170 0.8699 -0.2634
vn -0.4338 0.8626 -0.2602
vn -0.4955 0.8375 -0.2305
vn -0.4087 0.8983 -0.1612
vn -0.3898 0.9170 -0.0851
vn -0.3891 0.9146 -0.1104
vn -0.6007 0.7681 0.2218
vn -0.5620 0.7929 0.2354
vn -0.5590 0.7981 0.2247
vn -0.6097 0.7882 -0.0840
vn -0.6299 0.7761 0.0304
vn -0.6148 0.7887 -0.0045
vn -0.1563 0.9871 0.0342
vn -0.1139 0.9899 0.0838
vn -0.0665 0.9974 0.0295
vn -0.1640 0.9364 -0.3104
vn -0.1676 0.9364 -0.3083
vn -0.1565 0.9583 -0.2390
vn -0.1270 0.9645 -0.2316
vn -0.1919 0.9452 -0.2642
vn -0.2114 0.9440 -0.2534
vn -0.2144 0.8651 -0.4536
vn -0.2267 0.8320 -0.5064
vn -0.2179 0.8651 -0.4519
vn 0.2093 0.9766 0.0498
vn 0.2216 0.9707 0.0933
vn 0.2334 0.9697 0.0719
vn 0.1870 0.9773 0.0996
vn 0.2012 0.9780 0.0552
vn 0.0603 0.9948 0.0817
vn -0.4624 0.8671 0.1856
vn -0.4141 0.8889 0.1959
vn -0.4189 0.8963 0.1455
vn -0.4008 0.8794 0.2570
vn -0.4006 0.8580 0.3215
vn -0.3524 0.8935 0.2785
vn 0.0379 0.9180 0.3947
vn -0.0687 0.9479 0.3112
vn 0.0077 0.9135 0.4068
vn 0.1592 0.9006 0.4043
vn 0.1909 0.9402 0.2822
vn 0.1306 0.9120 0.3888
vn 0.0822 0.9931 0.0836
vn 0.0638 0.9865 0.1511
vn 0.1939 0.9703 0.1448
vn 0.6323 0.7310 0.2564
vn 0.6409 0.6966 0.3225
vn 0.6834 0.6715 0.2863
vn -0.0453 0.9594 0.2784
vn -0.0276 0.9644 0.2630
vn -0.0639 0.9602 0.2720
vn -0.0753 0.9614 0.2646
vn -0.1158 0.9670 0.2269
vn -0.1222 0.9609 0.2486
vn 0.2979 0.9411 0.1601
vn 0.3118 0.9340 0.1742
vn 0.3228 0.9334 0.1568
vn 0.3796 0.8682 0.3194
vn 0.3284 0.8586 0.3936
vn 0.3736 0.8449 0.3828
vn 0.7395 0.5166 0.4316
vn 0.7469 0.4527 0.4870
vn 0.7873 0.4269 0.4448
vn 0.7053 0.5459 0.4523
vn 0.6875 0.5103 0.5168
vn 0.7164 0.4826 0.5039
vn 0.4042 0.9084 0.1072
vn 0.4304 0.8928 0.1328
vn 0.4418 0.8893 0.1179
vn 0.5119 0.8516 0.1126
vn 0.5131 0.8482 0.1313
vn 0.5165 0.8457 0.1345
vn 0.2951 0.9416 0.1621
vn 0.3012 0.9356 0.1840
vn 0.3042 0.9355 0.1797
vn 0.1952 0.9748 0.1080
vn 0.2013 0.9736 0.1077
vn 0.2010 0.9740 0.1045
vn -0.1214 0.9821 0.1443
vn -0.0905 0.9902 0.1068
vn -0.1222 0.9825 0.1408
vn 0.2835 0.9568 -0.0645
vn 0.2852 0.9563 -0.0650
vn 0.2811 0.9572 -0.0694
vn 0.2608 0.9591 -0.1099
vn 0.2610 0.9591 -0.1093
vn 0.2618 0.9587 -0.1114
vn 0.0061 0.9893 -0.1456
vn 0.0084 0.9898 -0.1424
vn 0.0063 0.9891 -0.1473
vn -0.1047 0.9829 0.1516
vn -0.1023 0.9803 0.1690
vn -0.0992 0.9897 0.1033
vn -0.0202 0.9926 -0.1199
vn -0.0399 0.9914 -0.1244
vn -0.0388 0.9920 -0.1199
vn -0.3977 0.9114 0.1054
vn -0.3915 0.9083 0.1470
vn -0.3664 0.9187 0.1474
vn -0.3693 0.9183 -0.1428
vn -0.3595 0.9211 -0.1493
vn -0.3653 0.9165 -0.1633
vn -0.2985 0.9541 -0.0230
vn -0.2856 0.9582 -0.0181
vn -0.2967 0.9544 -0.0314
vn -0.2815 0.8767 -0.3900
vn -0.2702 0.8780 -0.3951
vn -0.2810 0.8749 -0.3944
vn -0.2892 0.8684 -0.4028
vn -0.2877 0.8697 -0.4011
vn -0.2825 0.8660 -0.4126
vn -0.2840 0.8376 -0.4666
vn -0.2870 0.8363 -0.4672
vn -0.2892 0.8374 -0.4639
vn -0.4686 0.7820 -0.4110
vn -0.4663 0.7881 -0.4018
vn -0.4621 0.7898 -0.4033
vn -0.5545 0.8298 0.0635
vn -0.5779 0.8144 0.0527
vn -0.5741 0.8161 0.0671
vn -0.6159 0.7701 -0.1665
vn -0.6004 0.7797 -0.1778
vn -0.6254 0.7619 -0.1687
vn -0.5873 0.7984 0.1327
vn -0.5807 0.8072 0.1056
vn -0.5971 0.7944 0.1117
vn -0.7868 0.5543 -0.2715
vn -0.7931 0.5561 -0.2484
vn -0.7909 0.5585 -0.2501
vn -0.8838 0.4651 0.0500
vn -0.8850 0.4643 0.0348
vn -0.8943 0.4451 0.0461
vn -0.7997 0.4343 -0.4145
vn -0.7985 0.4347 -0.4163
vn -0.8011 0.4316 -0.4147
vn -0.8217 0.4061 -0.3999
vn -0.8198 0.4098 -0.4000
vn -0.8212 0.4049 -0.4020
vn -0.8486 0.2006 -0.4896
vn -0.8509 0.1992 -0.4862
vn -0.8520 0.2032 -0.4825
vn -0.9118 0.0241 -0.4098
vn -0.9098 0.0257 -0.4143
vn -0.9085 0.0235 -0.4173
vn -0.8350 0.5502 -0.0019
vn -0.8243 0.5635 -0.0549
vn -0.8403 0.5420 -0.0129
vn -0.9348 0.3439 -0.0892
vn -0.9369 0.3432 -0.0664
vn -0.9362 0.3460 -0.0622
vn -0.9522 0.2986 -0.0643
vn -0.9353 0.3485 -0.0609
vn -0.9281 0.3638 -0.0793
vn -0.7947 0.5700 0.2088
vn -0.7573 0.6234 0.1945
vn -0.7879 0.5934 0.1646
vn -0.9037 0.3805 0.1964
vn -0.9200 0.3600 0.1552
vn -0.9044 0.3482 0.2467
vn -0.6527 0.7019 0.2853
vn -0.6232 0.7248 0.2938
vn -0.6536 0.7077 0.2684
vn -0.9794 -0.0134 -0.2017
vn -0.9794 -0.0094 -0.2016
vn -0.9791 -0.0084 -0.2032
vn -0.9793 0.1964 -0.0486
vn -0.9831 0.1737 -0.0583
vn -0.9802 0.1925 -0.0456
vn -0.9805 -0.0549 -0.1887
vn -0.9803 -0.0530 -0.1902
vn -0.9801 -0.0556 -0.1905
vn -0.9632 -0.1129 -0.2441
vn -0.9649 -0.0969 -0.2440
vn -0.9625 -0.1132 -0.2464
vn -0.8836 -0.4519 -0.1227
vn -0.8802 -0.4577 -0.1256
vn -0.8848 -0.4532 -0.1087
vn -0.8655 -0.4988 -0.0471
vn -0.8679 -0.4938 -0.0546
vn -0.8632 -0.5023 -0.0516
vn -0.8737 -0.4742 0.1086
vn -0.8747 -0.4755 0.0942
vn -0.8728 -0.4771 0.1027
vn -0.9130 -0.3636 0.1852
vn -0.9139 -0.3590 0.1897
vn -0.9166 -0.3559 0.1821
vn -0.9864 -0.1157 0.1164
vn -0.9868 -0.1115 0.1173
vn -0.9872 -0.1138 0.1118
vn -0.9155 -0.3437 0.2090
vn -0.9037 -0.3598 0.2322
vn -0.9080 -0.3492 0.2312
vn -0.9160 -0.3415 0.2105
vn -0.9006 -0.3830 0.2053
vn -0.9044 -0.3666 0.2184
vn -0.9841 -0.1470 0.0994
vn -0.9853 -0.1421 0.0952
vn -0.9846 -0.1476 0.0933
vn -0.9859 0.1535 0.0671
vn -0.9847 0.1668 0.0498
vn -0.9848 0.1679 0.0436
vn -0.9744 -0.1661 0.1517
vn -0.9753 -0.1577 0.1550
vn -0.9772 -0.1656 0.1328
vn -0.7880 0.6021 0.1286
vn -0.7791 0.6221 0.0773
vn -0.8118 0.5789 0.0763
vn -0.9661 0.2357 0.1050
vn -0.9665 0.2434 0.0817
vn -0.9758 0.2125 0.0522
vn -0.7624 0.5740 0.2987
vn -0.7815 0.5409 0.3109
vn -0.7372 0.5925 0.3248
vn -0.9373 0.1822 0.2970
vn -0.9368 0.2158 0.2755
vn -0.9384 0.2139 0.2715
vn -0.7565 0.5798 0.3026
vn -0.7592 0.5778 0.2996
vn -0.7533 0.5635 0.3391
vn -0.9234 0.2899 0.2516
vn -0.9227 0.2995 0.2429
vn -0.9245 0.2903 0.2471
vn -0.9767 -0.0357 0.2116
vn -0.9812 -0.0228 0.1915
vn -0.9797 -0.0353 0.1974
vn -0.7560 0.5846 0.2943
vn -0.7583 0.5810 0.2958
vn -0.8570 0.3098 0.4118
vn -0.8519 0.3171 0.4168
vn -0.8909 0.4434 0.0980
vn -0.8805 0.4582 0.1218
vn -0.8807 0.4589 0.1173
vn -0.8825 0.2073 0.4222
vn -0.8835 0.2377 0.4038
vn -0.8903 0.1822 0.4174
vn -0.8523 0.2671 0.4498
vn -0.8469 0.2703 0.4580
vn -0.8671 0.2714 0.4178
vn -0.7834 0.1905 0.5916
vn -0.7349 0.1554 0.6601
vn -0.7240 0.2047 0.6588
vn -0.7109 0.4754 0.5182
vn -0.7342 0.4745 0.4855
vn -0.7693 0.4134 0.4870
vn -0.8764 0.1841 0.4450
vn -0.8652 0.1454 0.4798
vn -0.8539 0.1807 0.4881
vn -0.8904 -0.0677 0.4502
vn -0.8711 -0.0731 0.4856
vn -0.8707 -0.0443 0.4899
vn -0.8280 0.2014 0.5233
vn -0.8473 0.2449 0.4714
vn -0.8458 0.2136 0.4889
vn -0.7766 0.4582 0.4325
vn -0.7092 0.4399 0.5510
vn -0.7240 0.4832 0.4923
vn -0.0472 0.3066 0.9507
vn -0.0596 0.3059 0.9502
vn -0.0450 0.2226 0.9739
vn -0.9007 -0.2849 0.3281
vn -0.9488 -0.1992 0.2453
vn -0.9289 -0.2985 0.2193
vn -0.4050 -0.3177 0.8573
vn -0.3807 -0.3666 0.8489
vn -0.3243 -0.3047 0.8955
vn -0.6694 -0.6569 0.3470
vn -0.6860 -0.6809 0.2564
vn -0.6207 -0.7242 0.3003
vn -0.4252 -0.9023 -0.0706
vn -0.4859 -0.8709 -0.0735
vn -0.4519 -0.8856 -0.1073
vn -0.3791 -0.9195 -0.1042
vn -0.3853 -0.9103 -0.1511
vn -0.3727 -0.9165 -0.1455
vn -0.6820 -0.7056 -0.1923
vn -0.7155 -0.6753 -0.1792
vn -0.6817 -0.7015 -0.2077
vn -0.6870 -0.7033 -0.1828
vn -0.7100 -0.6953 -0.1115
vn -0.7069 -0.6732 -0.2169
vn -0.4474 -0.3727 0.8130
vn -0.4756 -0.4190 0.7735
vn -0.4035 -0.4073 0.8193
vn -0.1791 -0.5131 0.8394
vn -0.2097 -0.4570 0.8644
vn -0.2377 -0.4660 0.8522
vn -0.0975 -0.4055 0.9089
vn -0.1754 -0.3876 0.9050
vn -0.1757 -0.4156 0.8924
vn 0.1145 -0.4755 0.8722
vn 0.1265 -0.4383 0.8899
vn 0.1139 -0.4589 0.8812
vn 0.3126 -0.2019 0.9282
vn 0.2966 -0.1941 0.9351
vn 0.2717 -0.2174 0.9375
vn 0.3182 -0.2119 0.9240
vn 0.2728 -0.2069 0.9396
vn 0.3018 -0.2192 0.9278
vn 0.0044 0.0027 1.0000
vn 0.0133 -0.0099 0.9999
vn 0.0399 -0.0082 0.9992
vn 0.0272 0.0422 0.9987
vn 0.0603 0.0218 0.9979
vn 0.0454 0.0448 0.9980
vn -0.4666 0.1333 0.8744
vn -0.4739 0.1059 0.8742
vn -0.4563 0.1303 0.8802
vn 0.0572 -0.1740 0.9831
vn 0.0702 -0.1614 0.9844
vn 0.0645 -0.1528 0.9862
vn -0.5217 -0.0000 0.8531
vn -0.5225 0.0130 0.8525
vn -0.5309 0.0047 0.8474
vn 0.1205 0.0434 0.9918
vn 0.0954 0.0354 0.9948
vn 0.0984 0.0201 0.9949
vn -0.0770 0.2140 0.9738
vn -0.0827 0.1848 0.9793
vn -0.0709 0.1863 0.9799
vn 0.0578 -0.1568 0.9859
vn 0.0667 -0.1661 0.9838
vn 0.0724 -0.1673 0.9832
vn -0.2007 -0.4184 0.8858
vn -0.2014 -0.4274 0.8814
vn -0.1914 -0.4233 0.8855
vn -0.2877 -0.3950 0.8725
vn -0.2985 -0.3897 0.8712
vn -0.2898 -0.4020 0.8686
vn 0.2573 0.0676 0.9640
vn 0.2510 0.0724 0.9653
vn 0.2536 0.0580 0.9656
vn 0.1183 -0.4475 0.8864
vn 0.1156 -0.4380 0.8915
vn 0.1104 -0.4473 0.8876
vn 0.4252 -0.1394 0.8943
vn 0.4155 -0.1346 0.8996
vn 0.4240 -0.1399 0.8948
vn -0.1198 0.3039 0.9452
vn -0.1758 0.2820 0.9432
vn -0.1842 0.2759 0.9434
vn -0.0850 -0.3602 0.9290
vn -0.0269 -0.3754 0.9265
vn -0.0856 -0.3590 0.9294
vn -0.4687 0.6926 0.5482
vn -0.4599 0.6921 0.5563
vn -0.4177 0.7348 0.5345
vn 0.0753 -0.2820 0.9565
vn 0.0466 -0.2275 0.9727
vn 0.0363 -0.2367 0.9709
vn -0.1238 -0.1878 0.9744
vn -0.1144 -0.1954 0.9740
vn -0.1113 -0.1308 0.9851
vn 0.0704 -0.1246 0.9897
vn 0.1064 -0.1684 0.9800
vn 0.1384 -0.1651 0.9765
vn -0.7263 0.6777 0.1147
vn -0.6909 0.7053 0.1588
vn -0.6979 0.7090 0.1016
vn -0.7155 0.6553 0.2421
vn -0.6837 0.6845 0.2530
vn -0.7172 0.6724 0.1832
vn 0.3450 0.4038 0.8473
vn 0.3199 0.3462 0.8820
vn 0.3870 0.3581 0.8497
vn -0.1664 -0.3335 0.9280
vn -0.1618 -0.3996 0.9023
vn -0.1026 -0.3223 0.9411
vn -0.7169 0.6204 0.3181
vn -0.7378 0.6350 0.2291
vn -0.7758 0.5781 0.2528
vn -0.4027 -0.5306 0.7459
vn -0.3522 -0.5810 0.7338
vn -0.3996 -0.4979 0.7697
vn 0.1254 -0.3647 0.9226
vn 0.0787 -0.4305 0.8991
vn 0.1080 -0.5174 0.8489
vn -0.8751 -0.3281 0.3558
vn -0.9176 -0.2011 0.3429
vn -0.8911 -0.3553 0.2824
vn 0.4277 -0.0249 0.9036
vn 0.4396 0.0239 0.8979
vn 0.3231 -0.0062 0.9463
vn 0.2406 0.1745 0.9548
vn 0.2016 0.1404 0.9693
vn 0.2527 0.1406 0.9573
vn 0.1261 0.1428 0.9817
vn 0.0950 0.1499 0.9841
vn 0.0999 0.1086 0.9890
vn -0.0984 -0.0626 0.9932
vn -0.0870 -0.0320 0.9957
vn -0.1255 -0.0290 0.9917
vn -0.0205 0.2105 0.9774
vn 0.0049 0.2132 0.9770
vn 0.0094 0.2441 0.9697
vn -0.6521 -0.0671 0.7552
vn -0.6593 -0.0433 0.7506
vn -0.6545 -0.0949 0.7501
vn -0.7775 0.1400 0.6131
vn -0.7682 0.1470 0.6231
vn -0.7917 0.1536 0.5913
vn -0.7755 0.0198 0.6311
vn -0.7873 -0.0025 0.6165
vn -0.7744 0.0037 0.6326
vn -0.8512 0.1599 0.4999
vn -0.8296 0.1590 0.5353
vn -0.8460 0.1776 0.5026
vn -0.9862 -0.0599 0.1541
vn -0.9877 -0.0656 0.1422
vn -0.9811 -0.0709 0.1799
vn -0.9848 -0.0197 0.1726
vn -0.9817 -0.0444 0.1853
vn -0.9844 -0.0002 0.1760
vn -0.9940 -0.0589 0.0919
vn -0.9898 -0.0333 0.1385
vn -0.9952 -0.0358 0.0916
vn -0.9406 0.0896 0.3276
vn -0.9388 0.0396 0.3423
vn -0.9092 0.1139 0.4005
vn -0.9832 -0.0941 0.1561
vn -0.9623 -0.1675 0.2142
vn -0.9775 -0.0921 0.1897
vn -0.9036 -0.0475 0.4257
vn -0.8810 -0.1143 0.4591
vn -0.8593 -0.0880 0.5039
vn -0.9518 -0.2237 0.2097
vn -0.9283 -0.2561 0.2697
vn -0.9474 -0.1969 0.2524
vn -0.9554 -0.2747 0.1083
vn -0.9596 -0.2282 0.1646
vn -0.9702 -0.2074 0.1253
vn -0.9276 -0.3393 0.1561
vn -0.9021 -0.3809 0.2028
vn -0.9140 -0.3429 0.2168
vn -0.8743 -0.0728 0.4799
vn -0.9156 -0.0402 0.4001
vn -0.9082 -0.1468 0.3919
vn -0.9022 -0.3353 0.2711
vn -0.9327 -0.2324 0.2758
vn -0.9433 -0.2522 0.2157
vn -0.8506 -0.2014 0.4857
vn -0.8503 -0.3052 0.4288
vn -0.8239 -0.2642 0.5014
vn -0.8709 -0.3127 0.3791
vn -0.8306 -0.2985 0.4702
vn -0.8615 -0.2148 0.4601
vn -0.4005 -0.7899 0.4644
vn -0.4084 -0.7889 0.4591
vn -0.4025 -0.7980 0.4486
vn -0.0880 -0.9930 -0.0789
vn -0.0579 -0.9979 -0.0296
vn -0.0843 -0.9940 -0.0701
vn 0.0055 0.7261 -0.6875
vn 0.0498 0.7570 -0.6516
vn 0.0487 0.7556 -0.6532
vn 0.2750 0.4256 -0.8621
vn 0.3338 0.4259 -0.8409
vn 0.7378 0.6715 -0.0691
vn 0.6996 0.7134 -0.0413
vn 0.7377 0.6717 -0.0680
vn 0.8274 0.0670 -0.5576
vn 0.8396 -0.0055 -0.5432
vn -0.3730 -0.5912 -0.7151
vn 0.6144 0.1894 -0.7659
vn -0.6056 -0.3832 -0.6974
vn -0.5541 -0.7359 -0.3891
vn 0.6721 0.2405 0.7003
vn 0.6250 0.2702 0.7324
vn 0.6771 0.2321 0.6984
vn 0.7022 0.1422 0.6977
vn 0.7007 0.1446 0.6987
vn 0.6630 0.1140 0.7399
vn 0.6626 0.0323 0.7483
vn 0.6604 0.0330 0.7502
vn 0.9477 0.1707 0.2696
vn 0.9438 0.1523 0.2934
vn 0.9605 0.1065 0.2569
vn 0.9548 -0.0178 0.2967
vn 0.9627 -0.0304 0.2688
vn 0.9777 -0.0114 0.2098
vn 0.7958 0.3890 0.4641
vn 0.7776 0.4040 0.4818
vn 0.8011 0.3629 0.4760
vn 0.7782 0.2392 0.5807
vn 0.7818 0.2613 0.5661
vn 0.7719 0.2801 0.5707
vn 0.9695 0.1126 0.2175
vn 0.9673 0.0977 0.2341
vn 0.9757 0.0822 0.2029
vn 0.9404 0.3303 0.0813
vn 0.9213 0.3803 0.0804
vn 0.9277 0.3615 0.0933
vn 0.9030 0.3755 0.2089
vn 0.8639 0.4487 0.2288
vn 0.8985 0.3709 0.2350
vn 0.7807 0.4777 -0.4028
vn 0.7733 0.5043 -0.3843
vn 0.7962 0.5116 -0.3230
vn 0.6807 0.5611 -0.4710
vn 0.6449 0.6226 -0.4433
vn 0.7011 0.5732 -0.4242
vn 0.6575 0.6735 -0.3377
vn 0.6716 0.7034 -0.2328
vn 0.6978 0.6596 -0.2793
vn 0.8607 0.5092 -0.0025
vn 0.8931 0.4488 0.0292
vn 0.8872 0.4588 -0.0482
vn 0.9752 0.2038 -0.0864
vn 0.9779 0.2085 -0.0173
vn 0.9829 0.1426 -0.1161
vn 0.6734 0.6549 -0.3430
vn 0.6384 0.6272 -0.4462
vn 0.6093 0.6956 -0.3808
vn 0.8761 0.2731 -0.3973
vn 0.8928 0.2749 -0.3567
vn 0.8896 0.2019 -0.4097
vn 0.8150 0.3648 -0.4503
vn 0.8341 0.2823 -0.4740
vn 0.7778 0.3679 -0.5096
vn 0.9947 0.0777 0.0681
vn 0.9949 0.0797 0.0622
vn 0.9916 0.1036 0.0780
vn 0.8648 0.0775 -0.4961
vn 0.8337 0.1141 -0.5403
vn 0.8285 0.1414 -0.5419
vn 0.8510 0.3229 -0.4141
vn 0.8171 0.3410 -0.4648
vn 0.7968 0.4038 -0.4496
vn 0.6131 0.3824 -0.6913
vn 0.6289 0.4289 -0.6485
vn 0.6145 0.3799 -0.6914
vn 0.7870 -0.5028 -0.3576
vn 0.7849 -0.5079 -0.3549
vn 0.8621 -0.2358 0.4486
vn 0.8635 -0.2298 0.4489
vn 0.3344 -0.0661 -0.9401
vn 0.2773 -0.0675 -0.9584
vn 0.2801 -0.0676 -0.9576
vn 0.3228 0.6977 -0.6396
vn 0.3197 0.7408 -0.5908
vn 0.3362 0.6976 -0.6327
vn 0.5023 0.7882 -0.3557
vn 0.5101 0.7566 -0.4091
vn 0.4470 0.7949 -0.4103
vn 0.7612 -0.5273 0.3776
vn 0.3790 -0.0269 -0.9250
vn 0.5774 -0.3725 0.7266
vn 0.3768 -0.4943 0.7834
vn 0.3951 -0.4886 0.7779
vn 0.0135 0.4165 -0.9090
vn -0.1667 0.1841 -0.9687
vn -0.1771 0.1849 -0.9667
vn -0.1343 0.4199 -0.8976
vn -0.1251 0.4129 -0.9021
vn -0.1342 0.4173 -0.8988
vn 0.2627 0.8115 -0.5220
vn 0.2654 0.8175 -0.5112
vn 0.2690 0.8044 -0.5296
vn 0.3207 0.8004 -0.5065
vn 0.3673 0.8013 -0.4722
vn 0.3272 0.7955 -0.5100
vn 0.3008 0.8313 -0.4673
vn 0.2738 0.8652 -0.4199
vn 0.3410 0.8162 -0.4664
vn 0.4513 0.6822 -0.5753
vn 0.4837 0.6951 -0.5319
vn 0.4595 0.6823 -0.5686
vn 0.3545 0.8662 -0.3522
vn 0.4175 0.8537 -0.3113
vn 0.4139 0.8272 -0.3800
vn 0.1491 0.9880 0.0415
vn 0.1744 0.9636 0.2028
vn 0.2111 0.9731 0.0920
vn 0.1623 0.9136 -0.3729
vn 0.1511 0.8969 -0.4156
vn 0.1366 0.9252 -0.3541
vn 0.4596 0.7844 -0.4165
vn 0.4789 0.7643 -0.4319
vn 0.4179 0.8017 -0.4273
vn 0.3971 0.7399 -0.5431
vn 0.3742 0.7367 -0.5633
vn 0.3735 0.7638 -0.5264
vn 0.2120 0.8826 -0.4196
vn 0.2691 0.8775 -0.3970
vn 0.2061 0.8693 -0.4493
vn 0.3869 0.7158 -0.5813
vn 0.3902 0.7227 -0.5704
vn 0.4010 0.7363 -0.5451
vn 0.1085 0.9545 -0.2777
vn 0.1185 0.9558 -0.2689
vn 0.4023 0.8966 -0.1853
vn 0.6564 0.1626 0.7367
vn 0.6569 0.1653 0.7356
vn 0.6441 0.1761 0.7444
vn 0.5458 -0.0224 0.8376
vn 0.5608 -0.0280 0.8275
vn 0.2154 -0.6056 0.7660
vn 0.2140 -0.5953 0.7745
vn 0.1392 -0.5944 0.7920
vn 0.2080 -0.6147 0.7609
vn 0.2083 -0.6137 0.7616
vn 0.1817 -0.5552 0.8116
vn 0.5166 -0.4638 0.7197
vn 0.5012 -0.5343 0.6807
vn 0.5027 -0.5339 0.6799
vn 0.5677 -0.4746 0.6727
vn 0.5119 -0.5338 0.6731
vn 0.5122 -0.5342 0.6725
vn 0.4499 -0.2709 0.8510
vn 0.3855 -0.2337 0.8926
vn 0.3811 -0.2513 0.8897
vn 0.6317 -0.3574 0.6879
vn 0.6322 -0.3575 0.6874
vn 0.4907 0.0713 0.8684
vn 0.5062 0.0422 0.8614
vn 0.5852 0.0761 0.8073
vn 0.5998 0.1031 0.7935
vn 0.5715 0.0680 0.8178
vn 0.6907 0.0242 0.7227
vn 0.6902 0.0239 0.7232
vn 0.7038 -0.0121 0.7103
vn 0.7039 -0.0113 0.7102
vn -0.0038 -0.9716 0.2366
vn -0.0204 -0.9735 0.2279
vn -0.0003 -0.9779 0.2093
vn -0.4021 -0.8778 0.2605
vn -0.4046 -0.8756 0.2638
vn -0.4213 -0.8739 0.2425
vn -0.3234 -0.9006 0.2904
vn -0.3154 -0.8967 0.3106
vn -0.3261 -0.8989 0.2927
vn -0.2598 -0.9623 0.0806
vn -0.2843 -0.9516 0.1171
vn -0.2794 -0.9569 0.0796
vn -0.2305 -0.9703 0.0738
vn -0.2063 -0.9732 0.1019
vn -0.2641 -0.9584 0.1084
vn -0.2607 -0.9653 -0.0141
vn -0.2793 -0.9583 -0.0609
vn -0.2479 -0.9673 -0.0538
vn -0.4952 -0.8660 -0.0689
vn -0.4919 -0.8634 -0.1123
vn -0.4727 -0.8786 -0.0674
vn -0.4686 -0.8813 0.0607
vn -0.4845 -0.8710 0.0812
vn -0.4986 -0.8633 0.0779
vn -0.4642 -0.8841 0.0532
vn -0.4580 -0.8848 0.0858
vn -0.4606 -0.8838 0.0818
vn -0.5588 -0.8273 0.0575
vn -0.5573 -0.8289 0.0488
vn -0.5521 -0.8317 0.0585
vn -0.5421 -0.8393 -0.0409
vn -0.5384 -0.8413 -0.0477
vn -0.5394 -0.8413 -0.0353
vn -0.0637 -0.9972 -0.0380
vn -0.0587 -0.9980 -0.0238
vn -0.0609 -0.9980 -0.0159
vn -0.2310 -0.9576 -0.1725
vn -0.2394 -0.9557 -0.1711
vn -0.2350 -0.9556 -0.1778
vn 0.0325 -0.9987 -0.0383
vn 0.0362 -0.9992 -0.0176
vn 0.0318 -0.9992 -0.0226
vn 0.0514 -0.9983 -0.0281
vn 0.0418 -0.9990 -0.0157
vn 0.0278 -0.9994 0.0202
vn 0.0349 -0.9994 0.0023
vn 0.0415 -0.9952 -0.0881
vn 0.0230 -0.9954 -0.0931
vn 0.1111 -0.9890 -0.0979
vn 0.1046 -0.9898 -0.0966
vn 0.1327 -0.9690 -0.2084
vn 0.1251 -0.9658 -0.2272
vn 0.1373 -0.9675 -0.2124
vn -0.2421 -0.9582 -0.1522
vn -0.2450 -0.9605 -0.1318
vn -0.2524 -0.9553 -0.1539
vn 0.0675 -0.9741 -0.2159
vn 0.0670 -0.9726 -0.2225
vn 0.0832 -0.9753 -0.2047
vn 0.1387 -0.9685 -0.2067
vn 0.1428 -0.9694 -0.2000
vn 0.1326 -0.9692 -0.2074
vn 0.0369 -0.9854 -0.1664
vn 0.0556 -0.9837 -0.1710
vn 0.0304 -0.9863 -0.1621
vn -0.5311 -0.6666 -0.5230
vn -0.5517 -0.6565 -0.5144
vn -0.5348 -0.6578 -0.5304
vn -0.7784 -0.4708 -0.4152
vn -0.7697 -0.4891 -0.4103
vn -0.7794 -0.4785 -0.4044
vn -0.4970 -0.6346 -0.5918
vn -0.5050 -0.6539 -0.5633
vn -0.5184 -0.6190 -0.5900
vn -0.1803 -0.6832 -0.7077
vn -0.1731 -0.6723 -0.7198
vn -0.1479 -0.7028 -0.6958
vn -0.7946 -0.2763 -0.5406
vn -0.8051 -0.2767 -0.5246
vn -0.8095 -0.2657 -0.5236
vn -0.6366 -0.3220 -0.7008
vn -0.6098 -0.3190 -0.7255
vn -0.6100 -0.3327 -0.7192
vn -0.6665 -0.3287 -0.6692
vn -0.6468 -0.3605 -0.6721
vn -0.6546 -0.3598 -0.6648
vn -0.8963 -0.1186 -0.4273
vn -0.8892 -0.1084 -0.4444
vn -0.8935 -0.1190 -0.4330
vn -0.8842 -0.0550 -0.4638
vn -0.8827 -0.0608 -0.4659
vn -0.8831 -0.0658 -0.4646
vn -0.7145 -0.0580 -0.6972
vn -0.7071 -0.0571 -0.7048
vn -0.7084 -0.0654 -0.7028
vn 0.1834 -0.8908 -0.4157
vn 0.1871 -0.8866 -0.4229
vn 0.1987 -0.8871 -0.4167
vn 0.3528 -0.8114 -0.4661
vn 0.3671 -0.8034 -0.4688
vn 0.3706 -0.8091 -0.4562
vn 0.4403 -0.6684 -0.5995
vn 0.4282 -0.6799 -0.5953
vn 0.4308 -0.6609 -0.6146
vn -0.2713 -0.7791 -0.5651
vn -0.2397 -0.7863 -0.5695
vn -0.2764 -0.7928 -0.5432
vn -0.3927 -0.4417 -0.8067
vn -0.3688 -0.4208 -0.8288
vn -0.3734 -0.4530 -0.8095
vn -0.0112 -0.8175 -0.5758
vn -0.0361 -0.8109 -0.5841
vn -0.0241 -0.8072 -0.5898
vn 0.1702 -0.8659 -0.4703
vn 0.1858 -0.8628 -0.4702
vn 0.1755 -0.8695 -0.4617
vn -0.6876 -0.0234 -0.7257
vn -0.6823 -0.0299 -0.7305
vn -0.6863 -0.0339 -0.7265
vn -0.7037 0.2417 -0.6681
vn -0.6987 0.2469 -0.6714
vn -0.7002 0.2415 -0.6719
vn 0.0031 -0.6923 -0.7216
vn 0.0002 -0.6595 -0.7517
vn 0.0146 -0.6534 -0.7569
vn -0.5034 -0.5057 -0.7006
vn -0.4904 -0.5262 -0.6948
vn -0.5239 -0.5244 -0.6713
vn -0.6738 0.2852 -0.6817
vn -0.6714 0.2824 -0.6852
vn -0.6725 0.2818 -0.6844
vn -0.6798 0.4713 -0.5619
vn -0.6799 0.4738 -0.5597
vn -0.6792 0.4742 -0.5602
vn -0.5096 0.5963 -0.6203
vn -0.5119 0.5953 -0.6193
vn -0.5110 0.5977 -0.6178
vn -0.4801 0.6019 -0.6381
vn -0.4782 0.6014 -0.6400
vn -0.4779 0.5998 -0.6417
vn -0.4337 0.3177 -0.8432
vn -0.4308 0.3230 -0.8426
vn -0.4312 0.3181 -0.8443
vn -0.4203 0.6512 -0.6319
vn -0.4195 0.6491 -0.6346
vn -0.4231 0.6464 -0.6349
vn 0.5484 -0.6808 -0.4856
vn 0.5537 -0.6950 -0.4587
vn 0.5336 -0.6953 -0.4815
vn 0.1955 -0.8034 -0.5624
vn 0.2081 -0.8059 -0.5542
vn 0.2003 -0.8091 -0.5525
vn 0.3425 -0.7291 -0.5926
vn 0.3450 -0.7344 -0.5845
vn 0.3233 -0.7508 -0.5760
vn -0.2074 -0.7215 -0.6606
vn -0.2480 -0.7028 -0.6668
vn -0.2311 -0.6930 -0.6829
vn -0.0117 -0.7243 -0.6894
vn -0.0092 -0.7418 -0.6706
vn -0.0192 -0.7309 -0.6822
vn -0.2714 -0.4423 -0.8548
vn -0.2823 -0.4244 -0.8604
vn -0.2387 -0.4324 -0.8695
vn -0.4771 -0.2790 -0.8334
vn -0.4838 -0.2795 -0.8293
vn -0.4830 -0.2430 -0.8412
vn -0.0049 -0.4088 -0.9126
vn -0.0106 -0.4070 -0.9134
vn 0.0111 -0.3998 -0.9165
vn -0.5264 -0.0097 -0.8502
vn -0.5208 -0.0052 -0.8537
vn -0.5208 -0.0124 -0.8536
vn -0.5244 -0.0158 -0.8513
vn -0.5246 -0.0141 -0.8512
vn -0.5174 -0.0128 -0.8556
vn -0.4297 0.3140 -0.8466
vn -0.4395 0.3185 -0.8399
vn -0.4251 0.3193 -0.8469
vn -0.4267 0.2313 -0.8743
vn -0.4353 0.2187 -0.8733
vn -0.4313 0.2335 -0.8715
vn 0.0512 0.2382 -0.9699
vn 0.0623 0.2327 -0.9706
vn 0.0462 0.2348 -0.9709
vn -0.1241 0.4145 -0.9016
vn -0.1222 0.4004 -0.9081
vn -0.1247 0.3998 -0.9081
vn 0.0306 0.3779 -0.9253
vn 0.0266 0.3828 -0.9235
vn 0.0356 0.3918 -0.9194
vn -0.1662 0.5931 -0.7878
vn -0.1606 0.5933 -0.7888
vn -0.1621 0.5897 -0.7912
vn -0.0344 -0.4480 -0.8934
vn -0.0405 -0.4559 -0.8891
vn -0.0390 -0.4449 -0.8947
vn 0.3013 -0.4856 -0.8206
vn 0.2679 -0.4853 -0.8323
vn 0.2950 -0.4792 -0.8266
vn -0.0372 0.0234 -0.9990
vn -0.0275 0.0262 -0.9993
vn -0.0264 0.0216 -0.9994
vn -0.0177 -0.0157 -0.9997
vn -0.0199 -0.0063 -0.9998
vn -0.0085 -0.0083 -0.9999
vn 0.3750 -0.0023 -0.9270
vn 0.4001 -0.0016 -0.9165
vn 0.3997 -0.0207 -0.9164
vn -0.0079 0.3007 -0.9537
vn -0.0122 0.2972 -0.9547
vn -0.0132 0.3093 -0.9509
vn 0.3261 -0.0806 -0.9419
vn 0.3446 -0.1082 -0.9325
vn 0.3252 -0.1118 -0.9390
vn 0.3082 0.2627 -0.9143
vn 0.3289 0.2592 -0.9081
vn 0.3215 0.2525 -0.9126
vn 0.6533 -0.1317 -0.7455
vn 0.6770 -0.1138 -0.7271
vn 0.6649 -0.1471 -0.7323
vn 0.6538 -0.1295 -0.7455
vn 0.6670 -0.1462 -0.7306
vn 0.6576 -0.1412 -0.7401
vn 0.6284 0.2061 -0.7501
vn 0.6367 0.2137 -0.7410
vn 0.6294 0.2045 -0.7497
vn 0.3234 0.2759 -0.9052
vn 0.3306 0.2609 -0.9070
vn 0.3268 0.2611 -0.9083
vn 0.6536 0.2269 -0.7221
vn 0.6549 0.2263 -0.7210
vn 0.6490 0.2221 -0.7277
vn 0.5878 0.3908 -0.7084
vn 0.5943 0.3868 -0.7051
vn 0.5940 0.3855 -0.7061
vn 0.2997 0.4490 -0.8418
vn 0.2968 0.4475 -0.8436
vn 0.2953 0.4481 -0.8438
vn 0.7016 0.4437 -0.5576
vn 0.7037 0.4361 -0.5609
vn 0.7036 0.4340 -0.5626
vn 0.5881 0.6320 -0.5047
vn 0.5899 0.6319 -0.5026
vn 0.5954 0.6252 -0.5046
vn 0.3892 0.3847 -0.8370
vn 0.3854 0.3913 -0.8357
vn 0.3862 0.3944 -0.8339
vn 0.1229 0.4186 -0.8998
vn 0.1131 0.4162 -0.9022
vn 0.1189 0.4229 -0.8983
vn 0.0918 0.6469 -0.7571
vn 0.0812 0.6510 -0.7547
vn 0.0895 0.6510 -0.7537
vn 0.2974 0.6355 -0.7125
vn 0.3029 0.6382 -0.7078
vn 0.2981 0.6329 -0.7146
vn 0.1123 0.6722 -0.7318
vn 0.1056 0.6708 -0.7341
vn 0.1065 0.6775 -0.7278
vn 0.3566 0.7146 -0.6018
vn 0.3598 0.7134 -0.6014
vn 0.3554 0.7093 -0.6088
vn 0.0559 0.8181 -0.5723
vn 0.0519 0.8199 -0.5702
vn 0.0562 0.8210 -0.5682
vn 0.1102 0.8538 -0.5088
vn 0.1088 0.8532 -0.5100
vn 0.1082 0.8554 -0.5066
vn 0.2263 0.8325 -0.5057
vn 0.2178 0.8328 -0.5090
vn 0.2279 0.8339 -0.5027
vn 0.0104 0.8974 -0.4412
vn 0.0112 0.8982 -0.4394
vn 0.0144 0.8975 -0.4407
vn 0.4028 0.8498 -0.3400
vn 0.4021 0.8499 -0.3405
vn 0.3984 0.8544 -0.3337
vn 0.6435 0.6890 -0.3333
vn 0.6494 0.6872 -0.3258
vn 0.6454 0.6870 -0.3339
vn 0.7518 0.6146 -0.2390
vn 0.7480 0.6174 -0.2437
vn 0.7512 0.6163 -0.2366
vn 0.7552 0.6185 -0.2172
vn 0.7555 0.6172 -0.2198
vn 0.7514 0.6238 -0.2151
vn 0.6556 0.7516 -0.0735
vn 0.6575 0.7501 -0.0714
vn 0.6573 0.7502 -0.0717
vn 0.5247 0.8511 -0.0176
vn 0.5213 0.8533 -0.0142
vn 0.5213 0.8532 -0.0139
vn 0.8757 0.4772 -0.0735
vn 0.8745 0.4790 -0.0754
vn 0.8738 0.4813 -0.0692
vn 0.9343 0.3460 -0.0858
vn 0.9331 0.3476 -0.0920
vn 0.7041 0.7065 0.0708
vn 0.7059 0.7049 0.0692
vn 0.6989 0.7138 0.0456
vn 0.8159 0.5779 0.0154
vn 0.8165 0.5771 0.0182
vn 0.8118 0.5838 -0.0098
vn 0.7136 0.6986 0.0521
vn 0.7317 0.6797 0.0511
vn 0.7446 0.6674 0.0155
vn 0.9323 0.3612 -0.0174
vn 0.9190 0.3936 -0.0209
vn 0.9309 0.3653 0.0085
vn 0.9527 0.2936 -0.0780
vn 0.9576 0.2858 -0.0365
vn 0.8749 0.2854 0.3913
vn 0.8356 0.3089 0.4542
vn 0.8631 0.2501 0.4386
vn 0.7403 0.6034 0.2964
vn 0.6942 0.6569 0.2944
vn 0.6863 0.6323 0.3593
vn 0.8446 0.3772 0.3800
vn 0.8769 0.3647 0.3131
vn 0.8446 0.4573 0.2785
vn 0.8636 0.4492 -0.2291
vn 0.8364 0.4755 -0.2725
vn 0.8315 0.5026 -0.2367
vn 0.9679 0.1304 -0.2146
vn 0.9668 0.2090 -0.1468
vn 0.9780 0.1114 -0.1766
vn 0.7798 0.5972 -0.1878
vn 0.8078 0.5371 -0.2430
vn 0.7673 0.5928 -0.2447
vn 0.9240 0.3264 -0.1992
vn 0.9717 0.1529 -0.1801
vn 0.9439 0.2089 -0.2558
vn 0.9728 0.2170 -0.0811
vn 0.9703 0.1489 -0.1904
vn 0.9481 0.1709 -0.2682
vn 0.9640 0.1845 -0.1917
vn 0.9918 0.0980 -0.0826
vn 0.9662 0.0924 -0.2407
vn 0.9925 0.0874 0.0851
vn 0.9974 -0.0125 0.0712
vn 0.9970 0.0683 0.0368
vn 0.9956 -0.0235 0.0902
vn 0.9904 -0.0426 0.1314
vn 0.9933 -0.0638 0.0964
vn 0.9651 0.2616 -0.0086
vn 0.9796 0.1600 -0.1217
vn 0.9582 0.2762 -0.0741
vn 0.9907 0.0946 -0.0979
vn 0.9937 0.0923 -0.0632
vn 0.9929 0.0632 -0.1004
vn 0.9716 -0.1737 0.1608
vn 0.9521 -0.2236 0.2086
vn 0.9773 -0.2118 0.0042
vn 0.9755 -0.2144 -0.0501
vn 0.9520 -0.2992 -0.0651
vn 0.9810 -0.1792 -0.0748
vn 0.9681 -0.2494 -0.0256
vn 0.9661 -0.2572 -0.0241
vn 0.9501 -0.2953 -0.1005
vn 0.9839 0.0841 0.1577
vn 0.9795 0.0903 0.1799
vn 0.9816 0.0558 0.1826
vn 0.9808 0.1815 -0.0712
vn 0.9823 0.1783 -0.0575
vn 0.9819 0.1669 -0.0894
vn 0.9339 -0.2771 0.2259
vn 0.9325 -0.2948 0.2088
vn 0.9490 -0.2443 0.1991
vn 0.9271 -0.1307 0.3514
vn 0.9435 -0.1243 0.3073
vn 0.9281 -0.1243 0.3510
vn 0.8753 -0.3092 0.3717
vn 0.8692 -0.3199 0.3771
vn 0.8696 -0.3509 0.3474
vn 0.8746 -0.3257 0.3591
vn 0.8696 -0.3128 0.3820
vn 0.8686 -0.3324 0.3675
vn 0.9961 -0.0412 -0.0786
vn 0.9961 -0.0477 -0.0740
vn 0.9953 -0.0539 -0.0805
vn 0.9852 0.1519 -0.0797
vn 0.9850 0.1567 -0.0720
vn 0.9867 0.1486 -0.0665
vn 0.9554 -0.2901 0.0550
vn 0.9571 -0.2888 0.0235
vn 0.9624 -0.2709 0.0194
vn 0.9902 0.1386 0.0184
vn 0.9868 0.1571 0.0389
vn 0.9909 0.1320 0.0261
vn 0.9673 -0.2446 0.0677
vn 0.9743 -0.2234 0.0293
vn 0.9755 -0.2134 0.0532
vn 0.9703 0.1813 -0.1601
vn 0.9777 0.1705 -0.1226
vn 0.9766 0.1616 -0.1422
vn 0.9875 0.1067 -0.1163
vn 0.9878 0.1200 -0.0994
vn 0.9889 0.1003 -0.1100
vn 0.9621 -0.1963 -0.1891
vn 0.9680 -0.1697 -0.1850
vn 0.9712 -0.1806 -0.1557
vn 0.9840 -0.1708 0.0500
vn 0.9849 -0.1671 0.0447
vn 0.9853 -0.1602 0.0597
vn 0.9985 0.0379 0.0400
vn 0.9985 0.0168 0.0529
vn 0.9992 0.0167 0.0354
vn 0.9923 -0.0873 -0.0881
vn 0.9927 -0.0973 -0.0716
vn 0.9919 -0.0970 -0.0823
vn 0.9944 0.0736 -0.0759
vn 0.9939 0.0709 -0.0841
vn 0.9938 0.0729 -0.0844
vn 0.9924 -0.0862 -0.0875
vn 0.9942 -0.0844 -0.0662
vn 0.9934 -0.0920 -0.0683
vn 0.9789 -0.1861 -0.0840
vn 0.9712 -0.2323 -0.0529
vn 0.9707 -0.2295 -0.0706
vn 0.9930 -0.0961 -0.0686
vn 0.9855 -0.1274 -0.1122
vn 0.8792 0.1202 -0.4611
vn 0.6814 -0.2403 -0.6913
vn 0.9269 -0.0938 -0.3633
vn 0.6820 -0.2683 -0.6803
vn 0.7479 -0.4705 -0.4682
vn 0.9370 -0.3351 -0.0983
vn 0.9299 -0.3660 -0.0369
vn 0.9616 -0.0436 -0.2709
vn 0.9756 0.0140 -0.2192
vn 0.8805 -0.4557 -0.1304
vn 0.7894 -0.4215 -0.4464
vn 0.9375 -0.0029 -0.3479
vn 0.9645 -0.0281 -0.2627
vn 0.9535 -0.2185 -0.2074
vn 0.9677 -0.2196 -0.1242
vn 0.9524 -0.2395 -0.1884
vn 0.7393 -0.5938 -0.3176
vn 0.7950 -0.5446 -0.2674
vn 0.7799 -0.5876 -0.2157
vn 0.9279 -0.2948 -0.2282
vn 0.9468 -0.2630 -0.1854
vn 0.9234 -0.3464 -0.1654
vn 0.8368 -0.3442 -0.4257
vn 0.8659 -0.2561 -0.4297
vn 0.8932 -0.2781 -0.3533
vn 0.2770 -0.9560 -0.0966
vn 0.2736 -0.9605 -0.0505
vn 0.2688 -0.9571 -0.1080
vn 0.3332 -0.9403 -0.0699
vn 0.3509 -0.9341 -0.0656
vn 0.3017 -0.9526 -0.0380
vn 0.2975 -0.9403 -0.1654
vn 0.2380 -0.9437 -0.2298
vn 0.2867 -0.9301 -0.2298
vn 0.1202 -0.9790 -0.1648
vn 0.1316 -0.9641 -0.2305
vn 0.1364 -0.9690 -0.2061
vn 0.6069 -0.6295 -0.4852
vn 0.5841 -0.6604 -0.4718
vn 0.5790 -0.6176 -0.5323
vn 0.6087 -0.7256 -0.3209
vn 0.6026 -0.7365 -0.3073
vn 0.5722 -0.7495 -0.3329
vn 0.7846 -0.4716 -0.4024
vn 0.7611 -0.5147 -0.3948
vn 0.7577 -0.4734 -0.4492
vn 0.7973 -0.5067 -0.3280
vn 0.7906 -0.5241 -0.3166
vn 0.7596 -0.5531 -0.3423
vn 0.8677 -0.3795 -0.3211
vn 0.8574 -0.3871 -0.3392
vn 0.8469 -0.3752 -0.3768
vn 0.8856 -0.1542 -0.4381
vn 0.8814 -0.1663 -0.4421
vn 0.8773 -0.1649 -0.4507
vn 0.9113 0.0536 -0.4083
vn 0.9088 0.0700 -0.4113
vn 0.9114 0.0623 -0.4068
vn 0.9038 0.0445 -0.4257
vn 0.8994 0.0431 -0.4349
vn 0.9015 0.0596 -0.4286
vn 0.9076 0.2107 0.3631
vn 0.8788 0.1727 0.4449
vn 0.9179 0.1743 0.3564
vn 0.5884 0.0726 0.8053
vn 0.6017 0.0291 0.7982
vn 0.6227 0.0352 0.7817
vn 0.3940 -0.1803 0.9013
vn 0.3752 -0.1630 0.9125
vn 0.4014 -0.2113 0.8912
vn 0.4704 0.0227 0.8821
vn 0.4415 0.0134 0.8971
vn 0.4656 0.0072 0.8849
vn 0.4963 -0.0319 0.8676
vn 0.4785 -0.0150 0.8780
vn 0.4638 -0.0510 0.8845
vn 0.4378 -0.1406 0.8880
vn 0.4156 -0.1447 0.8980
vn 0.4420 -0.1582 0.8830
vn 0.5899 -0.3164 0.7429
vn 0.5766 -0.2813 0.7671
vn 0.5723 -0.3331 0.7494
vn 0.5757 -0.3582 0.7350
vn 0.5365 -0.3785 0.7542
vn 0.5719 -0.3749 0.7297
vn 0.5984 -0.3810 0.7048
vn 0.5833 -0.3821 0.7167
vn 0.5681 -0.4207 0.7073
vn -0.7251 -0.4265 -0.5408
vn -0.7469 -0.3400 -0.5715
vn -0.6845 -0.4213 -0.5950
vn -0.4123 -0.8464 -0.3370
vn -0.3714 -0.8371 -0.4018
vn -0.3209 -0.8865 -0.3335
vn -0.4057 -0.5705 -0.7141
vn -0.3106 -0.5801 -0.7530
vn -0.1984 -0.8467 -0.4937
vn -0.0556 -0.4006 -0.9146
vn 0.2597 -0.6083 -0.7501
vn -0.2728 -0.4180 -0.8665
vn -0.6911 -0.5816 -0.4290
vn -0.4831 -0.4148 -0.7711
vn -0.4779 -0.4876 -0.7307
vn -0.6771 -0.5279 -0.5127
vn -0.7223 -0.4623 -0.5144
vn -0.6726 -0.5243 -0.5222
vn -0.4681 -0.1660 -0.8679
vn -0.5091 -0.1877 -0.8400
vn -0.7549 -0.0094 -0.6557
vn -0.5643 0.0373 -0.8247
vn -0.5626 0.0169 -0.8266
vn -0.6064 0.0365 -0.7943
vn -0.5471 0.0864 -0.8326
vn -0.5605 0.0865 -0.8236
vn -0.5460 0.1293 -0.8277
vn -0.5854 0.2637 -0.7667
vn -0.6014 0.2333 -0.7641
vn -0.5976 0.2554 -0.7600
vn -0.2566 -0.9647 0.0586
vn -0.2741 -0.9617 0.0054
vn -0.2641 -0.9644 0.0100
vn -0.3604 -0.9263 0.1098
vn -0.3787 -0.9081 0.1785
vn -0.3887 -0.9038 0.1791
vn -0.3190 -0.8839 0.3421
vn -0.3113 -0.8926 0.3260
vn -0.2493 -0.8972 0.3646
vn -0.0386 -0.8549 0.5173
vn -0.0419 -0.8671 0.4964
vn -0.0283 -0.8614 0.5071
vn -0.1231 -0.9268 0.3548
vn -0.1661 -0.8970 0.4096
vn -0.1320 -0.9290 0.3458
vn -0.1675 -0.9783 0.1218
vn -0.1689 -0.9770 0.1303
vn -0.2333 -0.9676 0.0968
vn -0.5430 -0.8396 0.0142
vn -0.5520 -0.8338 0.0117
vn -0.5536 -0.8328 0.0050
vn -0.5351 -0.8403 0.0871
vn -0.5399 -0.8351 0.1051
vn -0.5441 -0.8339 0.0923
vn -0.8374 -0.5424 0.0669
vn -0.8562 -0.5135 0.0568
vn -0.8511 -0.5228 0.0468
vn -0.8279 -0.5573 -0.0626
vn -0.8358 -0.5477 -0.0376
vn -0.8398 -0.5405 -0.0508
vn -0.1943 -0.9787 0.0669
vn -0.2968 -0.9543 0.0351
vn -0.2356 -0.9709 0.0427
vn 0.1585 -0.8194 0.5509
vn 0.1537 -0.8130 0.5616
vn 0.1077 -0.7922 0.6007
vn 0.8657 0.3327 -0.3739
vn 0.8607 0.3377 -0.3810
vn 0.8673 0.3376 -0.3659
vn 0.8961 0.3500 -0.2730
vn 0.8947 0.3470 -0.2812
vn 0.8921 0.3586 -0.2750
vn 0.1572 -0.4670 0.8702
vn 0.1316 -0.4624 0.8769
vn 0.1049 -0.5359 0.8377
vn 0.1171 -0.8315 0.5430
vn 0.1051 -0.7948 0.5976
vn 0.0856 -0.8328 0.5469
vt 0.465627 0.835953
vt 0.354430 0.843912
vt 0.281605 0.780083
vt 0.726790 0.182145
vt 0.697294 0.104088
vt 0.720820 0.169142
vt 0.781346 0.383033
vt 0.745075 0.363900
vt 0.852500 0.435531
vt 0.808995 0.399873
vt 0.840584 0.438974
vt 0.874994 0.378578
vt 0.844958 0.373314
vt 0.744659 0.372142
vt 0.645139 0.420912
vt 0.642893 0.363438
vt 0.625054 0.266936
vt 0.822779 0.259505
vt 0.744236 0.250930
vt 0.859553 0.302027
vt 0.874626 0.377046
vt 0.849778 0.274050
vt 0.819055 0.232820
vt 0.801694 0.202766
vt 0.775319 0.186988
vt 0.721677 0.169953
vt 0.660724 0.187141
vt 0.400673 0.723596
vt 0.413338 0.773378
vt 0.319728 0.616468
vt 0.440824 0.676187
vt 0.620206 0.626333
vt 0.515502 0.636999
vt 0.833027 0.782642
vt 0.742134 0.783103
vt 0.801297 0.773240
vt 0.862441 0.783525
vt 0.875278 0.807617
vt 0.960748 0.866499
vt 0.922637 0.780624
vt 0.850875 0.736473
vt 0.846060 0.701272
vt 0.884290 0.723598
vt 0.899515 0.667662
vt 0.897282 0.725571
vt 0.911178 0.766316
vt 0.902279 0.654373
vt 0.900660 0.639970
vt 0.910957 0.616339
vt 0.902968 0.585899
vt 0.908967 0.573053
vt 0.915409 0.534385
vt 0.892850 0.616149
vt 0.780792 0.734237
vt 0.814037 0.646075
vt 0.863101 0.666537
vt 0.728527 0.771825
vt 0.758156 0.785186
vt 0.682709 0.779204
vt 0.870629 0.592910
vt 0.758952 0.687270
vt 0.908857 0.540682
vt 0.881196 0.533521
vt 0.903267 0.482610
vt 0.911442 0.504183
vt 0.872040 0.491653
vt 0.787285 0.448482
vt 0.739348 0.440891
vt 0.731111 0.368037
vt 0.672536 0.364795
vt 0.791026 0.528500
vt 0.767589 0.603202
vt 0.759696 0.532105
vt 0.718815 0.633543
vt 0.739666 0.549735
vt 0.692740 0.690944
vt 0.631512 0.741262
vt 0.601246 0.656915
vt 0.643099 0.606191
vt 0.710837 0.518650
vt 0.600973 0.753142
vt 0.641569 0.764418
vt 0.553435 0.748782
vt 0.694790 0.440524
vt 0.538450 0.667144
vt 0.685098 0.521468
vt 0.581045 0.454061
vt 0.596526 0.401464
vt 0.517949 0.463176
vt 0.505058 0.496341
vt 0.634591 0.478693
vt 0.566220 0.501348
vt 0.573137 0.546657
vt 0.575467 0.608940
vt 0.558430 0.625835
vt 0.479902 0.562833
vt 0.491795 0.602902
vt 0.471440 0.534494
vt 0.480310 0.490541
vt 0.473372 0.508563
vt 0.502570 0.441645
vt 0.515664 0.638616
vt 0.484996 0.639555
vt 0.490061 0.595665
vt 0.464390 0.697275
vt 0.485397 0.709873
vt 0.534984 0.773744
vt 0.446248 0.759960
vt 0.475596 0.796618
vt 0.400512 0.809168
vt 0.463703 0.690447
vt 0.478868 0.636539
vt 0.469329 0.529754
vt 0.484809 0.555732
vt 0.458969 0.498775
vt 0.490297 0.523233
vt 0.518684 0.514801
vt 0.527106 0.488695
vt 0.556631 0.420693
vt 0.458582 0.683677
vt 0.488425 0.723423
vt 0.469764 0.710488
vt 0.439048 0.621627
vt 0.427195 0.520128
vt 0.386778 0.506733
vt 0.406592 0.682357
vt 0.391333 0.626327
vt 0.372884 0.558145
vt 0.288302 0.664398
vt 0.139465 0.696719
vt 0.318363 0.716935
vt 0.213827 0.808596
vt 0.428917 0.710556
vt 0.347252 0.764771
vt 0.443867 0.819437
vt 0.510434 0.743627
vt 0.542505 0.744386
vt 0.587621 0.755886
vt 0.398544 0.827247
vt 0.540810 0.807052
vt 0.622861 0.777245
vt 0.670482 0.727117
vt 0.699736 0.704154
vt 0.450070 0.854336
vt 0.664278 0.766158
vt 0.735303 0.640770
vt 0.682760 0.736499
vt 0.480576 0.872813
vt 0.450656 0.886861
vt 0.362228 0.899704
vt 0.405212 0.900943
vt 0.316689 0.912741
vt 0.258342 0.900491
vt 0.304224 0.888657
vt 0.142689 0.822652
vt 0.211528 0.882576
vt 0.118945 0.820951
vt 0.165038 0.855507
vt 0.078727 0.777942
vt 0.091790 0.743487
vt 0.057309 0.699001
vt 0.029223 0.674125
vt 0.026120 0.615177
vt 0.023129 0.609072
vt 0.035379 0.518546
vt 0.101871 0.636884
vt 0.088180 0.584014
vt 0.217728 0.566947
vt 0.070658 0.499972
vt 0.081519 0.396238
vt 0.064319 0.418868
vt 0.104607 0.370018
vt 0.145787 0.327097
vt 0.226265 0.277088
vt 0.180208 0.373804
vt 0.317456 0.229943
vt 0.292129 0.346719
vt 0.173923 0.457684
vt 0.183260 0.510891
vt 0.305218 0.443021
vt 0.286887 0.383186
vt 0.386535 0.443777
vt 0.442045 0.392108
vt 0.615106 0.315512
vt 0.506589 0.321981
vt 0.622984 0.376367
vt 0.734921 0.349161
vt 0.627841 0.394525
vt 0.521417 0.425073
vt 0.640434 0.387010
vt 0.556237 0.419921
vt 0.492678 0.481990
vt 0.741366 0.380580
vt 0.817278 0.387409
vt 0.837004 0.408836
vt 0.887857 0.443143
vt 0.884679 0.482618
vt 0.895578 0.510433
vt 0.880650 0.374462
vt 0.806203 0.320882
vt 0.850692 0.274389
vt 0.732107 0.268460
vt 0.668331 0.222609
vt 0.813787 0.294875
vt 0.764624 0.273169
vt 0.804957 0.243777
vt 0.819400 0.233069
vt 0.800897 0.202815
vt 0.765151 0.222583
vt 0.776008 0.186177
vt 0.723922 0.229663
vt 0.724352 0.213200
vt 0.744550 0.206835
vt 0.638292 0.151077
vt 0.637744 0.075250
vt 0.588575 0.081467
vt 0.577182 0.152793
vt 0.492967 0.176764
vt 0.513429 0.103571
vt 0.407275 0.162577
vt 0.464710 0.305242
vt 0.385618 0.220643
vt 0.358072 0.306095
vt 0.709516 0.378134
vt 0.455075 0.766542
vt 0.906417 0.609581
vt 0.870888 0.678571
vt 0.900039 0.605617
vt 0.911107 0.563497
vt 0.856082 0.603865
vt 0.883204 0.557712
vt 0.807051 0.645192
vt 0.774035 0.664808
vt 0.805326 0.743188
vt 0.845042 0.718300
vt 0.883791 0.747439
vt 0.851818 0.770685
vt 0.910278 0.786240
vt 0.888115 0.804014
vt 0.778344 0.760899
vt 0.650096 0.756788
vt 0.904831 0.543265
vt 0.866625 0.455293
vt 0.554119 0.101030
vt 0.437780 0.177873
vt 0.350830 0.231724
vt 0.188225 0.318102
vt 0.196744 0.356383
vt 0.371156 0.340499
vt 0.558819 0.386807
vt 0.488199 0.414262
vt 0.258813 0.407401
vt 0.354460 0.503502
vt 0.130929 0.404778
vt 0.177210 0.443609
vt 0.073128 0.431854
vt 0.094764 0.463106
vt 0.041307 0.516638
vt 0.060007 0.560225
vt 0.292159 0.535896
vt 0.344255 0.544694
vt 0.321488 0.653896
vt 0.143239 0.499238
vt 0.178402 0.511163
vt 0.046603 0.657142
vt 0.118854 0.578907
vt 0.058471 0.734402
vt 0.123944 0.807102
vt 0.265147 0.647208
vt 0.191483 0.606028
vt 0.143107 0.591015
vt 0.124837 0.629413
vt 0.119525 0.668797
vt 0.124857 0.730540
vt 0.190268 0.748030
vt 0.159379 0.828144
vt 0.185460 0.645647
vt 0.182367 0.683691
vt 0.260218 0.696625
vt 0.318194 0.700575
vt 0.271035 0.761404
vt 0.339716 0.774512
vt 0.299926 0.855677
vt 0.379577 0.851270
vt 0.328264 0.892394
vt 0.216968 0.842118
vt 0.242703 0.877365
vt 0.347967 0.865708
vt 0.490403 0.859735
vt 0.581207 0.786553
vt 0.518806 0.780214
vt 0.677048 0.678476
vt 0.590115 0.732158
vt 0.735566 0.637600
vt 0.677288 0.626852
vt 0.669450 0.606567
vt 0.787475 0.594208
vt 0.605404 0.586456
vt 0.408916 0.601874
vt 0.519477 0.522845
vt 0.388015 0.444120
vt 0.362988 0.639956
vt 0.326453 0.653409
vt 0.391446 0.528971
vt 0.335099 0.343296
vt 0.325061 0.408683
vt 0.361688 0.241884
vt 0.317678 0.272659
vt 0.341226 0.564992
vt 0.291997 0.427853
vt 0.258361 0.339850
vt 0.264713 0.456289
vt 0.314063 0.667398
vt 0.163517 0.741559
vt 0.131192 0.677510
vt 0.273813 0.607012
vt 0.117183 0.575332
vt 0.208823 0.486184
vt 0.106586 0.519609
vt 0.173480 0.420023
vt 0.193092 0.328276
vt 0.143860 0.389966
vt 0.072246 0.499140
vt 0.343831 0.543410
vt 0.317473 0.701729
vt 0.569910 0.350180
vt 0.547001 0.416580
vt 0.570047 0.421468
vt 0.588183 0.413583
vt 0.619235 0.359166
vt 0.569012 0.346699
vt 0.629040 0.257260
vt 0.530616 0.292908
vt 0.689274 0.150056
vt 0.534633 0.184334
vt 0.679608 0.112119
vt 0.601124 0.104183
vt 0.695397 0.374149
vt 0.738086 0.378041
vt 0.274777 0.781850
vt 0.329221 0.783729
vt 0.425716 0.848020
vt 0.741214 0.381249
s 1
usemtl Dingus.001
f 1/1/1 3/2/2 2/3/3
f 4/4/4 6/5/5 5/6/6
f 7/7/7 9/8/8 8/9/8
f 10/10/9 8/9/10 9/8/10
f 11/11/11 13/12/12 12/13/13
f 12/13/14 14/14/15 11/11/15
f 14/14/16 15/15/17 11/11/16
f 16/16/18 15/15/19 14/14/20
f 17/17/21 16/16/22 14/14/23
f 14/14/24 12/13/25 18/18/26
f 14/14/27 19/19/28 17/17/29
f 14/14/30 18/18/31 19/19/32
f 20/20/33 18/18/34 12/13/35
f 20/20/36 12/13/37 13/21/38
f 21/22/39 18/18/40 20/20/41
f 21/22/42 22/23/43 18/18/44
f 23/24/45 18/18/46 22/23/47
f 23/24/48 19/19/49 18/18/50
f 23/24/51 24/25/52 19/19/53
f 19/19/54 24/25/55 5/26/56
f 5/26/57 17/17/58 19/19/59
f 5/26/60 6/27/61 17/17/62
f 25/28/63 3/29/64 26/30/65
f 26/30/66 27/31/67 25/28/68
f 28/32/69 27/31/70 26/30/71
f 28/32/72 29/33/73 27/31/74
f 30/34/75 32/35/76 31/36/76
f 30/34/77 31/36/78 33/37/78
f 30/34/79 33/37/80 34/38/80
f 34/38/81 33/37/81 35/39/81
f 36/40/82 35/39/82 33/37/82
f 37/41/83 36/40/83 33/37/83
f 33/37/84 31/36/84 37/41/84
f 31/36/85 38/42/85 37/41/85
f 36/40/86 37/41/86 39/43/87
f 37/41/88 40/44/89 39/43/90
f 37/41/91 38/42/91 40/44/92
f 41/45/93 39/43/94 40/44/95
f 39/43/96 41/45/97 42/46/98
f 41/45/99 40/44/100 43/47/101
f 38/42/102 44/48/102 40/44/103
f 44/48/104 45/49/104 40/44/105
f 46/50/106 45/49/106 44/48/106
f 46/50/107 47/51/107 45/49/107
f 48/52/108 47/51/108 46/50/108
f 44/48/109 38/42/109 49/53/109
f 44/48/110 49/53/110 46/50/110
f 38/42/111 31/36/111 50/54/112
f 51/55/113 38/42/114 50/54/115
f 49/53/116 38/42/116 52/56/116
f 51/55/117 52/56/118 38/42/118
f 49/53/119 52/56/119 51/55/120
f 31/36/121 53/57/122 50/54/123
f 54/58/124 53/57/125 31/36/124
f 53/57/126 54/58/127 55/59/128
f 56/60/129 46/50/129 49/53/129
f 56/60/130 49/53/130 51/55/131
f 50/54/132 57/61/133 51/55/134
f 50/54/135 53/57/136 57/61/137
f 46/50/138 58/62/138 48/52/138
f 56/60/139 59/63/139 46/50/139
f 59/63/140 58/62/140 46/50/140
f 48/52/141 58/62/141 60/64/142
f 48/52/143 60/64/144 61/65/145
f 62/66/146 60/64/147 58/62/146
f 59/63/148 62/66/148 58/62/148
f 62/66/149 8/9/149 60/64/150
f 8/9/151 62/66/151 63/67/152
f 63/67/153 62/66/154 59/63/154
f 7/7/155 8/9/156 63/67/157
f 7/7/158 63/67/159 64/68/160
f 65/69/161 7/7/162 64/68/163
f 64/68/164 66/70/165 65/69/166
f 67/71/167 59/63/168 56/60/168
f 67/71/169 63/67/170 59/63/171
f 67/71/172 56/60/173 68/72/173
f 68/72/174 56/60/174 51/55/175
f 63/67/176 67/71/177 69/73/178
f 63/67/179 69/73/180 64/68/181
f 69/73/182 67/71/183 68/72/184
f 68/72/185 51/55/186 70/74/185
f 70/74/187 51/55/188 57/61/189
f 71/75/190 69/73/191 68/72/190
f 71/75/192 64/68/193 69/73/194
f 71/75/195 68/72/195 70/74/195
f 70/74/196 57/61/197 72/76/196
f 72/76/198 57/61/199 53/57/200
f 72/76/201 53/57/202 73/77/201
f 73/77/203 53/57/204 55/59/205
f 72/76/206 74/78/206 70/74/206
f 72/76/207 73/77/207 74/78/207
f 70/74/208 75/79/208 71/75/208
f 70/74/209 74/78/209 75/79/209
f 71/75/210 76/80/210 64/68/211
f 71/75/212 75/79/212 76/80/212
f 73/77/213 55/59/214 77/81/215
f 78/82/216 77/81/217 55/59/218
f 78/82/219 79/83/220 77/81/221
f 76/80/222 80/84/222 64/68/223
f 80/84/224 66/70/225 64/68/226
f 77/81/227 81/85/228 73/77/228
f 73/77/229 81/85/229 74/78/229
f 75/79/230 82/86/231 76/80/230
f 76/80/232 82/86/233 80/84/232
f 83/87/234 66/70/235 80/84/236
f 83/87/237 84/88/238 66/70/239
f 84/88/240 83/87/241 85/89/242
f 83/87/243 86/90/244 85/89/245
f 83/87/246 80/84/247 87/91/248
f 87/91/249 80/84/250 82/86/251
f 87/91/252 88/92/253 83/87/254
f 87/91/255 82/86/256 88/92/257
f 83/87/258 88/92/259 86/90/260
f 88/92/261 82/86/262 89/93/263
f 89/93/264 82/86/265 75/79/266
f 86/90/267 88/92/268 89/93/269
f 75/79/270 74/78/270 90/94/271
f 89/93/272 75/79/273 90/94/274
f 74/78/275 81/85/275 91/95/276
f 90/94/277 74/78/278 91/95/279
f 92/96/280 89/93/281 90/94/282
f 92/96/283 86/90/284 89/93/285
f 93/97/286 90/94/287 91/95/288
f 93/97/289 92/96/290 90/94/291
f 86/90/292 92/96/293 94/98/294
f 93/97/295 94/98/296 92/96/297
f 94/98/298 95/99/299 86/90/300
f 94/98/301 96/100/302 95/99/303
f 95/99/304 85/101/305 86/90/306
f 97/102/307 93/97/308 91/95/309
f 97/102/310 91/95/311 81/85/310
f 97/102/312 98/103/313 93/97/314
f 98/103/315 99/104/316 93/97/317
f 97/102/318 81/85/318 100/105/319
f 98/103/320 97/102/321 100/105/322
f 81/85/323 101/106/323 100/105/324
f 77/81/325 101/106/326 81/85/326
f 77/81/327 102/107/328 101/106/328
f 102/107/329 103/108/329 101/106/329
f 103/108/330 100/105/331 101/106/330
f 102/107/332 104/109/332 103/108/332
f 104/109/333 105/110/333 103/108/333
f 103/108/334 106/111/334 100/105/335
f 98/103/336 100/105/337 106/111/338
f 98/103/339 107/112/340 99/104/341
f 98/103/342 106/111/343 107/112/344
f 108/113/345 99/104/346 107/112/347
f 99/104/348 108/113/349 109/114/350
f 109/114/351 108/113/352 110/115/353
f 109/114/354 110/115/355 111/116/356
f 111/116/357 110/115/358 112/117/359
f 110/115/360 113/118/361 112/117/362
f 114/119/363 113/118/364 110/115/365
f 107/112/366 106/111/367 115/120/368
f 115/120/369 106/111/370 116/121/370
f 116/121/371 117/122/372 115/120/373
f 108/113/374 107/112/375 118/123/376
f 115/120/377 118/123/378 107/112/379
f 110/115/380 108/113/381 119/124/382
f 108/113/383 118/123/384 119/124/385
f 110/115/386 119/124/387 120/125/388
f 115/120/389 121/126/390 118/123/391
f 121/126/392 115/120/393 117/122/394
f 122/127/395 119/124/396 118/123/397
f 121/126/398 122/127/399 118/123/400
f 122/127/401 123/128/402 119/124/403
f 123/128/404 120/125/405 119/124/406
f 123/128/407 122/127/408 124/129/409
f 121/126/410 124/129/411 122/127/412
f 123/128/413 124/129/414 120/125/415
f 125/130/416 120/125/417 124/129/418
f 121/126/419 126/131/420 124/129/421
f 125/130/422 124/129/423 126/131/424
f 125/130/425 126/131/426 127/132/427
f 121/126/428 117/122/429 128/133/430
f 128/133/431 126/131/432 121/126/433
f 129/134/434 127/132/435 126/131/436
f 128/133/437 129/134/438 126/131/439
f 130/135/440 129/134/441 128/133/442
f 117/122/443 131/136/444 128/133/445
f 128/133/446 131/136/447 130/135/448
f 117/122/449 79/83/450 131/136/451
f 132/137/452 130/135/453 131/136/454
f 130/135/455 132/137/456 133/138/457
f 134/139/458 127/132/459 129/134/460
f 130/135/461 134/139/462 129/134/463
f 130/135/464 133/138/465 135/140/466
f 135/140/467 133/138/468 136/141/469
f 137/142/470 136/141/471 133/138/472
f 138/143/473 136/141/474 137/142/475
f 139/144/476 130/135/477 135/140/478
f 134/139/479 130/135/480 139/144/481
f 136/141/482 139/144/483 135/140/484
f 138/143/485 140/145/486 136/141/487
f 141/146/488 140/145/489 138/143/490
f 141/146/491 142/147/492 140/145/493
f 140/145/494 143/148/495 136/141/496
f 136/141/497 143/148/498 144/149/499
f 136/141/500 144/149/501 139/144/502
f 144/149/503 145/150/504 139/144/505
f 145/150/506 134/139/507 139/144/508
f 146/151/509 145/150/510 144/149/511
f 146/151/512 147/152/513 145/150/514
f 147/152/515 148/153/516 145/150/517
f 145/150/518 149/154/519 134/139/520
f 149/154/521 145/150/522 148/153/523
f 134/139/524 149/154/525 127/132/526
f 148/153/527 127/132/528 149/154/529
f 148/153/530 150/155/531 127/132/532
f 151/156/533 150/155/534 148/153/535
f 151/156/536 152/157/537 150/155/538
f 152/157/539 151/156/540 153/158/541
f 150/155/542 152/157/543 154/159/544
f 155/160/545 127/132/546 150/155/547
f 154/159/548 155/160/549 150/155/550
f 155/160/551 125/130/552 127/132/553
f 155/160/554 154/159/555 156/161/556
f 156/161/557 125/130/558 155/160/559
f 157/162/560 156/161/561 154/159/562
f 157/162/563 158/163/564 156/161/565
f 158/163/566 157/162/567 159/164/568
f 159/164/569 160/165/570 158/163/571
f 156/161/572 161/166/573 125/130/574
f 162/167/575 156/161/576 158/163/577
f 161/166/578 156/161/579 162/167/580
f 125/130/581 161/166/582 163/168/583
f 162/167/584 163/168/585 161/166/586
f 125/130/587 163/168/588 120/125/589
f 158/163/590 160/165/591 164/169/592
f 164/169/593 162/167/594 158/163/595
f 160/165/596 165/170/597 164/169/598
f 160/165/599 166/171/600 165/170/601
f 167/172/602 165/170/603 166/171/604
f 167/172/605 168/173/606 165/170/607
f 168/173/608 169/174/609 165/170/610
f 170/175/611 165/170/612 169/174/613
f 164/169/614 165/170/615 170/175/616
f 171/176/617 170/175/618 169/174/619
f 171/176/620 172/177/621 170/175/622
f 164/169/623 170/175/624 173/178/625
f 162/167/626 164/169/627 173/178/628
f 173/178/629 170/175/630 172/177/631
f 162/167/632 174/179/633 163/168/634
f 162/167/635 173/178/636 174/179/637
f 175/180/638 163/168/639 174/179/640
f 174/179/641 173/178/642 175/180/643
f 175/180/644 120/125/645 163/168/646
f 173/178/647 176/181/648 175/180/649
f 173/178/650 172/177/651 176/181/652
f 175/180/653 177/182/653 120/125/654
f 175/180/655 176/181/656 177/182/655
f 110/115/657 120/125/658 177/182/659
f 177/182/660 178/183/661 110/115/662
f 177/182/663 176/181/664 178/183/665
f 114/119/666 110/115/667 178/183/668
f 178/183/669 179/184/670 114/119/671
f 180/185/672 178/183/673 176/181/674
f 180/185/675 176/181/676 172/177/677
f 178/183/678 180/185/679 179/184/680
f 181/186/681 114/119/682 179/184/683
f 179/184/684 182/187/685 181/186/686
f 114/119/687 181/186/688 183/188/689
f 182/187/690 183/188/691 181/186/692
f 114/119/693 183/188/694 184/189/695
f 184/189/696 183/188/697 185/190/698
f 184/189/699 185/190/700 186/191/701
f 95/99/702 184/189/703 186/191/704
f 95/99/705 187/192/706 184/189/707
f 182/187/708 188/193/709 183/188/710
f 188/193/711 182/187/712 189/194/713
f 188/193/714 189/194/715 190/195/716
f 190/195/717 189/194/718 191/196/719
f 190/195/720 191/196/721 192/197/722
f 190/195/723 192/197/724 193/198/725
f 194/199/726 191/196/727 189/194/728
f 194/199/729 189/194/730 195/200/731
f 195/200/732 189/194/733 182/187/734
f 194/199/735 195/200/736 196/201/737
f 182/187/738 197/202/739 195/200/740
f 198/203/741 197/202/742 182/187/743
f 198/203/744 182/187/745 179/184/746
f 196/201/747 195/200/748 199/204/749
f 200/205/750 195/200/751 197/202/752
f 200/205/753 199/204/754 195/200/755
f 201/206/756 196/201/757 199/204/758
f 201/206/759 22/207/760 196/201/761
f 23/208/762 22/207/763 201/206/764
f 202/209/765 201/206/766 199/204/767
f 201/206/768 202/209/769 23/208/770
f 199/204/771 200/205/772 202/209/773
f 202/209/774 24/210/775 23/208/776
f 200/205/777 197/202/778 203/211/779
f 203/211/780 197/202/781 198/203/782
f 200/205/783 203/211/784 204/212/785
f 200/205/786 204/212/787 202/209/788
f 204/212/789 203/211/790 198/203/791
f 24/210/792 202/209/793 205/213/794
f 204/212/795 205/213/796 202/209/797
f 24/210/798 205/213/799 5/6/800
f 4/4/801 5/6/802 205/213/803
f 204/212/804 4/4/805 205/213/806
f 204/212/807 6/5/808 4/4/809
f 6/5/810 204/212/811 198/203/812
f 206/214/813 6/5/814 198/203/815
f 206/214/816 207/215/817 6/5/818
f 198/203/819 179/184/820 206/214/821
f 208/216/822 207/215/823 206/214/824
f 179/184/825 209/217/826 206/214/827
f 208/216/828 206/214/829 209/217/830
f 179/184/831 180/185/832 209/217/833
f 208/216/834 209/217/835 210/218/836
f 208/216/837 210/218/838 211/219/839
f 210/218/840 212/220/841 211/219/842
f 209/217/843 180/185/844 213/221/845
f 209/217/846 213/221/847 210/218/848
f 213/221/849 180/185/850 172/177/851
f 210/218/852 214/222/853 212/220/854
f 214/222/855 171/176/856 212/220/857
f 214/222/858 172/177/859 171/176/860
f 215/223/861 210/218/862 213/221/863
f 215/223/864 214/222/865 210/218/866
f 214/222/867 215/223/868 172/177/869
f 213/221/870 172/177/871 215/223/872
f 216/224/873 9/8/874 7/7/875
f 216/224/876 183/188/877 9/8/878
f 79/83/879 117/122/880 116/121/881
f 79/83/882 116/121/883 102/107/883
f 77/81/884 79/83/885 102/107/886
f 102/107/887 116/121/887 217/225/887
f 104/109/888 102/107/888 217/225/888
f 106/111/889 217/225/889 116/121/889
f 104/109/890 217/225/890 105/110/890
f 103/108/891 217/225/891 106/111/891
f 105/110/892 217/225/892 103/108/892
f 45/49/893 43/47/894 40/44/895
f 45/49/896 218/226/897 43/47/898
f 47/51/899 218/226/900 45/49/899
f 218/226/901 219/227/902 43/47/903
f 219/227/904 41/45/905 43/47/906
f 218/226/907 220/228/908 219/227/909
f 220/228/910 218/226/911 221/229/912
f 221/229/913 222/230/914 220/228/915
f 219/227/916 220/228/917 222/230/918
f 221/229/919 223/231/920 222/230/921
f 219/227/922 222/230/923 224/232/924
f 219/227/925 224/232/926 225/233/927
f 224/232/928 141/146/929 225/233/930
f 141/146/931 138/143/932 225/233/933
f 225/233/934 138/143/935 226/234/936
f 137/142/937 226/234/938 138/143/939
f 219/227/940 225/233/941 227/235/942
f 225/233/943 226/234/944 227/235/945
f 228/236/946 41/45/947 219/227/948
f 227/235/949 228/236/950 219/227/951
f 226/234/952 229/237/953 227/235/954
f 228/236/955 227/235/956 229/237/957
f 41/45/958 228/236/959 230/238/959
f 42/46/960 41/45/961 230/238/960
f 228/236/962 231/239/962 230/238/962
f 228/236/963 229/237/964 231/239/963
f 229/237/965 226/234/966 232/240/967
f 137/142/968 232/240/969 226/234/970
f 42/46/971 230/238/971 35/39/971
f 230/238/972 231/239/972 35/39/972
f 36/40/973 42/46/973 35/39/973
f 36/40/974 39/43/975 42/46/974
f 35/39/976 231/239/976 34/38/976
f 30/34/977 34/38/978 231/239/978
f 229/237/979 30/34/980 231/239/981
f 229/237/982 232/240/983 30/34/984
f 232/240/985 233/241/986 30/34/987
f 232/240/988 137/142/989 233/241/990
f 30/34/991 233/241/992 32/35/993
f 137/142/994 132/137/995 233/241/996
f 137/142/997 133/138/998 132/137/999
f 131/136/1000 233/241/1001 132/137/1002
f 131/136/1003 78/82/1004 233/241/1005
f 78/82/1006 32/35/1007 233/241/1008
f 131/136/1009 79/83/1010 78/82/1011
f 55/59/1012 32/35/1013 78/82/1014
f 54/58/1015 32/35/1015 55/59/1016
f 31/36/1017 32/35/1017 54/58/1017
f 218/226/1018 47/51/1019 221/229/1020
f 221/229/1021 47/51/1022 234/242/1022
f 8/9/1023 10/10/1024 235/243/1025
f 60/64/1026 8/9/1027 235/243/1028
f 235/243/1029 61/65/1030 60/64/1031
f 235/243/1032 193/198/1033 61/65/1034
f 235/243/1035 190/195/1036 193/198/1037
f 193/198/1038 234/242/1038 61/65/1039
f 192/197/1040 234/242/1041 193/198/1041
f 234/242/1042 192/197/1043 221/229/1044
f 61/65/1045 234/242/1046 47/51/1046
f 47/51/1047 48/52/1047 61/65/1048
f 17/244/1049 6/5/1050 207/215/1051
f 208/216/1052 17/244/1053 207/215/1054
f 208/216/1055 211/219/1056 17/244/1057
f 211/219/1058 16/245/1059 17/244/1060
f 211/219/1061 212/220/1062 16/245/1063
f 15/246/1064 16/245/1065 212/220/1066
f 15/246/1067 212/220/1068 171/176/1069
f 171/176/1070 236/247/1071 15/246/1072
f 171/176/1073 169/174/1074 236/247/1075
f 236/247/1076 169/174/1077 168/173/1078
f 236/247/1079 168/173/1080 167/172/1081
f 15/246/1082 236/247/1083 237/248/1084
f 167/172/1085 237/248/1086 236/247/1087
f 15/246/1088 237/248/1089 238/249/1090
f 15/246/1091 238/249/1092 11/250/1092
f 239/251/1093 11/250/1094 238/249/1094
f 238/249/1095 240/252/1095 239/251/1096
f 237/248/1097 240/252/1098 238/249/1098
f 241/253/1099 239/251/1100 240/252/1101
f 167/172/1102 242/254/1103 237/248/1104
f 240/252/1105 237/248/1106 242/254/1107
f 240/252/1108 243/255/1109 241/253/1110
f 240/252/1111 242/254/1112 243/255/1113
f 244/256/1114 242/254/1115 167/172/1116
f 167/172/1117 166/171/1118 244/256/1119
f 244/256/1120 245/257/1121 242/254/1122
f 243/255/1123 242/254/1124 245/257/1125
f 166/171/1126 246/258/1127 244/256/1128
f 245/257/1129 244/256/1130 246/258/1131
f 245/257/1132 246/258/1133 247/259/1134
f 246/258/1135 166/171/1136 160/165/1137
f 246/258/1138 160/165/1139 159/164/1140
f 247/259/1141 246/258/1142 159/164/1143
f 248/260/1144 241/253/1145 243/255/1146
f 249/261/1147 241/253/1148 248/260/1149
f 248/260/1150 250/262/1151 249/261/1152
f 243/255/1153 245/257/1154 251/263/1155
f 251/263/1156 245/257/1157 247/259/1158
f 251/263/1159 252/264/1160 243/255/1161
f 248/260/1162 243/255/1163 252/264/1164
f 247/259/1165 159/164/1166 253/265/1167
f 253/265/1168 159/164/1169 157/162/1170
f 254/266/1171 252/264/1172 251/263/1173
f 251/263/1174 247/259/1175 254/266/1176
f 253/265/1177 157/162/1178 255/267/1179
f 154/159/1180 255/267/1181 157/162/1182
f 154/159/1183 152/157/1184 255/267/1185
f 256/268/1186 255/267/1187 152/157/1188
f 256/268/1189 253/265/1190 255/267/1191
f 256/268/1192 152/157/1193 153/158/1194
f 248/260/1195 257/269/1196 250/262/1197
f 248/260/1198 252/264/1199 258/270/1200
f 248/260/1201 258/270/1202 257/269/1203
f 254/266/1204 259/271/1205 252/264/1206
f 252/264/1207 259/271/1208 258/270/1209
f 260/272/1210 259/271/1211 254/266/1212
f 247/259/1213 260/272/1214 254/266/1215
f 260/272/1216 258/270/1217 259/271/1218
f 261/273/1219 247/259/1220 253/265/1221
f 261/273/1222 260/272/1223 247/259/1224
f 256/268/1225 262/274/1226 253/265/1227
f 253/265/1228 262/274/1229 261/273/1230
f 261/273/1231 262/274/1232 263/275/1233
f 262/274/1234 256/268/1235 264/276/1236
f 264/276/1237 263/275/1238 262/274/1239
f 264/276/1240 256/268/1241 153/158/1242
f 260/272/1243 265/277/1244 258/270/1245
f 265/277/1246 257/269/1247 258/270/1248
f 266/278/1249 260/272/1250 261/273/1251
f 266/278/1252 265/277/1253 260/272/1254
f 257/269/1255 265/277/1256 266/278/1257
f 261/273/1258 263/275/1259 266/278/1260
f 257/269/1261 266/278/1262 267/279/1263
f 267/279/1264 266/278/1265 263/275/1266
f 250/262/1267 257/269/1268 267/279/1269
f 250/262/1270 267/279/1271 268/280/1272
f 268/280/1273 267/279/1274 269/281/1275
f 267/279/1276 263/275/1277 269/281/1278
f 268/280/1279 269/281/1280 270/282/1281
f 270/282/1282 269/281/1283 271/283/1284
f 263/275/1285 271/283/1286 269/281/1287
f 270/282/1288 271/283/1289 272/284/1290
f 272/284/1291 271/283/1292 273/285/1293
f 274/286/1294 271/283/1295 263/275/1296
f 264/276/1297 274/286/1298 263/275/1299
f 153/158/1300 274/286/1301 264/276/1302
f 271/283/1303 274/286/1304 275/287/1305
f 153/158/1306 275/287/1307 274/286/1308
f 271/283/1309 275/287/1310 273/285/1311
f 151/156/1312 275/287/1313 153/158/1314
f 151/156/1315 147/152/1316 275/287/1317
f 147/152/1318 273/285/1319 275/287/1320
f 147/152/1321 151/156/1322 148/153/1323
f 147/152/1324 146/151/1325 273/285/1326
f 272/288/1327 273/285/1328 146/151/1329
f 146/151/1330 1/1/1331 272/288/1332
f 146/151/1333 276/289/1334 1/1/1335
f 276/289/1336 146/151/1337 143/148/1338
f 144/149/1339 143/148/1340 146/151/1341
f 276/289/1342 277/290/1343 1/1/1344
f 1/1/1345 277/290/1346 3/291/1346
f 276/289/1347 143/148/1348 142/147/1349
f 277/290/1350 276/289/1351 142/147/1352
f 142/147/1353 143/148/1354 140/145/1355
f 142/147/1356 26/292/1357 277/290/1358
f 26/292/1359 3/293/1360 277/290/1360
f 141/294/1361 26/292/1362 142/147/1363
f 141/294/1364 278/295/1365 26/292/1366
f 26/292/1367 278/295/1368 28/32/1369
f 141/294/1370 222/296/1371 278/295/1372
f 222/296/1373 28/32/1374 278/295/1375
f 141/294/1376 224/297/1377 222/296/1378
f 29/33/1379 28/32/1380 222/296/1381
f 29/33/1382 222/296/1383 223/298/1384
f 279/299/1385 29/33/1386 223/298/1387
f 279/299/1388 223/298/1389 280/300/1390
f 281/301/1391 279/299/1392 280/300/1393
f 282/302/1394 29/33/1395 279/299/1396
f 279/299/1397 283/303/1398 282/302/1399
f 282/302/1400 27/31/1401 29/33/1402
f 283/303/1403 27/31/1404 282/302/1405
f 283/303/1406 25/28/1407 27/31/1408
f 281/301/1409 284/304/1410 279/299/1411
f 284/304/1412 283/303/1413 279/299/1414
f 284/304/1415 281/301/1416 285/305/1417
f 284/304/1418 285/305/1419 286/306/1420
f 21/307/1421 286/306/1422 285/305/1423
f 21/307/1424 20/308/1425 286/306/1426
f 286/306/1427 287/309/1428 284/304/1429
f 284/304/1430 287/309/1431 283/303/1432
f 288/310/1433 286/306/1434 20/308/1435
f 286/306/1436 288/310/1437 287/309/1438
f 288/310/1439 20/308/1440 13/311/1441
f 288/310/1442 289/312/1443 287/309/1444
f 287/309/1445 289/312/1446 283/303/1447
f 288/310/1448 13/311/1449 289/312/1450
f 25/28/1451 283/303/1452 290/313/1453
f 289/312/1454 290/313/1455 283/303/1456
f 290/313/1457 2/3/1458 25/28/1459
f 2/3/1460 3/29/1461 25/28/1462
f 290/313/1463 291/314/1464 2/3/1465
f 292/315/1466 291/314/1467 290/313/1468
f 292/315/1469 290/313/1470 293/316/1471
f 289/312/1472 293/316/1473 290/313/1474
f 293/316/1475 294/317/1476 292/315/1477
f 289/312/1478 295/318/1479 293/316/1480
f 293/316/1481 295/318/1482 294/317/1483
f 13/311/1484 295/318/1485 289/312/1486
f 295/318/1487 296/319/1488 294/317/1489
f 13/311/1490 297/320/1491 295/318/1492
f 295/318/1493 297/320/1494 296/319/1495
f 11/321/1496 297/320/1497 13/311/1498
f 11/321/1499 239/322/1500 297/320/1501
f 296/319/1502 297/320/1503 239/322/1504
f 296/319/1505 239/322/1506 241/323/1507
f 241/253/1508 294/317/1509 296/319/1510
f 241/253/1511 249/324/1512 294/317/1513
f 249/324/1514 292/315/1515 294/317/1516
f 249/324/1517 250/262/1518 292/315/1519
f 250/262/1520 291/314/1521 292/315/1522
f 250/262/1523 268/325/1524 291/314/1525
f 270/282/1526 291/314/1527 268/325/1528
f 270/282/1529 2/3/1530 291/314/1531
f 280/326/1532 223/327/1533 221/328/1534
f 280/326/1535 221/328/1536 192/329/1537
f 191/330/1538 280/331/1539 192/329/1540
f 194/332/1541 280/331/1542 191/330/1543
f 194/332/1544 281/333/1545 280/331/1546
f 196/334/1547 281/333/1548 194/332/1549
f 196/334/1550 285/335/1551 281/333/1552
f 22/336/1553 285/335/1554 196/334/1555
f 22/336/1556 21/337/1557 285/335/1558
f 113/118/1559 114/119/1560 184/189/1561
f 113/118/1562 184/189/1563 187/192/1564
f 113/118/1565 187/192/1566 111/116/1567
f 113/118/1568 111/116/1569 112/117/1570
f 111/116/1571 187/192/1572 96/100/1573
f 96/100/1574 187/192/1575 95/99/1576
f 96/100/1577 109/114/1578 111/116/1579
f 96/100/1580 94/98/1581 109/114/1582
f 94/98/1583 99/104/1584 109/114/1585
f 94/98/1586 93/97/1587 99/104/1588
f 183/188/1589 216/224/1590 185/190/1591
f 298/338/1592 185/190/1593 216/224/1594
f 216/224/1595 65/69/1596 298/338/1597
f 216/224/1598 7/7/1599 65/69/1600
f 66/70/1601 298/338/1602 65/69/1603
f 66/70/1604 185/190/1605 298/338/1606
f 84/88/1607 185/190/1608 66/70/1609
f 84/88/1610 186/191/1611 185/190/1612
f 85/101/1613 186/191/1614 84/88/1615
f 85/101/1616 95/99/1617 186/191/1618
f 183/188/1619 188/339/1620 9/8/1621
f 10/10/1622 9/8/1623 188/339/1624
f 272/288/1625 2/340/1626 270/341/1627
f 272/288/1628 1/342/1629 2/340/1630
f 10/10/1631 190/195/1632 235/243/1633
f 10/10/1634 188/343/1635 190/195/1636
