# Blender 5.1.2
# www.blender.org
mtllib Whiskers.mtl
o Whiskers.001
v -0.220077 0.311192 0.353797
v -0.304249 0.257743 0.287830
v -0.327172 0.349569 0.283435
v -0.272718 0.414590 0.356490
v -0.153089 0.407283 0.423409
v -0.300195 0.425526 0.176152
v -0.181174 0.456935 0.417659
v -0.246867 0.463731 0.277548
v -0.184006 0.485627 0.384763
v -0.033013 0.354827 0.502990
v 0.105983 0.371939 0.596993
v 0.078033 0.310558 0.572691
v -0.039265 0.435967 0.526296
v -0.090425 0.395008 0.451260
v 0.142333 0.442070 0.545488
v -0.116758 0.443200 0.474592
v 0.009677 0.469766 0.498576
v -0.098117 0.489437 0.465177
vn -0.5838 -0.1021 0.8054
vn -0.5573 -0.1145 0.8224
vn -0.5897 -0.2214 0.7767
vn -0.6063 -0.3116 0.7316
vn -0.6019 -0.3318 0.7264
vn -0.5851 -0.3159 0.7469
vn -0.4782 -0.2867 0.8302
vn -0.4760 -0.2770 0.8347
vn -0.4785 -0.2549 0.8402
vn -0.8401 0.5219 0.1479
vn -0.8390 0.5203 0.1592
vn -0.8295 0.5380 0.1497
vn -0.4997 -0.1914 0.8448
vn -0.4902 -0.1608 0.8566
vn -0.4785 -0.1773 0.8600
vn -0.7490 0.6469 0.1432
vn -0.7930 0.5943 0.1341
vn -0.7527 0.6399 0.1549
vn -0.5443 0.7809 0.3064
vn -0.5576 0.7481 0.3598
vn -0.5483 0.7796 0.3027
vn -0.8207 0.3851 0.4221
vn -0.6516 0.6789 0.3384
vn -0.7966 0.3864 0.4649
vn -0.5409 -0.1323 0.8306
vn -0.5331 -0.1939 0.8235
vn -0.5517 -0.0812 0.8301
vn -0.4759 -0.3111 0.8227
vn -0.5177 -0.2754 0.8100
vn -0.5121 -0.2787 0.8124
vn -0.7238 -0.1947 0.6619
vn -0.7081 -0.2129 0.6733
vn -0.7387 -0.2435 0.6285
vn -0.0966 0.6216 0.7774
vn -0.1067 0.6228 0.7751
vn -0.1059 0.6344 0.7657
vn -0.5284 -0.5451 0.6508
vn -0.4931 -0.5827 0.6459
vn -0.4738 -0.5093 0.7185
vn -0.0911 0.7135 0.6947
vn -0.0919 0.7220 0.6857
vn -0.0785 0.6783 0.7306
vn -0.5453 0.4180 0.7266
vn -0.4990 0.3626 0.7871
vn -0.4942 0.3603 0.7911
vn -0.0878 0.7103 0.6984
vn -0.1383 0.6907 0.7098
vn -0.0891 0.7056 0.7030
vt 0.343133 0.088247
vt 0.074348 0.245679
vt 0.125750 -0.048388
vt 0.268652 0.416137
vt 0.509735 0.428007
vt 0.022947 0.539746
vt 0.462955 0.586596
vt 0.219399 0.643013
vt 0.415851 0.746279
vt 0.344728 0.163216
vt 0.138349 0.022492
vt 0.069072 0.222358
vt 0.316869 0.436278
vt 0.512518 0.346969
vt 0.102103 0.633653
vt 0.487502 0.502485
vt 0.291095 0.674407
vt 0.462313 0.659074
s 1
usemtl Whiskers.001
f 1/1/1 3/2/2 2/3/3
f 1/1/4 4/4/5 3/2/6
f 5/5/7 4/4/8 1/1/9
f 4/4/10 6/6/11 3/2/12
f 5/5/13 7/7/14 4/4/15
f 4/4/16 8/8/17 6/6/18
f 7/7/19 8/8/20 4/4/21
f 7/7/22 9/9/23 8/8/24
f 10/10/25 12/11/26 11/12/27
f 10/10/28 11/12/29 13/13/30
f 14/14/31 10/10/32 13/13/33
f 13/13/34 11/12/35 15/15/36
f 14/14/37 13/13/38 16/16/39
f 13/13/40 15/15/41 17/17/42
f 16/16/43 13/13/44 18/18/45
f 13/13/46 17/17/47 18/18/48
